{"glyphs":{"0":{"ha":992,"x_min":0,"x_max":0,"o":"m 496 1083 b 85 526 269 1083 85 840 b 496 -14 85 225 269 -14 b 907 526 722 -14 907 225 b 496 1083 907 840 722 1083 z m 496 53 b 265 522 351 53 265 161 b 496 1017 265 899 351 1017 b 726 522 640 1017 726 899 b 496 53 726 161 639 53 z "},"1":{"ha":619,"x_min":0,"x_max":0,"o":"m 383 1083 b 96 1025 293 1051 186 1029 l 96 972 b 242 928 188 972 232 968 b 247 725 247 906 247 832 l 247 215 b 103 53 247 85 226 58 l 103 0 l 528 0 l 528 53 b 383 225 403 57 383 82 z "},"2":{"ha":856,"x_min":0,"x_max":0,"o":"m 271 143 b 760 783 540 343 760 554 b 426 1085 760 960 622 1085 b 82 796 229 1085 82 961 b 261 588 82 675 158 588 b 369 661 318 588 361 617 b 217 825 276 661 217 725 b 404 1019 217 939 294 1019 b 593 786 519 1019 593 929 b 69 46 593 592 493 424 l 69 0 l 715 0 l 768 296 l 717 296 b 549 136 678 165 638 136 l 272 136 z "},"3":{"ha":856,"x_min":0,"x_max":0,"o":"m 596 297 b 400 51 596 139 526 51 b 218 211 292 51 218 117 b 338 347 218 290 268 347 b 231 408 328 382 282 408 b 71 232 140 408 71 332 b 403 -14 71 90 211 -14 b 771 288 617 -14 771 115 b 531 571 771 428 669 535 l 531 579 b 739 836 646 608 739 711 b 408 1083 739 985 608 1083 b 111 888 231 1083 111 1006 b 253 740 111 804 172 740 b 350 793 301 740 342 763 b 250 899 290 793 250 836 b 408 1024 250 976 311 1024 b 572 829 519 1024 572 961 b 407 585 572 682 506 585 b 322 600 379 594 346 600 b 261 561 285 600 261 586 b 325 514 261 533 288 514 b 418 539 353 514 390 525 b 596 297 531 539 596 450 z "},"4":{"ha":813,"x_min":0,"x_max":0,"o":"m 25 249 l 421 249 l 421 215 b 276 53 421 85 399 53 l 276 0 l 667 0 l 667 53 b 557 225 575 53 557 82 l 557 254 b 686 132 672 251 686 233 l 735 132 l 735 442 l 686 442 b 557 315 686 335 672 319 l 557 1083 l 514 1083 l 25 318 z m 421 318 l 94 318 l 414 813 l 421 813 z "},"5":{"ha":789,"x_min":0,"x_max":0,"o":"m 340 918 l 463 918 b 679 1083 578 918 657 978 l 671 1085 b 486 1058 636 1068 571 1058 b 324 1083 414 1058 364 1067 l 175 510 b 174 499 174 506 174 501 b 204 471 174 482 186 471 b 238 510 219 471 226 476 b 393 642 268 601 317 642 b 535 413 494 642 535 569 b 304 47 535 192 449 47 b 97 257 131 47 213 257 b 31 178 54 257 31 228 b 300 -14 31 67 143 -14 b 707 381 529 -14 707 160 b 419 701 707 563 583 701 b 278 665 365 701 306 686 l 275 669 z "},"6":{"ha":893,"x_min":0,"x_max":0,"o":"m 814 360 b 485 706 814 557 672 706 b 265 581 392 706 325 667 l 261 583 b 485 1021 261 833 357 1021 b 690 869 626 1021 582 869 b 765 942 736 869 765 897 b 525 1083 765 1021 658 1083 b 85 468 283 1083 85 806 b 446 -14 85 185 233 -14 b 814 360 650 -14 814 151 z m 258 461 b 465 638 319 585 381 638 b 640 354 579 638 640 539 b 451 49 640 146 579 49 b 258 393 325 49 258 165 z "},"7":{"ha":697,"x_min":0,"x_max":0,"o":"m 390 569 b 147 43 161 128 147 90 b 207 -14 147 17 174 -14 b 351 189 254 -14 289 24 b 704 1042 481 531 519 626 l 704 1069 l 297 1069 b 192 1110 213 1069 192 1078 b 197 1153 192 1122 194 1144 l 142 1153 l 44 764 l 97 764 l 118 818 b 321 932 157 921 176 932 l 579 932 z "},"8":{"ha":842,"x_min":0,"x_max":0,"o":"m 457 460 b 631 249 586 385 631 332 b 422 50 631 128 549 50 b 214 254 294 50 214 129 b 374 507 214 360 269 449 z m 535 601 b 717 838 661 663 717 744 b 611 1025 717 911 679 978 b 417 1083 556 1063 488 1083 b 208 1006 333 1083 264 1057 b 119 806 151 951 119 881 b 315 536 119 694 183 607 b 82 250 160 461 82 365 b 417 -14 82 101 228 -14 b 757 294 610 -14 757 119 b 535 601 757 421 682 524 z m 411 665 b 239 860 289 731 239 786 b 410 1021 239 956 307 1021 b 601 831 519 1021 601 939 b 476 631 601 756 556 683 z "},"9":{"ha":893,"x_min":0,"x_max":0,"o":"m 79 710 b 408 364 79 513 221 364 b 628 489 501 364 568 403 l 632 486 b 408 49 632 236 536 49 b 203 200 267 49 311 200 b 128 128 157 200 128 172 b 368 -14 128 49 235 -14 b 808 601 610 -14 808 264 b 447 1083 808 885 660 1083 b 79 710 243 1083 79 918 z m 635 608 b 428 432 574 485 513 432 b 253 715 314 432 253 531 b 442 1021 253 924 314 1021 b 635 676 568 1021 635 904 z "},"m":{"ha":1490,"x_min":0,"x_max":0,"o":"m 307 399 b 331 549 307 486 311 511 b 531 674 368 624 449 674 b 690 386 650 674 690 601 l 690 211 b 574 49 690 71 679 56 l 574 0 l 943 0 l 943 49 b 826 222 835 56 826 69 l 826 399 b 850 549 826 486 831 511 b 1049 674 890 624 968 674 b 1211 386 1168 674 1211 599 l 1211 211 b 1093 49 1211 72 1199 54 l 1093 0 l 1463 0 l 1463 49 b 1347 222 1357 56 1347 69 l 1347 443 b 1301 669 1347 564 1335 626 b 1101 750 1264 719 1188 750 b 819 613 992 750 888 699 l 814 613 b 583 750 783 700 700 750 b 300 611 472 750 383 706 l 293 611 l 275 750 l 49 697 l 49 649 b 161 593 133 649 151 640 b 171 389 168 568 171 494 l 171 211 b 51 49 171 71 158 56 l 51 0 l 421 0 l 421 49 b 307 222 315 56 307 68 z "},"i":{"ha":474,"x_min":0,"x_max":0,"o":"m 317 750 l 44 697 l 44 649 b 171 593 136 649 163 636 b 181 389 178 568 181 496 l 181 211 b 47 49 181 81 160 54 l 47 0 l 446 0 l 446 49 b 317 221 336 53 317 78 z m 157 1032 b 243 946 157 983 194 946 b 329 1032 292 946 329 983 b 243 1118 329 1081 292 1118 b 157 1032 194 1118 157 1081 z "},"ı":{"ha":474,"x_min":0,"x_max":0,"o":"m 317 750 l 44 697 l 44 646 b 171 589 136 646 163 633 b 181 386 178 564 181 493 l 181 214 b 47 51 181 83 160 57 l 47 0 l 446 0 l 446 51 b 317 225 336 56 317 81 z "},"n":{"ha":957,"x_min":0,"x_max":0,"o":"m 300 404 b 325 553 300 492 306 515 b 521 675 364 628 439 675 b 679 392 636 675 679 601 l 679 208 b 564 47 679 71 668 53 l 564 0 l 924 0 l 924 47 b 811 218 822 54 811 68 l 811 450 b 768 672 811 568 800 629 b 571 750 731 719 656 750 b 293 613 461 750 363 699 l 288 613 l 271 750 l 49 697 l 49 653 b 160 594 129 653 149 644 b 168 393 165 571 168 501 l 168 208 b 51 47 168 69 154 54 l 51 0 l 415 0 l 415 47 b 300 218 308 54 300 68 z "},"u":{"ha":931,"x_min":0,"x_max":0,"o":"m 643 378 b 619 229 643 299 638 272 b 429 69 574 122 508 69 b 281 357 326 69 281 157 l 281 736 l 29 736 l 29 688 b 144 514 136 678 144 665 l 144 293 b 189 68 144 179 158 108 b 385 -14 226 18 307 -14 b 650 151 485 -14 579 38 l 656 151 l 671 -15 l 900 1 l 900 50 b 788 106 815 50 796 58 b 779 310 782 139 779 204 l 779 736 l 528 736 l 528 688 b 643 514 635 676 643 665 z "},"h":{"ha":956,"x_min":0,"x_max":0,"o":"m 289 399 b 313 549 289 483 293 510 b 515 674 353 626 429 674 b 672 386 629 674 672 594 l 672 211 b 556 49 672 71 661 54 l 556 0 l 924 0 l 924 49 b 810 221 818 56 810 69 l 810 443 b 764 668 810 561 796 626 b 564 750 725 718 649 750 b 292 624 463 750 349 697 l 286 624 l 286 1153 l 31 1100 l 31 1053 b 143 997 114 1053 135 1042 b 153 793 150 964 153 901 l 153 211 b 33 49 153 71 140 56 l 33 0 l 403 0 l 403 49 b 289 221 297 56 289 68 z "},"l":{"ha":451,"x_min":0,"x_max":0,"o":"m 290 1153 l 28 1101 l 28 1054 b 153 1000 117 1054 143 1043 b 161 806 158 976 161 906 l 161 207 b 31 49 161 79 140 54 l 31 0 l 414 0 l 414 49 b 290 217 307 53 290 76 z "},"r":{"ha":663,"x_min":0,"x_max":0,"o":"m 308 268 b 332 465 308 342 317 413 b 465 635 360 563 415 635 b 575 600 499 635 517 600 b 656 671 626 600 656 626 b 560 750 656 719 619 750 b 318 563 465 750 368 674 l 313 563 l 293 735 l 50 682 l 50 633 b 172 374 169 633 172 626 l 172 211 b 53 49 172 71 160 54 l 53 0 l 422 0 l 422 49 b 308 221 317 56 308 68 z "}," ":{"ha":399,"x_min":0,"x_max":0,"o":""},"o":{"ha":908,"x_min":0,"x_max":0,"o":"m 451 750 b 67 374 243 750 67 593 b 451 -14 67 147 243 -14 b 842 374 663 -14 842 149 b 451 750 842 592 663 750 z m 451 683 b 685 372 592 683 685 557 b 451 57 685 182 593 57 b 224 372 313 57 224 181 b 451 683 224 558 314 683 z "},"p":{"ha":943,"x_min":0,"x_max":0,"o":"m 292 744 l 25 692 l 25 644 b 151 588 117 644 143 632 b 161 385 158 563 161 492 l 161 -135 b 28 -299 161 -268 139 -294 l 28 -347 l 456 -347 l 456 -299 b 297 -125 318 -294 297 -272 l 297 78 b 511 -14 358 13 426 -14 b 875 367 718 -14 875 140 b 513 750 875 589 722 750 b 297 636 422 750 356 707 l 292 636 z m 333 596 b 496 683 369 651 429 683 b 718 361 629 683 718 553 b 504 54 718 168 631 54 b 335 147 440 54 378 89 b 297 322 306 185 297 222 l 297 431 b 333 596 297 511 310 558 z "},"d":{"ha":938,"x_min":0,"x_max":0,"o":"m 672 -14 l 903 1 l 903 49 b 790 106 817 49 801 61 b 781 351 782 140 781 224 l 781 1153 l 496 1100 l 496 1058 b 639 1003 592 1058 629 1043 b 647 799 644 978 647 903 l 647 657 b 428 750 583 721 515 750 b 67 369 219 750 67 589 b 428 -14 67 146 218 -14 b 667 117 529 -14 600 24 l 672 117 z m 644 332 b 608 140 644 232 635 181 b 428 53 572 85 493 53 b 224 376 294 53 224 181 b 428 683 224 564 296 683 b 607 599 492 683 565 654 b 644 424 636 561 644 521 z "},"b":{"ha":908,"x_min":0,"x_max":0,"o":"m 263 414 b 293 582 263 486 274 543 b 463 685 325 646 388 685 b 685 364 593 685 685 553 b 468 51 685 176 597 51 b 263 290 349 51 263 151 z m 260 1153 l -1 1097 l -1 1063 b 108 1018 86 1050 96 1044 b 126 839 119 994 126 932 l 126 0 l 157 0 l 222 93 b 483 -15 281 26 379 -15 b 842 368 686 -15 842 150 b 488 750 842 583 688 750 b 265 638 394 750 325 715 l 260 638 z "},"q":{"ha":907,"x_min":0,"x_max":0,"o":"m 644 322 b 614 154 644 250 633 193 b 442 53 582 90 517 53 b 224 368 308 53 224 175 b 440 682 224 558 308 682 b 644 444 557 682 644 582 z m 649 -135 b 500 -299 649 -261 618 -296 l 500 -347 l 924 -347 l 924 -299 b 781 -125 792 -294 781 -279 l 781 733 l 746 733 l 685 638 b 425 750 624 706 524 750 b 67 358 226 750 67 576 b 417 -14 67 139 211 -14 b 643 100 514 -14 578 19 l 649 100 z "},"j":{"ha":422,"x_min":0,"x_max":0,"o":"m 296 750 l 24 697 l 24 649 b 150 593 115 649 142 636 b 160 389 157 568 160 496 l 160 -94 b 40 -301 160 -249 129 -301 b -47 -232 -6 -301 -21 -287 b -119 -167 -75 -176 -86 -167 b -190 -232 -164 -167 -190 -190 b 11 -361 -190 -308 -107 -361 b 296 -3 194 -361 296 -233 z m 139 1032 b 225 946 139 983 176 946 b 311 1032 274 946 311 983 b 225 1118 311 1081 274 1118 b 139 1032 176 1118 139 1081 z "},"c":{"ha":744,"x_min":0,"x_max":0,"o":"m 661 156 b 447 58 592 88 524 58 b 226 383 304 58 226 172 b 426 685 226 581 296 685 b 546 626 481 685 510 669 b 631 569 581 579 597 569 b 699 628 672 569 699 592 b 454 750 699 700 597 750 b 68 363 224 750 68 599 b 403 -14 68 138 206 -14 b 703 115 525 -14 636 35 z "},"e":{"ha":796,"x_min":0,"x_max":0,"o":"m 682 168 b 471 58 613 92 547 58 b 225 378 322 58 225 185 b 231 440 225 403 226 425 l 688 440 b 731 468 725 440 731 443 b 449 750 731 649 626 750 b 68 360 225 750 68 588 b 432 -14 68 138 215 -14 b 725 129 550 -14 644 32 z m 240 504 b 426 683 264 622 328 683 b 579 543 519 683 579 628 b 496 504 579 510 571 504 z "},"f":{"ha":572,"x_min":0,"x_max":0,"o":"m 31 649 l 188 649 l 188 213 b 68 49 188 72 174 54 l 68 0 l 463 0 l 463 49 b 318 224 346 51 318 86 l 318 649 l 542 649 l 542 714 l 318 714 l 318 822 b 340 1001 318 915 324 965 b 460 1086 364 1057 404 1086 b 560 1039 494 1086 514 1078 b 644 993 600 1006 622 993 b 706 1058 679 993 706 1021 b 511 1153 706 1114 625 1153 b 188 814 304 1153 188 1026 l 188 714 l 31 714 z "},"g":{"ha":832,"x_min":0,"x_max":0,"o":"m 381 299 b 249 501 301 299 249 379 b 379 699 249 622 300 699 b 504 500 458 699 504 625 b 381 299 504 374 458 299 z m 304 136 b 206 182 240 140 206 153 b 357 240 206 221 244 232 b 651 504 551 254 651 349 b 618 633 651 558 642 597 b 686 657 640 649 664 657 b 790 614 732 657 739 614 b 846 665 822 614 846 635 b 736 750 846 717 803 750 b 585 676 694 750 647 728 b 376 750 533 724 457 750 b 103 506 218 750 103 646 b 246 285 103 410 164 318 l 246 279 b 104 146 164 267 104 211 b 263 13 104 69 160 24 b 511 -18 313 7 424 -6 b 638 -154 579 -28 638 -81 b 400 -300 638 -251 558 -300 b 168 -172 253 -300 168 -253 b 253 -57 168 -117 203 -68 b 168 -28 228 -37 200 -28 b 44 -167 100 -28 44 -89 b 394 -361 44 -282 188 -361 b 754 -122 626 -361 754 -276 b 533 110 754 1 667 90 b 304 136 449 122 393 129 z "},"k":{"ha":856,"x_min":0,"x_max":0,"o":"m 483 0 l 849 0 l 849 49 b 701 125 778 49 754 64 l 426 436 l 626 614 b 790 688 694 674 721 688 l 790 736 l 429 736 l 429 688 b 542 654 501 688 542 674 b 418 517 542 635 501 599 l 289 390 l 289 1153 l 21 1100 l 21 1053 b 140 1026 86 1053 124 1053 b 157 793 157 1001 157 933 l 157 211 b 24 49 157 79 135 53 l 24 0 l 418 0 l 418 49 b 289 221 307 53 289 78 l 289 303 l 340 351 l 488 174 b 564 64 532 119 563 78 b 483 49 564 54 544 49 z "},"s":{"ha":631,"x_min":0,"x_max":0,"o":"m 147 49 b 333 -14 197 8 261 -14 b 565 197 471 -14 565 67 b 343 450 565 303 503 350 b 207 599 249 508 207 538 b 311 693 207 658 249 693 b 467 536 382 693 426 649 l 503 536 l 503 736 l 476 736 l 449 707 b 300 750 408 733 350 750 b 93 536 183 750 93 663 b 281 308 93 432 156 388 b 442 153 417 224 442 207 b 321 43 442 79 394 43 b 124 239 224 43 160 107 l 89 239 l 89 0 l 119 0 z "},"t":{"ha":525,"x_min":0,"x_max":0,"o":"m 139 649 l 139 156 b 326 -14 139 47 204 -14 b 513 92 421 -14 486 24 l 478 118 b 371 54 447 72 417 54 b 275 226 297 54 275 96 l 275 649 l 461 649 l 461 714 l 275 714 l 275 889 l 235 889 b 56 700 206 810 154 758 l 56 649 z "},"v":{"ha":847,"x_min":0,"x_max":0,"o":"m 379 -15 l 460 -15 l 664 456 b 750 649 685 501 721 608 b 822 688 768 671 793 688 l 822 736 l 546 736 l 546 688 b 635 633 619 688 635 675 b 581 449 635 592 619 540 l 454 150 l 449 150 l 301 553 b 282 639 292 581 282 608 b 375 688 282 683 301 685 l 375 736 l 7 736 l 7 688 b 144 564 79 685 100 676 z "},"w":{"ha":1183,"x_min":0,"x_max":0,"o":"m 590 499 l 596 499 l 765 -14 l 817 -14 l 1032 518 b 1164 688 1090 663 1110 688 l 1164 736 l 886 736 l 886 688 b 979 638 961 688 979 678 b 922 446 979 606 968 569 l 839 221 l 833 221 l 649 736 l 606 736 l 401 221 l 396 221 l 301 553 b 286 632 292 589 286 614 b 385 688 286 672 313 688 l 385 736 l 17 736 l 17 688 b 154 564 97 688 122 667 l 335 -14 l 386 -14 z "},"x":{"ha":846,"x_min":0,"x_max":0,"o":"m 450 450 l 350 596 b 324 654 333 619 324 639 b 394 688 324 675 344 688 l 394 736 l 53 736 l 53 688 b 178 611 106 688 136 671 l 363 349 l 221 175 b 14 49 139 74 100 49 l 14 0 l 332 0 l 332 49 b 263 94 283 49 263 68 b 283 144 263 110 269 128 l 401 294 l 499 169 b 550 86 535 122 550 99 b 461 49 550 57 528 49 l 461 0 l 831 0 l 831 49 b 672 151 775 49 729 76 l 488 394 l 631 576 b 800 688 697 663 733 688 l 800 736 l 496 736 l 496 688 b 578 643 549 688 578 672 b 544 572 578 625 567 600 z "},"y":{"ha":888,"x_min":0,"x_max":0,"o":"m 693 456 b 872 688 783 663 803 688 l 872 736 l 567 736 l 567 688 b 664 626 643 688 664 675 b 606 449 664 596 656 569 l 479 136 l 472 136 l 319 506 b 281 642 297 560 281 618 b 374 688 281 674 310 688 l 374 736 l 6 736 l 6 688 b 143 564 79 682 96 667 l 410 -15 l 361 -112 b 218 -218 326 -182 294 -206 b 104 -296 131 -232 104 -250 b 192 -361 104 -340 133 -361 b 390 -218 279 -361 349 -311 z "},"z":{"ha":774,"x_min":0,"x_max":0,"o":"m 715 215 l 669 215 b 399 64 636 88 589 64 l 236 64 l 710 731 l 710 736 l 113 736 l 90 544 l 135 544 b 351 678 154 658 193 678 l 506 678 l 25 6 l 25 0 l 692 0 z "},"a":{"ha":769,"x_min":0,"x_max":0,"o":"m 485 301 b 311 71 485 175 407 71 b 200 175 244 71 200 114 b 485 411 200 257 272 331 z m 285 383 b 60 151 117 311 60 240 b 247 -12 60 53 132 -12 b 489 135 350 -12 440 44 l 496 135 b 617 -14 496 40 536 -14 b 771 61 682 -14 749 18 l 751 94 b 683 64 735 67 708 64 b 621 222 642 64 621 115 l 621 533 b 365 750 621 692 551 750 b 93 610 192 750 93 699 b 163 540 93 565 118 540 b 235 607 199 540 214 554 b 340 697 258 679 276 697 b 485 528 439 697 485 643 l 485 471 z "},"I":{"ha":576,"x_min":0,"x_max":0,"o":"m 361 807 b 499 1017 361 975 379 1013 l 499 1069 l 76 1069 l 76 1017 b 215 817 196 1011 215 974 l 215 253 b 63 53 215 81 193 57 l 63 0 l 513 0 l 513 53 b 361 263 382 57 361 79 z "},"H":{"ha":1285,"x_min":0,"x_max":0,"o":"m 1069 849 b 1207 1017 1069 989 1088 1013 l 1207 1069 l 785 1069 l 785 1017 b 924 858 904 1011 924 988 l 924 582 l 361 582 l 361 849 b 499 1017 361 989 379 1013 l 499 1069 l 76 1069 l 76 1017 b 215 858 196 1011 215 988 l 215 211 b 63 53 215 81 193 57 l 63 0 l 513 0 l 513 53 b 361 221 382 57 361 79 l 361 513 l 924 513 l 924 211 b 771 53 924 81 901 57 l 771 0 l 1221 0 l 1221 53 b 1069 221 1090 57 1069 79 z "},"L":{"ha":1010,"x_min":0,"x_max":0,"o":"m 981 274 l 928 274 b 608 63 888 101 821 63 b 361 250 417 63 361 94 l 361 849 b 499 1017 361 989 379 1013 l 499 1069 l 76 1069 l 76 1017 b 215 858 196 1011 215 988 l 215 211 b 63 53 215 81 193 57 l 63 0 l 960 0 z "},"E":{"ha":1008,"x_min":0,"x_max":0,"o":"m 361 986 b 385 1010 361 1000 369 1010 l 561 1010 b 843 825 750 1010 821 972 l 892 825 l 879 1069 l 76 1069 l 76 1017 b 215 858 196 1011 215 988 l 215 211 b 63 53 215 81 193 57 l 63 0 l 925 0 l 946 274 l 893 274 b 592 60 857 110 788 60 b 361 218 417 60 361 97 l 361 532 b 624 368 569 531 624 479 l 672 368 l 672 747 l 624 747 b 361 588 624 635 561 588 z "},"F":{"ha":931,"x_min":0,"x_max":0,"o":"m 361 504 b 624 326 550 503 604 468 l 672 326 l 672 733 l 624 733 b 361 560 611 593 540 560 l 361 979 b 385 1003 361 993 369 1003 l 561 1003 b 846 804 760 1003 822 963 l 894 804 l 879 1069 l 76 1069 l 76 1017 b 215 858 196 1011 215 988 l 215 211 b 63 53 215 81 193 57 l 63 0 l 554 0 l 554 53 b 361 221 386 57 361 79 z "},"J":{"ha":547,"x_min":0,"x_max":0,"o":"m 201 -60 b 83 -294 201 -208 158 -294 b -3 -218 47 -294 29 -278 b -82 -153 -31 -167 -47 -153 b -153 -226 -126 -153 -153 -179 b 58 -361 -153 -307 -68 -361 b 347 -3 246 -361 347 -235 l 347 849 b 485 1017 347 989 365 1013 l 485 1069 l 63 1069 l 63 1017 b 201 858 182 1011 201 988 z "},"K":{"ha":1082,"x_min":0,"x_max":0,"o":"m 361 396 l 457 507 l 728 174 b 775 90 761 133 775 106 b 674 53 775 64 746 53 l 674 0 l 1100 0 l 1100 53 b 953 125 1032 53 999 71 l 547 613 l 808 914 b 992 1018 886 1004 918 1018 l 992 1069 l 657 1069 l 657 1017 b 736 978 710 1017 736 1003 b 708 924 736 964 726 946 l 361 506 l 361 849 b 499 1017 361 996 388 1017 l 499 1069 l 76 1069 l 76 1017 b 215 858 186 1017 215 1000 l 215 211 b 63 53 215 81 192 53 l 63 0 l 513 0 l 513 53 b 361 221 385 53 361 79 z "},"M":{"ha":1514,"x_min":0,"x_max":0,"o":"m 758 249 l 408 1069 l 76 1069 l 76 1017 b 215 817 196 1011 215 974 l 215 253 b 63 53 215 81 193 57 l 63 0 l 450 0 l 450 53 b 299 263 319 57 299 79 l 299 897 l 304 897 l 703 -14 l 733 -14 l 1139 897 l 1153 897 l 1153 253 b 1000 53 1153 81 1131 57 l 1000 0 l 1450 0 l 1450 53 b 1299 263 1319 57 1299 79 l 1299 807 b 1436 1017 1299 975 1317 1013 l 1436 1069 l 1125 1069 l 764 249 z "},"A":{"ha":1072,"x_min":0,"x_max":0,"o":"m 735 238 b 767 114 760 174 767 150 b 638 54 767 71 736 54 l 638 0 l 1090 0 l 1090 54 b 879 286 994 54 964 78 l 564 1069 l 504 1069 l 143 165 b -8 53 111 86 76 63 l -8 0 l 329 0 l 329 53 b 221 121 253 53 221 69 b 307 388 221 158 243 235 l 678 388 z m 497 867 l 651 457 l 335 457 z "},"O":{"ha":1314,"x_min":0,"x_max":0,"o":"m 657 1083 b 79 526 332 1083 79 840 b 657 -14 79 225 335 -14 b 1235 526 979 -14 1235 225 b 657 1083 1235 840 982 1083 z m 657 63 b 260 522 413 63 260 240 b 657 1007 260 819 413 1007 b 1054 522 901 1007 1054 819 b 657 63 1054 240 900 63 z "},"Q":{"ha":1317,"x_min":0,"x_max":0,"o":"m 658 1083 b 81 522 333 1083 81 842 b 624 -40 81 217 311 -31 l 443 -143 b 351 -226 360 -192 351 -201 b 392 -261 351 -247 367 -261 b 564 -171 454 -261 468 -171 b 1053 -361 704 -171 847 -361 b 1296 -158 1190 -361 1296 -275 b 1290 -100 1296 -139 1293 -117 l 1256 -100 b 1103 -224 1228 -190 1189 -224 b 669 -119 951 -224 835 -119 b 621 -122 654 -119 632 -121 l 621 -117 b 758 -46 660 -87 708 -65 b 1040 101 864 -7 964 35 b 1236 525 1158 204 1236 351 b 658 1083 1236 840 983 1083 z m 658 28 b 261 522 414 28 261 219 b 658 1007 261 819 414 1007 b 1056 522 903 1007 1056 819 b 658 28 1056 219 901 28 z "},"C":{"ha":1114,"x_min":0,"x_max":0,"o":"m 932 983 b 615 1083 818 1054 726 1083 b 83 517 300 1083 83 853 b 600 -14 83 193 286 -14 b 953 110 738 -14 854 26 l 985 0 l 1033 0 l 1033 346 l 976 346 b 632 61 926 158 808 61 b 269 525 399 61 269 228 b 628 1011 269 828 403 1011 b 957 750 792 1011 917 911 l 1008 750 l 996 1069 l 957 1069 z "},"G":{"ha":1208,"x_min":0,"x_max":0,"o":"m 594 -14 b 844 47 693 -14 781 11 b 1057 115 950 107 986 115 l 1057 271 b 1171 394 1057 367 1081 394 l 1171 447 l 776 447 l 776 394 b 915 257 875 394 915 365 b 632 61 915 154 811 61 b 269 525 399 61 269 228 b 628 1011 269 828 403 1011 b 925 750 778 1011 925 931 l 992 750 l 1010 1069 l 961 1069 l 932 983 b 615 1083 818 1054 726 1083 b 83 517 300 1083 83 853 b 594 -14 83 193 281 -14 z "},"D":{"ha":1228,"x_min":0,"x_max":0,"o":"m 596 0 b 1146 517 919 0 1146 213 b 568 1069 1146 836 903 1069 l 81 1069 l 81 1017 b 219 858 200 1011 219 988 l 219 211 b 53 53 219 79 194 57 l 53 0 z m 565 1001 b 965 514 813 1001 965 821 b 572 68 965 222 824 68 b 365 226 432 68 365 119 l 365 978 b 389 1001 365 992 374 1001 z "},"B":{"ha":1065,"x_min":0,"x_max":0,"o":"m 553 0 b 840 42 714 0 778 10 b 996 278 938 90 996 181 b 872 497 996 364 953 440 b 651 564 815 536 765 551 l 651 569 b 892 815 817 619 892 694 b 496 1069 892 975 744 1069 l 81 1069 l 81 1017 b 219 858 200 1011 219 988 l 219 211 b 53 53 219 81 196 57 l 53 0 z m 557 60 b 365 218 421 60 365 106 l 365 528 l 428 528 b 679 494 578 528 621 522 b 808 275 765 453 808 379 b 557 60 808 131 725 60 z m 365 597 l 365 981 b 389 1004 365 994 374 1004 l 496 1004 b 717 799 647 1004 717 944 b 635 631 717 715 693 667 b 443 597 589 603 558 597 z "},"V":{"ha":1089,"x_min":0,"x_max":0,"o":"m 342 838 b 308 957 317 901 308 931 b 435 1015 308 996 332 1015 l 435 1069 l -18 1069 l -18 1015 b 165 851 79 1010 118 964 l 524 -14 l 572 -14 l 949 904 b 1100 1017 981 982 1015 1007 l 1100 1069 l 763 1069 l 763 1017 b 871 949 844 1017 871 999 b 833 815 871 918 861 883 l 589 213 z "},"N":{"ha":1253,"x_min":0,"x_max":0,"o":"m 1047 -14 l 1047 817 b 1200 1017 1047 989 1069 1013 l 1200 1069 l 826 1069 l 826 1017 b 964 807 944 1013 964 990 l 964 260 l 958 260 l 351 1069 l 76 1069 l 76 1017 b 215 817 196 1011 215 974 l 215 253 b 63 53 215 81 193 57 l 63 0 l 436 0 l 436 53 b 299 263 318 57 299 79 l 299 856 l 304 856 l 964 -14 z "},"P":{"ha":954,"x_min":0,"x_max":0,"o":"m 914 801 b 513 1069 914 969 767 1069 l 76 1069 l 76 1017 b 215 858 196 1011 215 988 l 215 211 b 63 53 215 81 193 57 l 63 0 l 553 0 l 553 53 b 361 218 385 53 361 81 l 361 486 l 486 486 b 914 801 796 486 914 607 z m 361 981 b 385 1004 361 994 369 1004 l 513 1004 b 733 785 664 1004 733 940 b 460 556 733 622 643 556 l 361 556 z "},"R":{"ha":1094,"x_min":0,"x_max":0,"o":"m 914 801 b 513 1069 914 969 767 1069 l 76 1069 l 76 1017 b 215 858 196 1011 215 988 l 215 211 b 63 53 215 81 193 57 l 63 0 l 553 0 l 553 53 b 361 218 385 53 361 81 l 361 507 b 524 436 447 507 475 500 l 864 0 l 1132 0 l 1132 53 b 942 149 1050 65 992 88 l 635 518 b 914 801 829 551 914 654 z m 361 981 b 385 1004 361 994 369 1004 l 513 1004 b 733 794 664 1004 733 943 b 460 576 733 640 643 576 l 361 576 z "},"S":{"ha":896,"x_min":0,"x_max":0,"o":"m 101 15 l 133 15 l 172 83 b 443 -14 258 14 338 -14 b 821 301 667 -14 821 115 b 468 647 821 447 743 524 b 256 858 310 718 256 771 b 440 1013 256 951 328 1013 b 689 788 558 1013 644 939 l 740 788 l 725 1064 l 693 1064 l 657 1001 b 436 1083 585 1058 517 1083 b 125 789 254 1083 125 961 b 426 468 125 646 196 569 b 669 238 614 386 669 332 b 447 57 669 128 583 57 b 132 326 281 57 158 158 l 81 326 z "},"T":{"ha":1115,"x_min":0,"x_max":0,"o":"m 1078 1069 l 29 1069 l 29 804 l 81 804 b 339 1010 86 1001 194 1010 b 475 967 457 1010 475 999 l 475 224 b 294 53 475 104 451 58 l 294 0 l 819 0 l 819 53 b 640 224 663 58 640 104 l 640 967 b 797 1010 640 999 660 1010 b 1035 804 958 1010 1022 965 l 1092 804 z "},"U":{"ha":1196,"x_min":0,"x_max":0,"o":"m 1003 711 b 1038 979 1003 864 1010 940 b 1156 1017 1060 1011 1097 1017 l 1156 1069 l 753 1069 l 753 1017 b 874 989 810 1017 849 1013 b 919 711 910 954 919 876 l 919 376 b 642 72 919 178 826 72 b 361 368 435 72 361 179 l 361 746 b 392 983 361 882 367 950 b 514 1017 414 1013 451 1017 l 514 1069 l 40 1069 l 40 1017 b 161 986 103 1017 139 1010 b 194 746 193 951 194 883 l 194 379 b 603 -14 194 88 329 -14 b 1003 431 893 -14 1003 138 z "},"W":{"ha":1633,"x_min":0,"x_max":0,"o":"m 972 833 b 943 960 954 894 943 932 b 1069 1015 943 1001 963 1015 l 1069 1069 l 644 1069 l 644 1015 b 782 879 697 1015 732 986 b 714 694 767 829 739 767 l 543 214 l 332 857 b 310 954 318 899 310 931 b 438 1015 310 1001 343 1015 l 438 1069 l -15 1069 l -15 1015 b 196 783 97 1015 131 963 l 485 -14 l 533 -14 l 829 776 l 1096 -14 l 1144 -14 l 1493 904 b 1644 1017 1522 983 1560 1017 l 1644 1069 l 1307 1069 l 1307 1017 b 1411 954 1383 1017 1411 1001 b 1375 813 1411 922 1401 885 l 1158 210 z "},"X":{"ha":1136,"x_min":0,"x_max":0,"o":"m 646 585 l 867 869 b 1083 1017 968 1000 993 1017 l 1083 1069 l 701 1069 l 701 1017 b 806 956 779 1017 806 1001 b 736 818 806 918 788 883 l 600 646 l 449 871 b 410 963 422 910 410 939 b 500 1017 410 1000 439 1017 l 500 1069 l 39 1069 l 39 1017 b 219 925 118 1017 174 989 l 501 540 l 229 193 b 3 53 143 85 92 53 l 3 0 l 389 0 l 389 53 b 276 89 303 53 276 61 b 428 325 276 124 313 179 l 547 475 l 706 239 b 776 97 768 144 776 124 b 668 53 776 69 750 53 l 668 0 l 1142 0 l 1142 53 b 965 151 1072 53 1013 88 z "},"Y":{"ha":1018,"x_min":0,"x_max":0,"o":"m 436 422 l 436 253 b 283 53 436 83 415 53 l 283 0 l 733 0 l 733 53 b 582 263 600 53 582 82 l 582 428 l 796 789 b 1024 1017 910 981 946 1017 l 1024 1069 l 706 1069 l 706 1017 b 796 969 772 1017 796 1004 b 714 782 796 935 772 881 l 557 518 l 551 518 l 336 886 b 304 969 314 924 304 951 b 431 1017 304 1004 339 1017 l 431 1069 l -7 1069 l -7 1017 b 158 897 69 1017 101 993 z "},"Z":{"ha":1069,"x_min":0,"x_max":0,"o":"m 1003 326 l 943 326 b 679 64 910 110 869 64 l 249 64 l 972 1064 l 972 1069 l 126 1069 l 106 814 l 157 814 b 372 1011 182 958 242 1011 l 753 1011 l 22 6 l 22 0 l 986 0 z "},"˙":{"ha":228,"x_min":0,"x_max":0,"o":"m 28 1032 b 114 946 28 983 65 946 b 200 1032 163 946 200 983 b 114 1118 200 1081 163 1118 b 28 1032 65 1118 28 1081 z "},"¨":{"ha":449,"x_min":0,"x_max":0,"o":"m 28 985 b 108 904 28 939 63 904 b 189 985 154 904 189 939 b 108 1065 189 1031 154 1065 b 28 985 63 1065 28 1031 z m 260 985 b 340 904 260 939 294 904 b 421 985 386 904 421 939 b 340 1065 421 1031 386 1065 b 260 985 294 1065 260 1031 z "},"ȷ":{"ha":422,"x_min":0,"x_max":0,"o":"m 296 750 l 24 697 l 24 649 b 150 593 115 649 142 636 b 160 389 157 568 160 496 l 160 -94 b 40 -301 160 -249 129 -301 b -47 -232 -6 -301 -21 -287 b -119 -167 -75 -176 -86 -167 b -190 -232 -164 -167 -190 -190 b 11 -361 -190 -308 -107 -361 b 296 -3 194 -361 296 -233 z "},"ṅ":{"ha":957,"x_min":0,"x_max":0,"o":"m 300 404 b 325 553 300 492 306 515 b 521 675 364 628 439 675 b 679 392 636 675 679 601 l 679 208 b 564 47 679 71 668 53 l 564 0 l 924 0 l 924 47 b 811 218 822 54 811 68 l 811 450 b 768 672 811 568 800 629 b 571 750 731 719 656 750 b 293 613 461 750 363 699 l 288 613 l 271 750 l 49 697 l 49 653 b 160 594 129 653 149 644 b 168 393 165 571 168 501 l 168 208 b 51 47 168 69 154 54 l 51 0 l 415 0 l 415 47 b 300 218 308 54 300 68 z m 404 1032 b 490 946 404 983 442 946 b 576 1032 539 946 576 983 b 490 1118 576 1081 539 1118 b 404 1032 442 1118 404 1081 z "},"ċ":{"ha":744,"x_min":0,"x_max":0,"o":"m 661 156 b 447 58 592 88 524 58 b 226 383 304 58 226 172 b 426 685 226 581 296 685 b 546 626 481 685 510 669 b 631 569 581 579 597 569 b 699 628 672 569 699 592 b 454 750 699 700 597 750 b 68 363 224 750 68 599 b 403 -14 68 138 206 -14 b 703 115 525 -14 636 35 z m 353 1032 b 439 946 353 983 390 946 b 525 1032 488 946 525 983 b 439 1118 525 1081 488 1118 b 353 1032 390 1118 353 1081 z "},"ė":{"ha":796,"x_min":0,"x_max":0,"o":"m 682 168 b 471 58 613 92 547 58 b 225 378 322 58 225 185 b 231 440 225 403 226 425 l 688 440 b 731 468 725 440 731 443 b 449 750 731 649 626 750 b 68 360 225 750 68 588 b 432 -14 68 138 215 -14 b 725 129 550 -14 644 32 z m 240 504 b 426 683 264 622 328 683 b 579 543 519 683 579 628 b 496 504 579 510 571 504 z m 349 1032 b 435 946 349 983 386 946 b 521 1032 483 946 521 983 b 435 1118 521 1081 483 1118 b 349 1032 386 1118 349 1081 z "},"ż":{"ha":774,"x_min":0,"x_max":0,"o":"m 715 215 l 669 215 b 399 64 636 88 589 64 l 236 64 l 710 731 l 710 736 l 113 736 l 90 544 l 135 544 b 351 678 154 658 193 678 l 506 678 l 25 6 l 25 0 l 692 0 z m 313 1032 b 399 946 313 983 350 946 b 485 1032 447 946 485 983 b 399 1118 485 1081 447 1118 b 313 1032 350 1118 313 1081 z "},"ä":{"ha":769,"x_min":0,"x_max":0,"o":"m 485 301 b 311 71 485 175 407 71 b 200 175 244 71 200 114 b 485 411 200 257 272 331 z m 285 383 b 60 151 117 311 60 240 b 247 -12 60 53 132 -12 b 489 135 350 -12 440 44 l 496 135 b 617 -14 496 40 536 -14 b 771 61 682 -14 749 18 l 751 94 b 683 64 735 67 708 64 b 621 222 642 64 621 115 l 621 533 b 365 750 621 692 551 750 b 93 610 192 750 93 699 b 163 540 93 565 118 540 b 235 607 199 540 214 554 b 340 697 258 679 276 697 b 485 528 439 697 485 643 l 485 471 z m 172 985 b 253 904 172 939 207 904 b 333 985 299 904 333 939 b 253 1065 333 1031 299 1065 b 172 985 207 1065 172 1031 z m 404 985 b 485 904 404 939 439 904 b 565 985 531 904 565 939 b 485 1065 565 1031 531 1065 b 404 985 439 1065 404 1031 z "},"ü":{"ha":931,"x_min":0,"x_max":0,"o":"m 643 378 b 619 229 643 299 638 272 b 429 69 574 122 508 69 b 281 357 326 69 281 157 l 281 736 l 29 736 l 29 688 b 144 514 136 678 144 665 l 144 293 b 189 68 144 179 158 108 b 385 -14 226 18 307 -14 b 650 151 485 -14 579 38 l 656 151 l 671 -15 l 900 1 l 900 50 b 788 106 815 50 796 58 b 779 310 782 139 779 204 l 779 736 l 528 736 l 528 688 b 643 514 635 676 643 665 z m 239 985 b 319 904 239 939 274 904 b 400 985 365 904 400 939 b 319 1065 400 1031 365 1065 b 239 985 274 1065 239 1031 z m 471 985 b 551 904 471 939 506 904 b 632 985 597 904 632 939 b 551 1065 632 1031 597 1065 b 471 985 506 1065 471 1031 z "},"ö":{"ha":908,"x_min":0,"x_max":0,"o":"m 451 750 b 67 374 243 750 67 593 b 451 -14 67 147 243 -14 b 842 374 663 -14 842 149 b 451 750 842 592 663 750 z m 451 683 b 685 372 592 683 685 557 b 451 57 685 182 593 57 b 224 372 313 57 224 181 b 451 683 224 558 314 683 z m 256 985 b 336 904 256 939 290 904 b 417 985 382 904 417 939 b 336 1065 417 1031 382 1065 b 256 985 290 1065 256 1031 z m 488 985 b 568 904 488 939 522 904 b 649 985 614 904 649 939 b 568 1065 649 1031 614 1065 b 488 985 522 1065 488 1031 z "},"ë":{"ha":796,"x_min":0,"x_max":0,"o":"m 682 168 b 471 58 613 92 547 58 b 225 378 322 58 225 185 b 231 440 225 403 226 425 l 688 440 b 731 468 725 440 731 443 b 449 750 731 649 626 750 b 68 360 225 750 68 588 b 432 -14 68 138 215 -14 b 725 129 550 -14 644 32 z m 240 504 b 426 683 264 622 328 683 b 579 543 519 683 579 628 b 496 504 579 510 571 504 z m 239 985 b 319 904 239 939 274 904 b 400 985 365 904 400 939 b 319 1065 400 1031 365 1065 b 239 985 274 1065 239 1031 z m 471 985 b 551 904 471 939 506 904 b 632 985 597 904 632 939 b 551 1065 632 1031 597 1065 b 471 985 506 1065 471 1031 z "},"ẅ":{"ha":1183,"x_min":0,"x_max":0,"o":"m 590 499 l 596 499 l 765 -14 l 817 -14 l 1032 518 b 1164 688 1090 663 1110 688 l 1164 736 l 886 736 l 886 688 b 979 638 961 688 979 678 b 922 446 979 606 968 569 l 839 221 l 833 221 l 649 736 l 606 736 l 401 221 l 396 221 l 301 553 b 286 632 292 589 286 614 b 385 688 286 672 313 688 l 385 736 l 17 736 l 17 688 b 154 564 97 688 122 667 l 335 -14 l 386 -14 z m 431 985 b 511 904 431 939 465 904 b 592 985 557 904 592 939 b 511 1065 592 1031 557 1065 b 431 985 465 1065 431 1031 z m 663 985 b 743 904 663 939 697 904 b 824 985 789 904 824 939 b 743 1065 824 1031 789 1065 b 663 985 697 1065 663 1031 z "},"ÿ":{"ha":888,"x_min":0,"x_max":0,"o":"m 693 456 b 872 688 783 663 803 688 l 872 736 l 567 736 l 567 688 b 664 626 643 688 664 675 b 606 449 664 596 656 569 l 479 136 l 472 136 l 319 506 b 281 642 297 560 281 618 b 374 688 281 674 310 688 l 374 736 l 6 736 l 6 688 b 143 564 79 682 96 667 l 410 -15 l 361 -112 b 218 -218 326 -182 294 -206 b 104 -296 131 -232 104 -250 b 192 -361 104 -340 133 -361 b 390 -218 279 -361 349 -311 z m 289 985 b 369 904 289 939 324 904 b 450 985 415 904 450 939 b 369 1065 450 1031 415 1065 b 289 985 324 1065 289 1031 z m 521 985 b 601 904 521 939 556 904 b 682 985 647 904 682 939 b 601 1065 682 1031 647 1065 b 521 985 556 1065 521 1031 z "},"ï":{"ha":474,"x_min":0,"x_max":0,"o":"m 317 750 l 44 697 l 44 646 b 171 589 136 646 163 633 b 181 386 178 564 181 493 l 181 214 b 47 51 181 83 160 57 l 47 0 l 446 0 l 446 51 b 317 225 336 56 317 81 z m 54 985 b 135 904 54 939 89 904 b 215 985 181 904 215 939 b 135 1065 215 1031 181 1065 b 54 985 89 1065 54 1031 z m 286 985 b 367 904 286 939 321 904 b 447 985 413 904 447 939 b 367 1065 447 1031 413 1065 b 286 985 321 1065 286 1031 z "},"ị":{"ha":474,"x_min":0,"x_max":0,"o":"m 317 750 l 44 697 l 44 649 b 171 593 136 649 163 636 b 181 389 178 568 181 496 l 181 211 b 47 49 181 81 160 54 l 47 0 l 446 0 l 446 49 b 317 221 336 53 317 78 z m 157 1032 b 243 946 157 983 194 946 b 329 1032 292 946 329 983 b 243 1118 329 1081 292 1118 b 157 1032 194 1118 157 1081 z m 163 -233 b 249 -319 163 -282 200 -319 b 335 -233 297 -319 335 -282 b 249 -147 335 -185 297 -147 b 163 -233 200 -147 163 -185 z "},"ụ":{"ha":931,"x_min":0,"x_max":0,"o":"m 643 378 b 619 229 643 299 638 272 b 429 69 574 122 508 69 b 281 357 326 69 281 157 l 281 736 l 29 736 l 29 688 b 144 514 136 678 144 665 l 144 293 b 189 68 144 179 158 108 b 385 -14 226 18 307 -14 b 650 151 485 -14 579 38 l 656 151 l 671 -15 l 900 1 l 900 50 b 788 106 815 50 796 58 b 779 310 782 139 779 204 l 779 736 l 528 736 l 528 688 b 643 514 635 676 643 665 z m 318 -233 b 404 -319 318 -282 356 -319 b 490 -233 453 -319 490 -282 b 404 -147 490 -185 453 -147 b 318 -233 356 -147 318 -185 z "},"ḥ":{"ha":956,"x_min":0,"x_max":0,"o":"m 289 399 b 313 549 289 483 293 510 b 515 674 353 626 429 674 b 672 386 629 674 672 594 l 672 211 b 556 49 672 71 661 54 l 556 0 l 924 0 l 924 49 b 810 221 818 56 810 69 l 810 443 b 764 668 810 561 796 626 b 564 750 725 718 649 750 b 292 624 463 750 349 697 l 286 624 l 286 1153 l 31 1100 l 31 1053 b 143 997 114 1053 135 1042 b 153 793 150 964 153 901 l 153 211 b 33 49 153 71 140 56 l 33 0 l 403 0 l 403 49 b 289 221 297 56 289 68 z m 393 -233 b 479 -319 393 -282 431 -319 b 565 -233 528 -319 565 -282 b 479 -147 565 -185 528 -147 b 393 -233 431 -147 393 -185 z "},"ṛ":{"ha":663,"x_min":0,"x_max":0,"o":"m 308 268 b 332 465 308 342 317 413 b 465 635 360 563 415 635 b 575 600 499 635 517 600 b 656 671 626 600 656 626 b 560 750 656 719 619 750 b 318 563 465 750 368 674 l 313 563 l 293 735 l 50 682 l 50 633 b 172 374 169 633 172 626 l 172 211 b 53 49 172 71 160 54 l 53 0 l 422 0 l 422 49 b 308 221 317 56 308 68 z m 157 -233 b 243 -319 157 -282 194 -319 b 329 -233 292 -319 329 -282 b 243 -147 329 -185 292 -147 b 157 -233 194 -147 157 -185 z "},"ọ":{"ha":908,"x_min":0,"x_max":0,"o":"m 451 750 b 67 374 243 750 67 593 b 451 -14 67 147 243 -14 b 842 374 663 -14 842 149 b 451 750 842 592 663 750 z m 451 683 b 685 372 592 683 685 557 b 451 57 685 182 593 57 b 224 372 313 57 224 181 b 451 683 224 558 314 683 z m 365 -233 b 451 -319 365 -282 403 -319 b 538 -233 500 -319 538 -282 b 451 -147 538 -185 500 -147 b 365 -233 403 -147 365 -185 z "},"ḍ":{"ha":938,"x_min":0,"x_max":0,"o":"m 672 -14 l 903 1 l 903 49 b 790 106 817 49 801 61 b 781 351 782 140 781 224 l 781 1153 l 496 1100 l 496 1058 b 639 1003 592 1058 629 1043 b 647 799 644 978 647 903 l 647 657 b 428 750 583 721 515 750 b 67 369 219 750 67 589 b 428 -14 67 146 218 -14 b 667 117 529 -14 600 24 l 672 117 z m 644 332 b 608 140 644 232 635 181 b 428 53 572 85 493 53 b 224 376 294 53 224 181 b 428 683 224 564 296 683 b 607 599 492 683 565 654 b 644 424 636 561 644 521 z m 342 -233 b 428 -319 342 -282 379 -319 b 514 -233 476 -319 514 -282 b 428 -147 514 -185 476 -147 b 342 -233 379 -147 342 -185 z "},"ẹ":{"ha":796,"x_min":0,"x_max":0,"o":"m 682 168 b 471 58 613 92 547 58 b 225 378 322 58 225 185 b 231 440 225 403 226 425 l 688 440 b 731 468 725 440 731 443 b 449 750 731 649 626 750 b 68 360 225 750 68 588 b 432 -14 68 138 215 -14 b 725 129 550 -14 644 32 z m 240 504 b 426 683 264 622 328 683 b 579 543 519 683 579 628 b 496 504 579 510 571 504 z m 347 -233 b 433 -319 347 -282 385 -319 b 519 -233 482 -319 519 -282 b 433 -147 519 -185 482 -147 b 347 -233 385 -147 347 -185 z "},"ṣ":{"ha":631,"x_min":0,"x_max":0,"o":"m 147 49 b 333 -14 197 8 261 -14 b 565 197 471 -14 565 67 b 343 450 565 303 503 350 b 207 599 249 508 207 538 b 311 693 207 658 249 693 b 467 536 382 693 426 649 l 503 536 l 503 736 l 476 736 l 449 707 b 300 750 408 733 350 750 b 93 536 183 750 93 663 b 281 308 93 432 156 388 b 442 153 417 224 442 207 b 321 43 442 79 394 43 b 124 239 224 43 160 107 l 89 239 l 89 0 l 119 0 z m 247 -232 b 333 -318 247 -281 285 -318 b 419 -232 382 -318 419 -281 b 333 -146 419 -183 382 -146 b 247 -232 285 -146 247 -183 z "},"ṭ":{"ha":525,"x_min":0,"x_max":0,"o":"m 139 649 l 139 156 b 326 -14 139 47 204 -14 b 513 92 421 -14 486 24 l 478 118 b 371 54 447 72 417 54 b 275 226 297 54 275 96 l 275 649 l 461 649 l 461 714 l 275 714 l 275 889 l 235 889 b 56 700 206 810 154 758 l 56 649 z m 240 -233 b 326 -319 240 -282 278 -319 b 413 -233 375 -319 413 -282 b 326 -147 413 -185 375 -147 b 240 -233 278 -147 240 -185 z "},"ẓ":{"ha":774,"x_min":0,"x_max":0,"o":"m 715 215 l 669 215 b 399 64 636 88 589 64 l 236 64 l 710 731 l 710 736 l 113 736 l 90 544 l 135 544 b 351 678 154 658 193 678 l 506 678 l 25 6 l 25 0 l 692 0 z m 296 -233 b 382 -319 296 -282 333 -319 b 468 -233 431 -319 468 -282 b 382 -147 468 -185 431 -147 b 296 -233 333 -147 296 -185 z "},"Ị":{"ha":576,"x_min":0,"x_max":0,"o":"m 361 807 b 499 1017 361 975 379 1013 l 499 1069 l 76 1069 l 76 1017 b 215 817 196 1011 215 974 l 215 253 b 63 53 215 81 193 57 l 63 0 l 513 0 l 513 53 b 361 263 382 57 361 79 z m 200 -233 b 286 -319 200 -282 238 -319 b 372 -233 335 -319 372 -282 b 286 -147 372 -185 335 -147 b 200 -233 238 -147 200 -185 z "},"Ḥ":{"ha":1285,"x_min":0,"x_max":0,"o":"m 1069 849 b 1207 1017 1069 989 1088 1013 l 1207 1069 l 785 1069 l 785 1017 b 924 858 904 1011 924 988 l 924 582 l 361 582 l 361 849 b 499 1017 361 989 379 1013 l 499 1069 l 76 1069 l 76 1017 b 215 858 196 1011 215 988 l 215 211 b 63 53 215 81 193 57 l 63 0 l 513 0 l 513 53 b 361 221 382 57 361 79 l 361 513 l 924 513 l 924 211 b 771 53 924 81 901 57 l 771 0 l 1221 0 l 1221 53 b 1069 221 1090 57 1069 79 z m 558 -233 b 644 -319 558 -282 596 -319 b 731 -233 693 -319 731 -282 b 644 -147 731 -185 693 -147 b 558 -233 596 -147 558 -185 z "},"Ẹ":{"ha":1008,"x_min":0,"x_max":0,"o":"m 361 986 b 385 1010 361 1000 369 1010 l 561 1010 b 843 825 750 1010 821 972 l 892 825 l 879 1069 l 76 1069 l 76 1017 b 215 858 196 1011 215 988 l 215 211 b 63 53 215 81 193 57 l 63 0 l 925 0 l 946 274 l 893 274 b 592 60 857 110 788 60 b 361 218 417 60 361 97 l 361 532 b 624 368 569 531 624 479 l 672 368 l 672 747 l 624 747 b 361 588 624 635 561 588 z m 440 -233 b 526 -319 440 -282 478 -319 b 613 -233 575 -319 613 -282 b 526 -147 613 -185 575 -147 b 440 -233 478 -147 440 -185 z "},"Ọ":{"ha":1314,"x_min":0,"x_max":0,"o":"m 657 1083 b 79 526 332 1083 79 840 b 657 -14 79 225 335 -14 b 1235 526 979 -14 1235 225 b 657 1083 1235 840 982 1083 z m 657 63 b 260 522 413 63 260 240 b 657 1007 260 819 413 1007 b 1054 522 901 1007 1054 819 b 657 63 1054 240 900 63 z m 572 -233 b 658 -319 572 -282 610 -319 b 744 -233 707 -319 744 -282 b 658 -147 744 -185 707 -147 b 572 -233 610 -147 572 -185 z "},"Ḍ":{"ha":1228,"x_min":0,"x_max":0,"o":"m 596 0 b 1146 517 919 0 1146 213 b 568 1069 1146 836 903 1069 l 81 1069 l 81 1017 b 219 858 200 1011 219 988 l 219 211 b 53 53 219 79 194 57 l 53 0 z m 565 1001 b 965 514 813 1001 965 821 b 572 68 965 222 824 68 b 365 226 432 68 365 119 l 365 978 b 389 1001 365 992 374 1001 z m 526 -233 b 613 -319 526 -282 564 -319 b 699 -233 661 -319 699 -282 b 613 -147 699 -185 661 -147 b 526 -233 564 -147 526 -185 z "},"Ṛ":{"ha":1094,"x_min":0,"x_max":0,"o":"m 914 801 b 513 1069 914 969 767 1069 l 76 1069 l 76 1017 b 215 858 196 1011 215 988 l 215 211 b 63 53 215 81 193 57 l 63 0 l 553 0 l 553 53 b 361 218 385 53 361 81 l 361 507 b 524 436 447 507 475 500 l 864 0 l 1132 0 l 1132 53 b 942 149 1050 65 992 88 l 635 518 b 914 801 829 551 914 654 z m 361 981 b 385 1004 361 994 369 1004 l 513 1004 b 733 794 664 1004 733 943 b 460 576 733 640 643 576 l 361 576 z m 486 -233 b 572 -319 486 -282 524 -319 b 658 -233 621 -319 658 -282 b 572 -147 658 -185 621 -147 b 486 -233 524 -147 486 -185 z "},"Ṣ":{"ha":896,"x_min":0,"x_max":0,"o":"m 101 15 l 133 15 l 172 83 b 443 -14 258 14 338 -14 b 821 301 667 -14 821 115 b 468 647 821 447 743 524 b 256 858 310 718 256 771 b 440 1013 256 951 328 1013 b 689 788 558 1013 644 939 l 740 788 l 725 1064 l 693 1064 l 657 1001 b 436 1083 585 1058 517 1083 b 125 789 254 1083 125 961 b 426 468 125 646 196 569 b 669 238 614 386 669 332 b 447 57 669 128 583 57 b 132 326 281 57 158 158 l 81 326 z m 356 -233 b 442 -319 356 -282 393 -319 b 528 -233 490 -319 528 -282 b 442 -147 528 -185 490 -147 b 356 -233 393 -147 356 -185 z "},"Ṭ":{"ha":1115,"x_min":0,"x_max":0,"o":"m 1078 1069 l 29 1069 l 29 804 l 81 804 b 339 1010 86 1001 194 1010 b 475 967 457 1010 475 999 l 475 224 b 294 53 475 104 451 58 l 294 0 l 819 0 l 819 53 b 640 224 663 58 640 104 l 640 967 b 797 1010 640 999 660 1010 b 1035 804 958 1010 1022 965 l 1092 804 z m 472 -233 b 558 -319 472 -282 510 -319 b 644 -233 607 -319 644 -282 b 558 -147 644 -185 607 -147 b 472 -233 510 -147 472 -185 z "},"Ụ":{"ha":1196,"x_min":0,"x_max":0,"o":"m 1003 711 b 1038 979 1003 864 1010 940 b 1156 1017 1060 1011 1097 1017 l 1156 1069 l 753 1069 l 753 1017 b 874 989 810 1017 849 1013 b 919 711 910 954 919 876 l 919 376 b 642 72 919 178 826 72 b 361 368 435 72 361 179 l 361 746 b 392 983 361 882 367 950 b 514 1017 414 1013 451 1017 l 514 1069 l 40 1069 l 40 1017 b 161 986 103 1017 139 1010 b 194 746 193 951 194 883 l 194 379 b 603 -14 194 88 329 -14 b 1003 431 893 -14 1003 138 z m 542 -233 b 628 -319 542 -282 579 -319 b 714 -233 676 -319 714 -282 b 628 -147 714 -185 676 -147 b 542 -233 579 -147 542 -185 z "},"Ẓ":{"ha":1069,"x_min":0,"x_max":0,"o":"m 1003 326 l 943 326 b 679 64 910 110 869 64 l 249 64 l 972 1064 l 972 1069 l 126 1069 l 106 814 l 157 814 b 372 1011 182 958 242 1011 l 753 1011 l 22 6 l 22 0 l 986 0 z m 451 -233 b 538 -319 451 -282 489 -319 b 624 -233 586 -319 624 -282 b 538 -147 624 -185 586 -147 b 451 -233 489 -147 451 -185 z "},".":{"ha":368,"x_min":0,"x_max":0,"o":"m 93 76 b 183 -14 93 26 133 -14 b 275 76 235 -14 275 26 b 183 168 275 128 235 168 b 93 76 133 168 93 128 z "},":":{"ha":396,"x_min":0,"x_max":0,"o":"m 107 76 b 197 -14 107 26 147 -14 b 289 76 249 -14 289 26 b 197 168 289 128 249 168 b 107 76 147 168 107 128 z m 107 529 b 197 439 107 479 147 439 b 289 529 249 439 289 479 b 197 621 289 581 249 621 b 107 529 147 621 107 581 z "},";":{"ha":432,"x_min":0,"x_max":0,"o":"m 124 529 b 214 439 124 479 164 439 b 306 529 265 439 306 479 b 214 621 306 581 265 621 b 124 529 164 621 124 581 z m 131 -243 b 317 29 269 -143 317 -74 b 217 168 317 119 282 168 b 124 82 161 168 124 133 b 196 0 124 33 154 0 b 238 11 211 0 226 4 b 99 -199 238 -68 197 -129 z "},"´":{"ha":382,"x_min":0,"x_max":0,"o":"m 93 904 l 283 994 b 354 1067 328 1015 354 1038 b 301 1115 354 1097 333 1115 b 208 1069 272 1115 243 1101 l 28 904 z "},"á":{"ha":769,"x_min":0,"x_max":0,"o":"m 485 301 b 311 71 485 175 407 71 b 200 175 244 71 200 114 b 485 411 200 257 272 331 z m 285 383 b 60 151 117 311 60 240 b 247 -12 60 53 132 -12 b 489 135 350 -12 440 44 l 496 135 b 617 -14 496 40 536 -14 b 771 61 682 -14 749 18 l 751 94 b 683 64 735 67 708 64 b 621 222 642 64 621 115 l 621 533 b 365 750 621 692 551 750 b 93 610 192 750 93 699 b 163 540 93 565 118 540 b 235 607 199 540 214 554 b 340 697 258 679 276 697 b 485 528 439 697 485 643 l 485 471 z m 308 904 l 499 994 b 569 1067 543 1015 569 1038 b 517 1115 569 1097 549 1115 b 424 1069 488 1115 458 1101 l 243 904 z "},"ń":{"ha":957,"x_min":0,"x_max":0,"o":"m 300 404 b 325 553 300 492 306 515 b 521 675 364 628 439 675 b 679 392 636 675 679 601 l 679 208 b 564 47 679 71 668 53 l 564 0 l 924 0 l 924 47 b 811 218 822 54 811 68 l 811 450 b 768 672 811 568 800 629 b 571 750 731 719 656 750 b 293 613 461 750 363 699 l 288 613 l 271 750 l 49 697 l 49 653 b 160 594 129 653 149 644 b 168 393 165 571 168 501 l 168 208 b 51 47 168 69 154 54 l 51 0 l 415 0 l 415 47 b 300 218 308 54 300 68 z m 431 904 l 621 994 b 692 1067 665 1015 692 1038 b 639 1115 692 1097 671 1115 b 546 1069 610 1115 581 1101 l 365 904 z "},"ú":{"ha":931,"x_min":0,"x_max":0,"o":"m 643 378 b 619 229 643 299 638 272 b 429 69 574 122 508 69 b 281 357 326 69 281 157 l 281 736 l 29 736 l 29 688 b 144 514 136 678 144 665 l 144 293 b 189 68 144 179 158 108 b 385 -14 226 18 307 -14 b 650 151 485 -14 579 38 l 656 151 l 671 -15 l 900 1 l 900 50 b 788 106 815 50 796 58 b 779 310 782 139 779 204 l 779 736 l 528 736 l 528 688 b 643 514 635 676 643 665 z m 375 904 l 565 994 b 636 1067 610 1015 636 1038 b 583 1115 636 1097 615 1115 b 490 1069 554 1115 525 1101 l 310 904 z "},"ŕ":{"ha":663,"x_min":0,"x_max":0,"o":"m 308 268 b 332 465 308 342 317 413 b 465 635 360 563 415 635 b 575 600 499 635 517 600 b 656 671 626 600 656 626 b 560 750 656 719 619 750 b 318 563 465 750 368 674 l 313 563 l 293 735 l 50 682 l 50 633 b 172 374 169 633 172 626 l 172 211 b 53 49 172 71 160 54 l 53 0 l 422 0 l 422 49 b 308 221 317 56 308 68 z m 315 904 l 506 994 b 576 1067 550 1015 576 1038 b 524 1115 576 1097 556 1115 b 431 1069 494 1115 465 1101 l 250 904 z "},"ó":{"ha":908,"x_min":0,"x_max":0,"o":"m 451 750 b 67 374 243 750 67 593 b 451 -14 67 147 243 -14 b 842 374 663 -14 842 149 b 451 750 842 592 663 750 z m 451 683 b 685 372 592 683 685 557 b 451 57 685 182 593 57 b 224 372 313 57 224 181 b 451 683 224 558 314 683 z m 392 904 l 582 994 b 653 1067 626 1015 653 1038 b 600 1115 653 1097 632 1115 b 507 1069 571 1115 542 1101 l 326 904 z "},"ć":{"ha":744,"x_min":0,"x_max":0,"o":"m 661 156 b 447 58 592 88 524 58 b 226 383 304 58 226 172 b 426 685 226 581 296 685 b 546 626 481 685 510 669 b 631 569 581 579 597 569 b 699 628 672 569 699 592 b 454 750 699 700 597 750 b 68 363 224 750 68 599 b 403 -14 68 138 206 -14 b 703 115 525 -14 636 35 z m 415 904 l 606 994 b 676 1067 650 1015 676 1038 b 624 1115 676 1097 656 1115 b 531 1069 594 1115 565 1101 l 350 904 z "},"é":{"ha":796,"x_min":0,"x_max":0,"o":"m 682 168 b 471 58 613 92 547 58 b 225 378 322 58 225 185 b 231 440 225 403 226 425 l 688 440 b 731 468 725 440 731 443 b 449 750 731 649 626 750 b 68 360 225 750 68 588 b 432 -14 68 138 215 -14 b 725 129 550 -14 644 32 z m 240 504 b 426 683 264 622 328 683 b 579 543 519 683 579 628 b 496 504 579 510 571 504 z m 399 904 l 589 994 b 660 1067 633 1015 660 1038 b 607 1115 660 1097 639 1115 b 514 1069 578 1115 549 1101 l 333 904 z "},"ś":{"ha":631,"x_min":0,"x_max":0,"o":"m 147 49 b 333 -14 197 8 261 -14 b 565 197 471 -14 565 67 b 343 450 565 303 503 350 b 207 599 249 508 207 538 b 311 693 207 658 249 693 b 467 536 382 693 426 649 l 503 536 l 503 736 l 476 736 l 449 707 b 300 750 408 733 350 750 b 93 536 183 750 93 663 b 281 308 93 432 156 388 b 442 153 417 224 442 207 b 321 43 442 79 394 43 b 124 239 224 43 160 107 l 89 239 l 89 0 l 119 0 z m 271 904 l 461 994 b 532 1067 506 1015 532 1038 b 479 1115 532 1097 511 1115 b 386 1069 450 1115 421 1101 l 206 904 z "},"ẃ":{"ha":1183,"x_min":0,"x_max":0,"o":"m 590 499 l 596 499 l 765 -14 l 817 -14 l 1032 518 b 1164 688 1090 663 1110 688 l 1164 736 l 886 736 l 886 688 b 979 638 961 688 979 678 b 922 446 979 606 968 569 l 839 221 l 833 221 l 649 736 l 606 736 l 401 221 l 396 221 l 301 553 b 286 632 292 589 286 614 b 385 688 286 672 313 688 l 385 736 l 17 736 l 17 688 b 154 564 97 688 122 667 l 335 -14 l 386 -14 z m 567 904 l 757 994 b 828 1067 801 1015 828 1038 b 775 1115 828 1097 807 1115 b 682 1069 746 1115 717 1101 l 501 904 z "},"ý":{"ha":888,"x_min":0,"x_max":0,"o":"m 693 456 b 872 688 783 663 803 688 l 872 736 l 567 736 l 567 688 b 664 626 643 688 664 675 b 606 449 664 596 656 569 l 479 136 l 472 136 l 319 506 b 281 642 297 560 281 618 b 374 688 281 674 310 688 l 374 736 l 6 736 l 6 688 b 143 564 79 682 96 667 l 410 -15 l 361 -112 b 218 -218 326 -182 294 -206 b 104 -296 131 -232 104 -250 b 192 -361 104 -340 133 -361 b 390 -218 279 -361 349 -311 z m 425 904 l 615 994 b 686 1067 660 1015 686 1038 b 633 1115 686 1097 665 1115 b 540 1069 604 1115 575 1101 l 360 904 z "},"ź":{"ha":774,"x_min":0,"x_max":0,"o":"m 715 215 l 669 215 b 399 64 636 88 589 64 l 236 64 l 710 731 l 710 736 l 113 736 l 90 544 l 135 544 b 351 678 154 658 193 678 l 506 678 l 25 6 l 25 0 l 692 0 z m 339 904 l 529 994 b 600 1067 574 1015 600 1038 b 547 1115 600 1097 579 1115 b 454 1069 518 1115 489 1101 l 274 904 z "},"í":{"ha":474,"x_min":0,"x_max":0,"o":"m 317 750 l 44 697 l 44 646 b 171 589 136 646 163 633 b 181 386 178 564 181 493 l 181 214 b 47 51 181 83 160 57 l 47 0 l 446 0 l 446 51 b 317 225 336 56 317 81 z m 190 904 l 381 994 b 451 1067 425 1015 451 1038 b 399 1115 451 1097 431 1115 b 306 1069 369 1115 340 1101 l 125 904 z "},"`":{"ha":382,"x_min":0,"x_max":0,"o":"m 354 904 l 174 1069 b 81 1115 139 1101 110 1115 b 28 1067 49 1115 28 1097 b 99 994 28 1038 54 1015 l 289 904 z "},"à":{"ha":769,"x_min":0,"x_max":0,"o":"m 485 301 b 311 71 485 175 407 71 b 200 175 244 71 200 114 b 485 411 200 257 272 331 z m 285 383 b 60 151 117 311 60 240 b 247 -12 60 53 132 -12 b 489 135 350 -12 440 44 l 496 135 b 617 -14 496 40 536 -14 b 771 61 682 -14 749 18 l 751 94 b 683 64 735 67 708 64 b 621 222 642 64 621 115 l 621 533 b 365 750 621 692 551 750 b 93 610 192 750 93 699 b 163 540 93 565 118 540 b 235 607 199 540 214 554 b 340 697 258 679 276 697 b 485 528 439 697 485 643 l 485 471 z m 507 904 l 326 1069 b 233 1115 292 1101 263 1115 b 181 1067 201 1115 181 1097 b 251 994 181 1038 207 1015 l 442 904 z "},"ù":{"ha":931,"x_min":0,"x_max":0,"o":"m 643 378 b 619 229 643 299 638 272 b 429 69 574 122 508 69 b 281 357 326 69 281 157 l 281 736 l 29 736 l 29 688 b 144 514 136 678 144 665 l 144 293 b 189 68 144 179 158 108 b 385 -14 226 18 307 -14 b 650 151 485 -14 579 38 l 656 151 l 671 -15 l 900 1 l 900 50 b 788 106 815 50 796 58 b 779 310 782 139 779 204 l 779 736 l 528 736 l 528 688 b 643 514 635 676 643 665 z m 574 904 l 393 1069 b 300 1115 358 1101 329 1115 b 247 1067 268 1115 247 1097 b 318 994 247 1038 274 1015 l 508 904 z "},"ò":{"ha":908,"x_min":0,"x_max":0,"o":"m 451 750 b 67 374 243 750 67 593 b 451 -14 67 147 243 -14 b 842 374 663 -14 842 149 b 451 750 842 592 663 750 z m 451 683 b 685 372 592 683 685 557 b 451 57 685 182 593 57 b 224 372 313 57 224 181 b 451 683 224 558 314 683 z m 618 904 l 438 1069 b 344 1115 403 1101 374 1115 b 292 1067 313 1115 292 1097 b 363 994 292 1038 318 1015 l 553 904 z "},"è":{"ha":796,"x_min":0,"x_max":0,"o":"m 682 168 b 471 58 613 92 547 58 b 225 378 322 58 225 185 b 231 440 225 403 226 425 l 688 440 b 731 468 725 440 731 443 b 449 750 731 649 626 750 b 68 360 225 750 68 588 b 432 -14 68 138 215 -14 b 725 129 550 -14 644 32 z m 240 504 b 426 683 264 622 328 683 b 579 543 519 683 579 628 b 496 504 579 510 571 504 z m 619 904 l 439 1069 b 346 1115 404 1101 375 1115 b 293 1067 314 1115 293 1097 b 364 994 293 1038 319 1015 l 554 904 z "},"ẁ":{"ha":1183,"x_min":0,"x_max":0,"o":"m 590 499 l 596 499 l 765 -14 l 817 -14 l 1032 518 b 1164 688 1090 663 1110 688 l 1164 736 l 886 736 l 886 688 b 979 638 961 688 979 678 b 922 446 979 606 968 569 l 839 221 l 833 221 l 649 736 l 606 736 l 401 221 l 396 221 l 301 553 b 286 632 292 589 286 614 b 385 688 286 672 313 688 l 385 736 l 17 736 l 17 688 b 154 564 97 688 122 667 l 335 -14 l 386 -14 z m 765 904 l 585 1069 b 492 1115 550 1101 521 1115 b 439 1067 460 1115 439 1097 b 510 994 439 1038 465 1015 l 700 904 z "},"ỳ":{"ha":888,"x_min":0,"x_max":0,"o":"m 693 456 b 872 688 783 663 803 688 l 872 736 l 567 736 l 567 688 b 664 626 643 688 664 675 b 606 449 664 596 656 569 l 479 136 l 472 136 l 319 506 b 281 642 297 560 281 618 b 374 688 281 674 310 688 l 374 736 l 6 736 l 6 688 b 143 564 79 682 96 667 l 410 -15 l 361 -112 b 218 -218 326 -182 294 -206 b 104 -296 131 -232 104 -250 b 192 -361 104 -340 133 -361 b 390 -218 279 -361 349 -311 z m 624 904 l 443 1069 b 350 1115 408 1101 379 1115 b 297 1067 318 1115 297 1097 b 368 994 297 1038 324 1015 l 558 904 z "},"ì":{"ha":474,"x_min":0,"x_max":0,"o":"m 317 750 l 44 697 l 44 646 b 171 589 136 646 163 633 b 181 386 178 564 181 493 l 181 214 b 47 51 181 83 160 57 l 47 0 l 446 0 l 446 51 b 317 225 336 56 317 81 z m 353 904 l 172 1069 b 79 1115 138 1101 108 1115 b 26 1067 47 1115 26 1097 b 97 994 26 1038 53 1015 l 288 904 z "},"˝":{"ha":657,"x_min":0,"x_max":0,"o":"m 93 904 l 283 994 b 354 1067 328 1015 354 1038 b 301 1115 354 1097 333 1115 b 208 1069 272 1115 243 1101 l 28 904 z m 368 904 l 558 994 b 629 1067 603 1015 629 1038 b 576 1115 629 1097 608 1115 b 483 1069 547 1115 518 1101 l 303 904 z "},"ű":{"ha":931,"x_min":0,"x_max":0,"o":"m 643 378 b 619 229 643 299 638 272 b 429 69 574 122 508 69 b 281 357 326 69 281 157 l 281 736 l 29 736 l 29 688 b 144 514 136 678 144 665 l 144 293 b 189 68 144 179 158 108 b 385 -14 226 18 307 -14 b 650 151 485 -14 579 38 l 656 151 l 671 -15 l 900 1 l 900 50 b 788 106 815 50 796 58 b 779 310 782 139 779 204 l 779 736 l 528 736 l 528 688 b 643 514 635 676 643 665 z m 260 904 l 450 994 b 521 1067 494 1015 521 1038 b 468 1115 521 1097 500 1115 b 375 1069 439 1115 410 1101 l 194 904 z m 535 904 l 725 994 b 796 1067 769 1015 796 1038 b 743 1115 796 1097 775 1115 b 650 1069 714 1115 685 1101 l 469 904 z "},"ő":{"ha":908,"x_min":0,"x_max":0,"o":"m 451 750 b 67 374 243 750 67 593 b 451 -14 67 147 243 -14 b 842 374 663 -14 842 149 b 451 750 842 592 663 750 z m 451 683 b 685 372 592 683 685 557 b 451 57 685 182 593 57 b 224 372 313 57 224 181 b 451 683 224 558 314 683 z m 296 904 l 486 994 b 557 1067 531 1015 557 1038 b 504 1115 557 1097 536 1115 b 411 1069 475 1115 446 1101 l 231 904 z m 571 904 l 761 994 b 832 1067 806 1015 832 1038 b 779 1115 832 1097 811 1115 b 686 1069 750 1115 721 1101 l 506 904 z "},"ˆ":{"ha":511,"x_min":0,"x_max":0,"o":"m 193 1083 l 28 904 l 90 904 l 256 999 l 421 904 l 483 904 l 318 1083 z "},"ˇ":{"ha":511,"x_min":0,"x_max":0,"o":"m 318 904 l 483 1083 l 421 1083 l 256 989 l 90 1083 l 28 1083 l 193 904 z "},"â":{"ha":769,"x_min":0,"x_max":0,"o":"m 485 301 b 311 71 485 175 407 71 b 200 175 244 71 200 114 b 485 411 200 257 272 331 z m 285 383 b 60 151 117 311 60 240 b 247 -12 60 53 132 -12 b 489 135 350 -12 440 44 l 496 135 b 617 -14 496 40 536 -14 b 771 61 682 -14 749 18 l 751 94 b 683 64 735 67 708 64 b 621 222 642 64 621 115 l 621 533 b 365 750 621 692 551 750 b 93 610 192 750 93 699 b 163 540 93 565 118 540 b 235 607 199 540 214 554 b 340 697 258 679 276 697 b 485 528 439 697 485 643 l 485 471 z m 306 1083 l 140 904 l 203 904 l 368 999 l 533 904 l 596 904 l 431 1083 z "},"û":{"ha":931,"x_min":0,"x_max":0,"o":"m 643 378 b 619 229 643 299 638 272 b 429 69 574 122 508 69 b 281 357 326 69 281 157 l 281 736 l 29 736 l 29 688 b 144 514 136 678 144 665 l 144 293 b 189 68 144 179 158 108 b 385 -14 226 18 307 -14 b 650 151 485 -14 579 38 l 656 151 l 671 -15 l 900 1 l 900 50 b 788 106 815 50 796 58 b 779 310 782 139 779 204 l 779 736 l 528 736 l 528 688 b 643 514 635 676 643 665 z m 372 1083 l 207 904 l 269 904 l 435 999 l 600 904 l 663 904 l 497 1083 z "},"ĥ":{"ha":956,"x_min":0,"x_max":0,"o":"m 289 399 b 313 549 289 483 293 510 b 515 674 353 626 429 674 b 672 386 629 674 672 594 l 672 211 b 556 49 672 71 661 54 l 556 0 l 924 0 l 924 49 b 810 221 818 56 810 69 l 810 443 b 764 668 810 561 796 626 b 564 750 725 718 649 750 b 292 624 463 750 349 697 l 286 624 l 286 1153 l 31 1100 l 31 1053 b 143 997 114 1053 135 1042 b 153 793 150 964 153 901 l 153 211 b 33 49 153 71 140 56 l 33 0 l 403 0 l 403 49 b 289 221 297 56 289 68 z m 474 1083 l 308 904 l 371 904 l 536 999 l 701 904 l 764 904 l 599 1083 z "},"ô":{"ha":908,"x_min":0,"x_max":0,"o":"m 451 750 b 67 374 243 750 67 593 b 451 -14 67 147 243 -14 b 842 374 663 -14 842 149 b 451 750 842 592 663 750 z m 451 683 b 685 372 592 683 685 557 b 451 57 685 182 593 57 b 224 372 313 57 224 181 b 451 683 224 558 314 683 z m 389 1083 l 224 904 l 286 904 l 451 999 l 617 904 l 679 904 l 514 1083 z "},"ĉ":{"ha":744,"x_min":0,"x_max":0,"o":"m 661 156 b 447 58 592 88 524 58 b 226 383 304 58 226 172 b 426 685 226 581 296 685 b 546 626 481 685 510 669 b 631 569 581 579 597 569 b 699 628 672 569 699 592 b 454 750 699 700 597 750 b 68 363 224 750 68 599 b 403 -14 68 138 206 -14 b 703 115 525 -14 636 35 z m 376 1083 l 211 904 l 274 904 l 439 999 l 604 904 l 667 904 l 501 1083 z "},"ê":{"ha":796,"x_min":0,"x_max":0,"o":"m 682 168 b 471 58 613 92 547 58 b 225 378 322 58 225 185 b 231 440 225 403 226 425 l 688 440 b 731 468 725 440 731 443 b 449 750 731 649 626 750 b 68 360 225 750 68 588 b 432 -14 68 138 215 -14 b 725 129 550 -14 644 32 z m 240 504 b 426 683 264 622 328 683 b 579 543 519 683 579 628 b 496 504 579 510 571 504 z m 372 1083 l 207 904 l 269 904 l 435 999 l 600 904 l 663 904 l 497 1083 z "},"ŝ":{"ha":631,"x_min":0,"x_max":0,"o":"m 147 49 b 333 -14 197 8 261 -14 b 565 197 471 -14 565 67 b 343 450 565 303 503 350 b 207 599 249 508 207 538 b 311 693 207 658 249 693 b 467 536 382 693 426 649 l 503 536 l 503 736 l 476 736 l 449 707 b 300 750 408 733 350 750 b 93 536 183 750 93 663 b 281 308 93 432 156 388 b 442 153 417 224 442 207 b 321 43 442 79 394 43 b 124 239 224 43 160 107 l 89 239 l 89 0 l 119 0 z m 247 1083 l 82 904 l 144 904 l 310 999 l 475 904 l 538 904 l 372 1083 z "},"ŵ":{"ha":1183,"x_min":0,"x_max":0,"o":"m 590 499 l 596 499 l 765 -14 l 817 -14 l 1032 518 b 1164 688 1090 663 1110 688 l 1164 736 l 886 736 l 886 688 b 979 638 961 688 979 678 b 922 446 979 606 968 569 l 839 221 l 833 221 l 649 736 l 606 736 l 401 221 l 396 221 l 301 553 b 286 632 292 589 286 614 b 385 688 286 672 313 688 l 385 736 l 17 736 l 17 688 b 154 564 97 688 122 667 l 335 -14 l 386 -14 z m 564 1083 l 399 904 l 461 904 l 626 999 l 792 904 l 854 904 l 689 1083 z "},"ŷ":{"ha":888,"x_min":0,"x_max":0,"o":"m 693 456 b 872 688 783 663 803 688 l 872 736 l 567 736 l 567 688 b 664 626 643 688 664 675 b 606 449 664 596 656 569 l 479 136 l 472 136 l 319 506 b 281 642 297 560 281 618 b 374 688 281 674 310 688 l 374 736 l 6 736 l 6 688 b 143 564 79 682 96 667 l 410 -15 l 361 -112 b 218 -218 326 -182 294 -206 b 104 -296 131 -232 104 -250 b 192 -361 104 -340 133 -361 b 390 -218 279 -361 349 -311 z m 422 1083 l 257 904 l 319 904 l 485 999 l 650 904 l 713 904 l 547 1083 z "},"î":{"ha":474,"x_min":0,"x_max":0,"o":"m 317 750 l 44 697 l 44 646 b 171 589 136 646 163 633 b 181 386 178 564 181 493 l 181 214 b 47 51 181 83 160 57 l 47 0 l 446 0 l 446 51 b 317 225 336 56 317 81 z m 188 1083 l 22 904 l 85 904 l 250 999 l 415 904 l 478 904 l 313 1083 z "},"ĵ":{"ha":422,"x_min":0,"x_max":0,"o":"m 296 750 l 24 697 l 24 649 b 150 593 115 649 142 636 b 160 389 157 568 160 496 l 160 -94 b 40 -301 160 -249 129 -301 b -47 -232 -6 -301 -21 -287 b -119 -167 -75 -176 -86 -167 b -190 -232 -164 -167 -190 -190 b 11 -361 -190 -308 -107 -361 b 296 -3 194 -361 296 -233 z m 163 1083 l -3 904 l 60 904 l 225 999 l 390 904 l 453 904 l 288 1083 z "},"ň":{"ha":957,"x_min":0,"x_max":0,"o":"m 300 404 b 325 553 300 492 306 515 b 521 675 364 628 439 675 b 679 392 636 675 679 601 l 679 208 b 564 47 679 71 668 53 l 564 0 l 924 0 l 924 47 b 811 218 822 54 811 68 l 811 450 b 768 672 811 568 800 629 b 571 750 731 719 656 750 b 293 613 461 750 363 699 l 288 613 l 271 750 l 49 697 l 49 653 b 160 594 129 653 149 644 b 168 393 165 571 168 501 l 168 208 b 51 47 168 69 154 54 l 51 0 l 415 0 l 415 47 b 300 218 308 54 300 68 z m 553 904 l 718 1083 l 656 1083 l 490 989 l 325 1083 l 263 1083 l 428 904 z "},"ř":{"ha":663,"x_min":0,"x_max":0,"o":"m 308 268 b 332 465 308 342 317 413 b 465 635 360 563 415 635 b 575 600 499 635 517 600 b 656 671 626 600 656 626 b 560 750 656 719 619 750 b 318 563 465 750 368 674 l 313 563 l 293 735 l 50 682 l 50 633 b 172 374 169 633 172 626 l 172 211 b 53 49 172 71 160 54 l 53 0 l 422 0 l 422 49 b 308 221 317 56 308 68 z m 438 904 l 603 1083 l 540 1083 l 375 989 l 210 1083 l 147 1083 l 313 904 z "},"č":{"ha":744,"x_min":0,"x_max":0,"o":"m 661 156 b 447 58 592 88 524 58 b 226 383 304 58 226 172 b 426 685 226 581 296 685 b 546 626 481 685 510 669 b 631 569 581 579 597 569 b 699 628 672 569 699 592 b 454 750 699 700 597 750 b 68 363 224 750 68 599 b 403 -14 68 138 206 -14 b 703 115 525 -14 636 35 z m 501 904 l 667 1083 l 604 1083 l 439 989 l 274 1083 l 211 1083 l 376 904 z "},"ě":{"ha":796,"x_min":0,"x_max":0,"o":"m 682 168 b 471 58 613 92 547 58 b 225 378 322 58 225 185 b 231 440 225 403 226 425 l 688 440 b 731 468 725 440 731 443 b 449 750 731 649 626 750 b 68 360 225 750 68 588 b 432 -14 68 138 215 -14 b 725 129 550 -14 644 32 z m 240 504 b 426 683 264 622 328 683 b 579 543 519 683 579 628 b 496 504 579 510 571 504 z m 497 904 l 663 1083 l 600 1083 l 435 989 l 269 1083 l 207 1083 l 372 904 z "},"š":{"ha":631,"x_min":0,"x_max":0,"o":"m 147 49 b 333 -14 197 8 261 -14 b 565 197 471 -14 565 67 b 343 450 565 303 503 350 b 207 599 249 508 207 538 b 311 693 207 658 249 693 b 467 536 382 693 426 649 l 503 536 l 503 736 l 476 736 l 449 707 b 300 750 408 733 350 750 b 93 536 183 750 93 663 b 281 308 93 432 156 388 b 442 153 417 224 442 207 b 321 43 442 79 394 43 b 124 239 224 43 160 107 l 89 239 l 89 0 l 119 0 z m 372 904 l 538 1083 l 475 1083 l 310 989 l 144 1083 l 82 1083 l 247 904 z "},"ž":{"ha":774,"x_min":0,"x_max":0,"o":"m 715 215 l 669 215 b 399 64 636 88 589 64 l 236 64 l 710 731 l 710 736 l 113 736 l 90 544 l 135 544 b 351 678 154 658 193 678 l 506 678 l 25 6 l 25 0 l 692 0 z m 461 904 l 626 1083 l 564 1083 l 399 989 l 233 1083 l 171 1083 l 336 904 z "},"æ":{"ha":1183,"x_min":0,"x_max":0,"o":"m 1071 168 b 864 58 1003 93 936 58 b 642 379 726 58 642 182 b 647 440 642 407 643 428 l 1076 440 b 1119 471 1110 440 1119 450 b 842 750 1119 644 1015 750 b 597 654 743 750 658 715 b 367 750 563 721 493 750 b 93 610 193 750 93 699 b 164 540 93 565 118 540 b 235 607 199 540 215 554 b 338 697 261 678 278 697 b 485 528 439 697 485 644 l 485 457 l 285 383 b 60 151 132 326 60 253 b 253 -12 60 50 133 -12 b 528 164 376 -12 476 51 b 825 -14 583 53 689 -14 b 1114 129 938 -14 1032 33 z m 485 274 b 311 71 485 163 406 71 b 200 175 246 71 200 114 b 485 397 200 258 285 324 z m 657 504 b 819 683 679 626 731 683 b 968 542 908 683 968 626 b 885 504 968 508 958 504 z "},"ǽ":{"ha":1183,"x_min":0,"x_max":0,"o":"m 1071 168 b 864 58 1003 93 936 58 b 642 379 726 58 642 182 b 647 440 642 407 643 428 l 1076 440 b 1119 471 1110 440 1119 450 b 842 750 1119 644 1015 750 b 597 654 743 750 658 715 b 367 750 563 721 493 750 b 93 610 193 750 93 699 b 164 540 93 565 118 540 b 235 607 199 540 215 554 b 338 697 261 678 278 697 b 485 528 439 697 485 644 l 485 457 l 285 383 b 60 151 132 326 60 253 b 253 -12 60 50 133 -12 b 528 164 376 -12 476 51 b 825 -14 583 53 689 -14 b 1114 129 938 -14 1032 33 z m 485 274 b 311 71 485 163 406 71 b 200 175 246 71 200 114 b 485 397 200 258 285 324 z m 657 504 b 819 683 679 626 731 683 b 968 542 908 683 968 626 b 885 504 968 508 958 504 z m 539 904 l 729 994 b 800 1067 774 1015 800 1038 b 747 1115 800 1097 779 1115 b 654 1069 718 1115 689 1101 l 474 904 z "},"·":{"ha":396,"x_min":0,"x_max":0,"o":"m 107 381 b 197 290 107 331 147 290 b 289 381 249 290 289 331 b 197 472 289 432 249 472 b 107 381 147 472 107 432 z "},"∙":{"ha":396,"x_min":0,"x_max":0,"o":"m 107 381 b 197 290 107 331 147 290 b 289 381 249 290 289 331 b 197 472 289 432 249 472 b 107 381 147 472 107 432 z "},"œ":{"ha":1413,"x_min":0,"x_max":0,"o":"m 1299 168 b 1088 58 1229 92 1164 58 b 842 363 942 58 846 178 l 842 378 b 847 440 842 403 843 425 l 1304 440 b 1347 468 1342 440 1347 443 b 1065 750 1347 649 1243 750 b 761 606 935 750 828 696 b 451 750 689 694 575 750 b 67 374 243 750 67 593 b 451 -14 67 147 243 -14 b 754 126 571 -14 682 39 b 1049 -14 818 38 921 -14 b 1342 129 1167 -14 1261 32 z m 451 683 b 685 372 592 683 685 557 l 685 360 b 451 57 681 176 589 57 b 224 372 313 57 224 181 b 451 683 224 558 314 683 z m 857 504 b 1043 683 881 622 944 683 b 1196 543 1136 683 1196 628 b 1113 504 1196 510 1188 504 z "},"ĸ":{"ha":879,"x_min":0,"x_max":0,"o":"m 507 0 l 872 0 l 872 49 b 725 125 811 49 779 64 l 450 436 l 650 614 b 814 688 719 675 746 688 l 814 736 l 453 736 l 453 688 b 561 660 533 688 561 681 b 442 517 561 639 532 604 l 313 390 l 313 764 l 44 711 l 44 664 b 181 500 167 664 181 647 l 181 211 b 47 49 181 78 157 49 l 47 0 l 442 0 l 442 49 b 313 221 333 49 313 76 l 313 303 l 364 351 l 511 174 b 579 69 565 108 579 86 b 507 49 579 53 565 49 z "},"Œ":{"ha":1600,"x_min":0,"x_max":0,"o":"m 658 1069 b 81 526 333 1069 81 832 b 654 0 81 233 332 0 l 1517 0 l 1538 274 l 1485 274 b 1183 60 1449 110 1379 60 b 953 218 1008 60 953 97 l 953 532 b 1215 368 1142 531 1215 500 l 1264 368 l 1264 747 l 1215 747 b 953 588 1215 618 1132 588 l 953 986 b 976 1010 953 1000 961 1010 l 1153 1010 b 1435 825 1342 1010 1413 972 l 1483 825 l 1471 1069 z m 658 1014 b 807 858 778 1014 807 988 l 807 211 b 658 58 807 81 789 58 b 261 522 414 58 261 236 b 658 1014 261 826 414 1014 z "},"˜":{"ha":529,"x_min":0,"x_max":0,"o":"m 75 917 b 138 972 88 958 103 972 b 363 906 213 972 289 906 b 501 1069 432 906 492 976 l 456 1069 b 390 1011 442 1026 425 1011 b 175 1075 319 1011 249 1075 b 28 917 103 1075 43 1011 z "},"~":{"ha":768,"x_min":0,"x_max":0,"o":"m 164 346 b 226 401 176 388 192 401 b 510 335 317 401 431 335 b 653 499 582 335 639 401 l 607 499 b 543 440 593 454 578 440 b 269 504 457 440 349 504 b 117 346 192 504 133 443 z "},"ã":{"ha":769,"x_min":0,"x_max":0,"o":"m 485 301 b 311 71 485 175 407 71 b 200 175 244 71 200 114 b 485 411 200 257 272 331 z m 285 383 b 60 151 117 311 60 240 b 247 -12 60 53 132 -12 b 489 135 350 -12 440 44 l 496 135 b 617 -14 496 40 536 -14 b 771 61 682 -14 749 18 l 751 94 b 683 64 735 67 708 64 b 621 222 642 64 621 115 l 621 533 b 365 750 621 692 551 750 b 93 610 192 750 93 699 b 163 540 93 565 118 540 b 235 607 199 540 214 554 b 340 697 258 679 276 697 b 485 528 439 697 485 643 l 485 471 z m 179 917 b 242 972 192 958 207 972 b 467 906 317 972 393 906 b 606 1069 536 906 596 976 l 560 1069 b 494 1011 546 1026 529 1011 b 279 1075 424 1011 353 1075 b 132 917 207 1075 147 1011 z "},"ñ":{"ha":957,"x_min":0,"x_max":0,"o":"m 300 404 b 325 553 300 492 306 515 b 521 675 364 628 439 675 b 679 392 636 675 679 601 l 679 208 b 564 47 679 71 668 53 l 564 0 l 924 0 l 924 47 b 811 218 822 54 811 68 l 811 450 b 768 672 811 568 800 629 b 571 750 731 719 656 750 b 293 613 461 750 363 699 l 288 613 l 271 750 l 49 697 l 49 653 b 160 594 129 653 149 644 b 168 393 165 571 168 501 l 168 208 b 51 47 168 69 154 54 l 51 0 l 415 0 l 415 47 b 300 218 308 54 300 68 z m 290 917 b 353 972 303 958 318 972 b 578 906 428 972 504 906 b 717 1069 647 906 707 976 l 671 1069 b 606 1011 657 1026 640 1011 b 390 1075 535 1011 464 1075 b 243 917 318 1075 258 1011 z "},"ũ":{"ha":931,"x_min":0,"x_max":0,"o":"m 643 378 b 619 229 643 299 638 272 b 429 69 574 122 508 69 b 281 357 326 69 281 157 l 281 736 l 29 736 l 29 688 b 144 514 136 678 144 665 l 144 293 b 189 68 144 179 158 108 b 385 -14 226 18 307 -14 b 650 151 485 -14 579 38 l 656 151 l 671 -15 l 900 1 l 900 50 b 788 106 815 50 796 58 b 779 310 782 139 779 204 l 779 736 l 528 736 l 528 688 b 643 514 635 676 643 665 z m 235 917 b 297 972 247 958 263 972 b 522 906 372 972 449 906 b 661 1069 592 906 651 976 l 615 1069 b 550 1011 601 1026 585 1011 b 335 1075 479 1011 408 1075 b 188 917 263 1075 203 1011 z "},"õ":{"ha":908,"x_min":0,"x_max":0,"o":"m 451 750 b 67 374 243 750 67 593 b 451 -14 67 147 243 -14 b 842 374 663 -14 842 149 b 451 750 842 592 663 750 z m 451 683 b 685 372 592 683 685 557 b 451 57 685 182 593 57 b 224 372 313 57 224 181 b 451 683 224 558 314 683 z m 251 917 b 314 972 264 958 279 972 b 539 906 389 972 465 906 b 678 1069 608 906 668 976 l 632 1069 b 567 1011 618 1026 601 1011 b 351 1075 496 1011 425 1075 b 204 917 279 1075 219 1011 z "},"ẽ":{"ha":796,"x_min":0,"x_max":0,"o":"m 682 168 b 471 58 613 92 547 58 b 225 378 322 58 225 185 b 231 440 225 403 226 425 l 688 440 b 731 468 725 440 731 443 b 449 750 731 649 626 750 b 68 360 225 750 68 588 b 432 -14 68 138 215 -14 b 725 129 550 -14 644 32 z m 240 504 b 426 683 264 622 328 683 b 579 543 519 683 579 628 b 496 504 579 510 571 504 z m 235 917 b 297 972 247 958 263 972 b 522 906 372 972 449 906 b 661 1069 592 906 651 976 l 615 1069 b 550 1011 601 1026 585 1011 b 335 1075 479 1011 408 1075 b 188 917 263 1075 203 1011 z "},"ỹ":{"ha":888,"x_min":0,"x_max":0,"o":"m 693 456 b 872 688 783 663 803 688 l 872 736 l 567 736 l 567 688 b 664 626 643 688 664 675 b 606 449 664 596 656 569 l 479 136 l 472 136 l 319 506 b 281 642 297 560 281 618 b 374 688 281 674 310 688 l 374 736 l 6 736 l 6 688 b 143 564 79 682 96 667 l 410 -15 l 361 -112 b 218 -218 326 -182 294 -206 b 104 -296 131 -232 104 -250 b 192 -361 104 -340 133 -361 b 390 -218 279 -361 349 -311 z m 285 917 b 347 972 297 958 313 972 b 572 906 422 972 499 906 b 711 1069 642 906 701 976 l 665 1069 b 600 1011 651 1026 635 1011 b 385 1075 529 1011 458 1075 b 238 917 313 1075 253 1011 z "},"ĩ":{"ha":474,"x_min":0,"x_max":0,"o":"m 317 750 l 44 697 l 44 646 b 171 589 136 646 163 633 b 181 386 178 564 181 493 l 181 214 b 47 51 181 83 160 57 l 47 0 l 446 0 l 446 51 b 317 225 336 56 317 81 z m 50 917 b 113 972 63 958 78 972 b 338 906 188 972 264 906 b 476 1069 407 906 467 976 l 431 1069 b 365 1011 417 1026 400 1011 b 150 1075 294 1011 224 1075 b 3 917 78 1075 18 1011 z "},"˘":{"ha":439,"x_min":0,"x_max":0,"o":"m 360 1078 b 218 993 344 1026 288 993 b 78 1078 150 993 94 1026 l 28 1078 b 219 897 32 974 113 897 b 411 1078 324 897 404 972 z "},"ă":{"ha":769,"x_min":0,"x_max":0,"o":"m 485 301 b 311 71 485 175 407 71 b 200 175 244 71 200 114 b 485 411 200 257 272 331 z m 285 383 b 60 151 117 311 60 240 b 247 -12 60 53 132 -12 b 489 135 350 -12 440 44 l 496 135 b 617 -14 496 40 536 -14 b 771 61 682 -14 749 18 l 751 94 b 683 64 735 67 708 64 b 621 222 642 64 621 115 l 621 533 b 365 750 621 692 551 750 b 93 610 192 750 93 699 b 163 540 93 565 118 540 b 235 607 199 540 214 554 b 340 697 258 679 276 697 b 485 528 439 697 485 643 l 485 471 z m 508 1078 b 367 993 493 1026 436 993 b 226 1078 299 993 243 1026 l 176 1078 b 368 897 181 974 261 897 b 560 1078 472 897 553 972 z "},"ŭ":{"ha":931,"x_min":0,"x_max":0,"o":"m 643 378 b 619 229 643 299 638 272 b 429 69 574 122 508 69 b 281 357 326 69 281 157 l 281 736 l 29 736 l 29 688 b 144 514 136 678 144 665 l 144 293 b 189 68 144 179 158 108 b 385 -14 226 18 307 -14 b 650 151 485 -14 579 38 l 656 151 l 671 -15 l 900 1 l 900 50 b 788 106 815 50 796 58 b 779 310 782 139 779 204 l 779 736 l 528 736 l 528 688 b 643 514 635 676 643 665 z m 575 1078 b 433 993 560 1026 503 993 b 293 1078 365 993 310 1026 l 243 1078 b 435 897 247 974 328 897 b 626 1078 539 897 619 972 z "},"ŏ":{"ha":908,"x_min":0,"x_max":0,"o":"m 451 750 b 67 374 243 750 67 593 b 451 -14 67 147 243 -14 b 842 374 663 -14 842 149 b 451 750 842 592 663 750 z m 451 683 b 685 372 592 683 685 557 b 451 57 685 182 593 57 b 224 372 313 57 224 181 b 451 683 224 558 314 683 z m 592 1078 b 450 993 576 1026 519 993 b 310 1078 382 993 326 1026 l 260 1078 b 451 897 264 974 344 897 b 643 1078 556 897 636 972 z "},"ĕ":{"ha":796,"x_min":0,"x_max":0,"o":"m 682 168 b 471 58 613 92 547 58 b 225 378 322 58 225 185 b 231 440 225 403 226 425 l 688 440 b 731 468 725 440 731 443 b 449 750 731 649 626 750 b 68 360 225 750 68 588 b 432 -14 68 138 215 -14 b 725 129 550 -14 644 32 z m 240 504 b 426 683 264 622 328 683 b 579 543 519 683 579 628 b 496 504 579 510 571 504 z m 575 1078 b 433 993 560 1026 503 993 b 293 1078 365 993 310 1026 l 243 1078 b 435 897 247 974 328 897 b 626 1078 539 897 619 972 z "},"ĭ":{"ha":474,"x_min":0,"x_max":0,"o":"m 317 750 l 44 697 l 44 646 b 171 589 136 646 163 633 b 181 386 178 564 181 493 l 181 214 b 47 51 181 83 160 57 l 47 0 l 446 0 l 446 51 b 317 225 336 56 317 81 z m 390 1078 b 249 993 375 1026 318 993 b 108 1078 181 993 125 1026 l 58 1078 b 250 897 63 974 143 897 b 442 1078 354 897 435 972 z "},"ĺ":{"ha":451,"x_min":0,"x_max":0,"o":"m 290 1125 l 28 1074 l 28 1026 b 153 972 117 1026 143 1015 b 161 778 158 949 161 878 l 161 207 b 31 49 161 79 140 54 l 31 0 l 414 0 l 414 49 b 290 217 307 53 290 76 z m 171 1181 l 338 1219 b 442 1285 400 1233 442 1256 b 389 1333 442 1315 421 1333 b 268 1288 351 1333 319 1318 l 88 1181 z "},"Á":{"ha":1072,"x_min":0,"x_max":0,"o":"m 735 238 b 767 114 760 174 767 150 b 638 54 767 71 736 54 l 638 0 l 1090 0 l 1090 54 b 879 286 994 54 964 78 l 564 1069 l 504 1069 l 143 165 b -8 53 111 86 76 63 l -8 0 l 329 0 l 329 53 b 221 121 253 53 221 69 b 307 388 221 158 243 235 l 678 388 z m 497 867 l 651 457 l 335 457 z m 476 1181 l 643 1219 b 747 1285 706 1233 747 1256 b 694 1333 747 1315 726 1333 b 574 1288 657 1333 625 1318 l 393 1181 z "},"Ć":{"ha":1114,"x_min":0,"x_max":0,"o":"m 932 983 b 615 1083 818 1054 726 1083 b 83 517 300 1083 83 853 b 600 -14 83 193 286 -14 b 953 110 738 -14 854 26 l 985 0 l 1033 0 l 1033 346 l 976 346 b 632 61 926 158 808 61 b 269 525 399 61 269 228 b 628 1011 269 828 403 1011 b 957 750 792 1011 917 911 l 1008 750 l 996 1069 l 957 1069 z m 567 1181 l 733 1219 b 838 1285 796 1233 838 1256 b 785 1333 838 1315 817 1333 b 664 1288 747 1333 715 1318 l 483 1181 z "},"É":{"ha":1008,"x_min":0,"x_max":0,"o":"m 361 986 b 385 1010 361 1000 369 1010 l 561 1010 b 843 825 750 1010 821 972 l 892 825 l 879 1069 l 76 1069 l 76 1017 b 215 858 196 1011 215 988 l 215 211 b 63 53 215 81 193 57 l 63 0 l 925 0 l 946 274 l 893 274 b 592 60 857 110 788 60 b 361 218 417 60 361 97 l 361 532 b 624 368 569 531 624 479 l 672 368 l 672 747 l 624 747 b 361 588 624 635 561 588 z m 471 1181 l 638 1219 b 742 1285 700 1233 742 1256 b 689 1333 742 1315 721 1333 b 568 1288 651 1333 619 1318 l 388 1181 z "},"Í":{"ha":576,"x_min":0,"x_max":0,"o":"m 361 807 b 499 1017 361 975 379 1013 l 499 1069 l 76 1069 l 76 1017 b 215 817 196 1011 215 974 l 215 253 b 63 53 215 81 193 57 l 63 0 l 513 0 l 513 53 b 361 263 382 57 361 79 z m 231 1181 l 397 1219 b 501 1285 460 1233 501 1256 b 449 1333 501 1315 481 1333 b 328 1288 411 1333 379 1318 l 147 1181 z "},"Ĺ":{"ha":1010,"x_min":0,"x_max":0,"o":"m 981 274 l 928 274 b 608 63 888 101 821 63 b 361 250 417 63 361 94 l 361 849 b 499 1017 361 989 379 1013 l 499 1069 l 76 1069 l 76 1017 b 215 858 196 1011 215 988 l 215 211 b 63 53 215 81 193 57 l 63 0 l 960 0 z m 231 1181 l 397 1219 b 501 1285 460 1233 501 1256 b 449 1333 501 1315 481 1333 b 328 1288 411 1333 379 1318 l 147 1181 z "},"Ń":{"ha":1253,"x_min":0,"x_max":0,"o":"m 1047 -14 l 1047 817 b 1200 1017 1047 989 1069 1013 l 1200 1069 l 826 1069 l 826 1017 b 964 807 944 1013 964 990 l 964 260 l 958 260 l 351 1069 l 76 1069 l 76 1017 b 215 817 196 1011 215 974 l 215 253 b 63 53 215 81 193 57 l 63 0 l 436 0 l 436 53 b 299 263 318 57 299 79 l 299 856 l 304 856 l 964 -14 z m 589 1181 l 756 1219 b 860 1285 818 1233 860 1256 b 807 1333 860 1315 839 1333 b 686 1288 769 1333 738 1318 l 506 1181 z "},"Ó":{"ha":1314,"x_min":0,"x_max":0,"o":"m 657 1083 b 79 526 332 1083 79 840 b 657 -14 79 225 335 -14 b 1235 526 979 -14 1235 225 b 657 1083 1235 840 982 1083 z m 657 63 b 260 522 413 63 260 240 b 657 1007 260 819 413 1007 b 1054 522 901 1007 1054 819 b 657 63 1054 240 900 63 z m 603 1181 l 769 1219 b 874 1285 832 1233 874 1256 b 821 1333 874 1315 853 1333 b 700 1288 783 1333 751 1318 l 519 1181 z "},"Ŕ":{"ha":1094,"x_min":0,"x_max":0,"o":"m 914 801 b 513 1069 914 969 767 1069 l 76 1069 l 76 1017 b 215 858 196 1011 215 988 l 215 211 b 63 53 215 81 193 57 l 63 0 l 553 0 l 553 53 b 361 218 385 53 361 81 l 361 507 b 524 436 447 507 475 500 l 864 0 l 1132 0 l 1132 53 b 942 149 1050 65 992 88 l 635 518 b 914 801 829 551 914 654 z m 361 981 b 385 1004 361 994 369 1004 l 513 1004 b 733 794 664 1004 733 943 b 460 576 733 640 643 576 l 361 576 z m 465 1181 l 632 1219 b 736 1285 694 1233 736 1256 b 683 1333 736 1315 715 1333 b 563 1288 646 1333 614 1318 l 382 1181 z "},"Ś":{"ha":896,"x_min":0,"x_max":0,"o":"m 101 15 l 133 15 l 172 83 b 443 -14 258 14 338 -14 b 821 301 667 -14 821 115 b 468 647 821 447 743 524 b 256 858 310 718 256 771 b 440 1013 256 951 328 1013 b 689 788 558 1013 644 939 l 740 788 l 725 1064 l 693 1064 l 657 1001 b 436 1083 585 1058 517 1083 b 125 789 254 1083 125 961 b 426 468 125 646 196 569 b 669 238 614 386 669 332 b 447 57 669 128 583 57 b 132 326 281 57 158 158 l 81 326 z m 383 1181 l 550 1219 b 654 1285 613 1233 654 1256 b 601 1333 654 1315 633 1333 b 481 1288 564 1333 532 1318 l 300 1181 z "},"Ú":{"ha":1196,"x_min":0,"x_max":0,"o":"m 1003 711 b 1038 979 1003 864 1010 940 b 1156 1017 1060 1011 1097 1017 l 1156 1069 l 753 1069 l 753 1017 b 874 989 810 1017 849 1013 b 919 711 910 954 919 876 l 919 376 b 642 72 919 178 826 72 b 361 368 435 72 361 179 l 361 746 b 392 983 361 882 367 950 b 514 1017 414 1013 451 1017 l 514 1069 l 40 1069 l 40 1017 b 161 986 103 1017 139 1010 b 194 746 193 951 194 883 l 194 379 b 603 -14 194 88 329 -14 b 1003 431 893 -14 1003 138 z m 582 1181 l 749 1219 b 853 1285 811 1233 853 1256 b 800 1333 853 1315 832 1333 b 679 1288 763 1333 731 1318 l 499 1181 z "},"Ì":{"ha":576,"x_min":0,"x_max":0,"o":"m 361 807 b 499 1017 361 975 379 1013 l 499 1069 l 76 1069 l 76 1017 b 215 817 196 1011 215 974 l 215 253 b 63 53 215 81 193 57 l 63 0 l 513 0 l 513 53 b 361 263 382 57 361 79 z m 433 1181 l 253 1288 b 132 1333 201 1318 169 1333 b 79 1285 100 1333 79 1315 b 183 1219 79 1256 121 1233 l 350 1181 z "},"À":{"ha":1072,"x_min":0,"x_max":0,"o":"m 735 238 b 767 114 760 174 767 150 b 638 54 767 71 736 54 l 638 0 l 1090 0 l 1090 54 b 879 286 994 54 964 78 l 564 1069 l 504 1069 l 143 165 b -8 53 111 86 76 63 l -8 0 l 329 0 l 329 53 b 221 121 253 53 221 69 b 307 388 221 158 243 235 l 678 388 z m 497 867 l 651 457 l 335 457 z m 679 1181 l 499 1288 b 378 1333 447 1318 415 1333 b 325 1285 346 1333 325 1315 b 429 1219 325 1256 367 1233 l 596 1181 z "},"È":{"ha":1008,"x_min":0,"x_max":0,"o":"m 361 986 b 385 1010 361 1000 369 1010 l 561 1010 b 843 825 750 1010 821 972 l 892 825 l 879 1069 l 76 1069 l 76 1017 b 215 858 196 1011 215 988 l 215 211 b 63 53 215 81 193 57 l 63 0 l 925 0 l 946 274 l 893 274 b 592 60 857 110 788 60 b 361 218 417 60 361 97 l 361 532 b 624 368 569 531 624 479 l 672 368 l 672 747 l 624 747 b 361 588 624 635 561 588 z m 674 1181 l 493 1288 b 372 1333 442 1318 410 1333 b 319 1285 340 1333 319 1315 b 424 1219 319 1256 361 1233 l 590 1181 z "},"Ò":{"ha":1314,"x_min":0,"x_max":0,"o":"m 657 1083 b 79 526 332 1083 79 840 b 657 -14 79 225 335 -14 b 1235 526 979 -14 1235 225 b 657 1083 1235 840 982 1083 z m 657 63 b 260 522 413 63 260 240 b 657 1007 260 819 413 1007 b 1054 522 901 1007 1054 819 b 657 63 1054 240 900 63 z m 806 1181 l 625 1288 b 504 1333 574 1318 542 1333 b 451 1285 472 1333 451 1315 b 556 1219 451 1256 493 1233 l 722 1181 z "},"Ù":{"ha":1196,"x_min":0,"x_max":0,"o":"m 1003 711 b 1038 979 1003 864 1010 940 b 1156 1017 1060 1011 1097 1017 l 1156 1069 l 753 1069 l 753 1017 b 874 989 810 1017 849 1013 b 919 711 910 954 919 876 l 919 376 b 642 72 919 178 826 72 b 361 368 435 72 361 179 l 361 746 b 392 983 361 882 367 950 b 514 1017 414 1013 451 1017 l 514 1069 l 40 1069 l 40 1017 b 161 986 103 1017 139 1010 b 194 746 193 951 194 883 l 194 379 b 603 -14 194 88 329 -14 b 1003 431 893 -14 1003 138 z m 785 1181 l 604 1288 b 483 1333 553 1318 521 1333 b 431 1285 451 1333 431 1315 b 535 1219 431 1256 472 1233 l 701 1181 z "},"Ẁ":{"ha":1633,"x_min":0,"x_max":0,"o":"m 972 833 b 943 960 954 894 943 932 b 1069 1015 943 1001 963 1015 l 1069 1069 l 644 1069 l 644 1015 b 782 879 697 1015 732 986 b 714 694 767 829 739 767 l 543 214 l 332 857 b 310 954 318 899 310 931 b 438 1015 310 1001 343 1015 l 438 1069 l -15 1069 l -15 1015 b 196 783 97 1015 131 963 l 485 -14 l 533 -14 l 829 776 l 1096 -14 l 1144 -14 l 1493 904 b 1644 1017 1522 983 1560 1017 l 1644 1069 l 1307 1069 l 1307 1017 b 1411 954 1383 1017 1411 1001 b 1375 813 1411 922 1401 885 l 1158 210 z m 1001 1181 l 821 1288 b 700 1333 769 1318 738 1333 b 647 1285 668 1333 647 1315 b 751 1219 647 1256 689 1233 l 918 1181 z "},"Ẃ":{"ha":1633,"x_min":0,"x_max":0,"o":"m 972 833 b 943 960 954 894 943 932 b 1069 1015 943 1001 963 1015 l 1069 1069 l 644 1069 l 644 1015 b 782 879 697 1015 732 986 b 714 694 767 829 739 767 l 543 214 l 332 857 b 310 954 318 899 310 931 b 438 1015 310 1001 343 1015 l 438 1069 l -15 1069 l -15 1015 b 196 783 97 1015 131 963 l 485 -14 l 533 -14 l 829 776 l 1096 -14 l 1144 -14 l 1493 904 b 1644 1017 1522 983 1560 1017 l 1644 1069 l 1307 1069 l 1307 1017 b 1411 954 1383 1017 1411 1001 b 1375 813 1411 922 1401 885 l 1158 210 z m 758 1181 l 925 1219 b 1029 1285 988 1233 1029 1256 b 976 1333 1029 1315 1008 1333 b 856 1288 939 1333 907 1318 l 675 1181 z "},"Ỳ":{"ha":1018,"x_min":0,"x_max":0,"o":"m 436 422 l 436 253 b 283 53 436 83 415 53 l 283 0 l 733 0 l 733 53 b 582 263 600 53 582 82 l 582 428 l 796 789 b 1024 1017 910 981 946 1017 l 1024 1069 l 706 1069 l 706 1017 b 796 969 772 1017 796 1004 b 714 782 796 935 772 881 l 557 518 l 551 518 l 336 886 b 304 969 314 924 304 951 b 431 1017 304 1004 339 1017 l 431 1069 l -7 1069 l -7 1017 b 158 897 69 1017 101 993 z m 714 1181 l 533 1288 b 413 1333 482 1318 450 1333 b 360 1285 381 1333 360 1315 b 464 1219 360 1256 401 1233 l 631 1181 z "},"Ý":{"ha":1018,"x_min":0,"x_max":0,"o":"m 436 422 l 436 253 b 283 53 436 83 415 53 l 283 0 l 733 0 l 733 53 b 582 263 600 53 582 82 l 582 428 l 796 789 b 1024 1017 910 981 946 1017 l 1024 1069 l 706 1069 l 706 1017 b 796 969 772 1017 796 1004 b 714 782 796 935 772 881 l 557 518 l 551 518 l 336 886 b 304 969 314 924 304 951 b 431 1017 304 1004 339 1017 l 431 1069 l -7 1069 l -7 1017 b 158 897 69 1017 101 993 z m 469 1181 l 636 1219 b 740 1285 699 1233 740 1256 b 688 1333 740 1315 719 1333 b 567 1288 650 1333 618 1318 l 386 1181 z "},"Ź":{"ha":1069,"x_min":0,"x_max":0,"o":"m 1003 326 l 943 326 b 679 64 910 110 869 64 l 249 64 l 972 1064 l 972 1069 l 126 1069 l 106 814 l 157 814 b 372 1011 182 958 242 1011 l 753 1011 l 22 6 l 22 0 l 986 0 z m 690 1181 l 510 1288 b 389 1333 458 1318 426 1333 b 336 1285 357 1333 336 1315 b 440 1219 336 1256 378 1233 l 607 1181 z "},"Ő":{"ha":1314,"x_min":0,"x_max":0,"o":"m 657 1083 b 79 526 332 1083 79 840 b 657 -14 79 225 335 -14 b 1235 526 979 -14 1235 225 b 657 1083 1235 840 982 1083 z m 657 63 b 260 522 413 63 260 240 b 657 1007 260 819 413 1007 b 1054 522 901 1007 1054 819 b 657 63 1054 240 900 63 z m 485 1181 l 638 1219 b 742 1285 700 1235 742 1256 b 689 1333 742 1315 721 1333 b 568 1288 651 1333 618 1319 l 401 1181 z m 744 1181 l 897 1219 b 1001 1285 960 1235 1001 1256 b 949 1333 1001 1315 981 1333 b 828 1288 911 1333 878 1319 l 661 1181 z "},"Ű":{"ha":1196,"x_min":0,"x_max":0,"o":"m 1003 711 b 1038 979 1003 864 1010 940 b 1156 1017 1060 1011 1097 1017 l 1156 1069 l 753 1069 l 753 1017 b 874 989 810 1017 849 1013 b 919 711 910 954 919 876 l 919 376 b 642 72 919 178 826 72 b 361 368 435 72 361 179 l 361 746 b 392 983 361 882 367 950 b 514 1017 414 1013 451 1017 l 514 1069 l 40 1069 l 40 1017 b 161 986 103 1017 139 1010 b 194 746 193 951 194 883 l 194 379 b 603 -14 194 88 329 -14 b 1003 431 893 -14 1003 138 z m 464 1181 l 617 1219 b 721 1285 679 1235 721 1256 b 668 1333 721 1315 700 1333 b 547 1288 631 1333 597 1319 l 381 1181 z m 724 1181 l 876 1219 b 981 1285 939 1235 981 1256 b 928 1333 981 1315 960 1333 b 807 1288 890 1333 857 1319 l 640 1181 z "},"Ã":{"ha":1072,"x_min":0,"x_max":0,"o":"m 735 238 b 767 114 760 174 767 150 b 638 54 767 71 736 54 l 638 0 l 1090 0 l 1090 54 b 879 286 994 54 964 78 l 564 1069 l 504 1069 l 143 165 b -8 53 111 86 76 63 l -8 0 l 329 0 l 329 53 b 221 121 253 53 221 69 b 307 388 221 158 243 235 l 678 388 z m 497 867 l 651 457 l 335 457 z m 342 1175 b 404 1231 354 1217 369 1231 b 629 1164 479 1231 556 1164 b 768 1328 699 1164 758 1235 l 722 1328 b 657 1269 708 1285 692 1269 b 442 1333 586 1269 515 1333 b 294 1175 369 1333 310 1269 z "},"Ë":{"ha":1008,"x_min":0,"x_max":0,"o":"m 361 986 b 385 1010 361 1000 369 1010 l 561 1010 b 843 825 750 1010 821 972 l 892 825 l 879 1069 l 76 1069 l 76 1017 b 215 858 196 1011 215 988 l 215 211 b 63 53 215 81 193 57 l 63 0 l 925 0 l 946 274 l 893 274 b 592 60 857 110 788 60 b 361 218 417 60 361 97 l 361 532 b 624 368 569 531 624 479 l 672 368 l 672 747 l 624 747 b 361 588 624 635 561 588 z m 311 1264 b 381 1193 311 1224 342 1193 b 451 1264 421 1193 451 1224 b 381 1333 451 1303 421 1333 b 311 1264 342 1333 311 1303 z m 564 1264 b 635 1193 564 1224 594 1193 b 704 1264 674 1193 704 1224 b 635 1333 704 1303 674 1333 b 564 1264 594 1333 564 1303 z "},"Ė":{"ha":1008,"x_min":0,"x_max":0,"o":"m 361 986 b 385 1010 361 1000 369 1010 l 561 1010 b 843 825 750 1010 821 972 l 892 825 l 879 1069 l 76 1069 l 76 1017 b 215 858 196 1011 215 988 l 215 211 b 63 53 215 81 193 57 l 63 0 l 925 0 l 946 274 l 893 274 b 592 60 857 110 788 60 b 361 218 417 60 361 97 l 361 532 b 624 368 569 531 624 479 l 672 368 l 672 747 l 624 747 b 361 588 624 635 561 588 z m 425 1256 b 497 1183 425 1217 458 1183 b 574 1256 540 1183 574 1217 b 497 1332 574 1299 540 1332 b 425 1256 458 1332 425 1299 z "},"Ï":{"ha":576,"x_min":0,"x_max":0,"o":"m 361 807 b 499 1017 361 975 379 1013 l 499 1069 l 76 1069 l 76 1017 b 215 817 196 1011 215 974 l 215 253 b 63 53 215 81 193 57 l 63 0 l 513 0 l 513 53 b 361 263 382 57 361 79 z m 93 1264 b 163 1193 93 1224 124 1193 b 233 1264 203 1193 233 1224 b 163 1333 233 1303 203 1333 b 93 1264 124 1333 93 1303 z m 346 1264 b 417 1193 346 1224 376 1193 b 486 1264 456 1193 486 1224 b 417 1333 486 1303 456 1333 b 346 1264 376 1333 346 1303 z "},"İ":{"ha":576,"x_min":0,"x_max":0,"o":"m 361 807 b 499 1017 361 975 379 1013 l 499 1069 l 76 1069 l 76 1017 b 215 817 196 1011 215 974 l 215 253 b 63 53 215 81 193 57 l 63 0 l 513 0 l 513 53 b 361 263 382 57 361 79 z m 215 1256 b 288 1183 215 1217 249 1183 b 364 1256 331 1183 364 1217 b 288 1332 364 1299 331 1332 b 215 1256 249 1332 215 1299 z "},"Ŀ":{"ha":1010,"x_min":0,"x_max":0,"o":"m 981 274 l 928 274 b 608 63 888 101 821 63 b 361 250 417 63 361 94 l 361 849 b 499 1017 361 989 379 1013 l 499 1069 l 76 1069 l 76 1017 b 215 858 196 1011 215 988 l 215 211 b 63 53 215 81 193 57 l 63 0 l 960 0 z m 544 557 b 635 467 544 507 585 467 b 726 557 686 467 726 507 b 635 649 726 608 686 649 b 544 557 585 649 544 608 z "},"Ċ":{"ha":1114,"x_min":0,"x_max":0,"o":"m 932 983 b 615 1083 818 1054 726 1083 b 83 517 300 1083 83 853 b 600 -14 83 193 286 -14 b 953 110 738 -14 854 26 l 985 0 l 1033 0 l 1033 346 l 976 346 b 632 61 926 158 808 61 b 269 525 399 61 269 228 b 628 1011 269 828 403 1011 b 957 750 792 1011 917 911 l 1008 750 l 996 1069 l 957 1069 z m 550 1256 b 622 1183 550 1217 583 1183 b 699 1256 665 1183 699 1217 b 622 1332 699 1299 665 1332 b 550 1256 583 1332 550 1299 z "},"Ġ":{"ha":1208,"x_min":0,"x_max":0,"o":"m 594 -14 b 844 47 693 -14 781 11 b 1057 115 950 107 986 115 l 1057 271 b 1171 394 1057 367 1081 394 l 1171 447 l 776 447 l 776 394 b 915 257 875 394 915 365 b 632 61 915 154 811 61 b 269 525 399 61 269 228 b 628 1011 269 828 403 1011 b 925 750 778 1011 925 931 l 992 750 l 1010 1069 l 961 1069 l 932 983 b 615 1083 818 1054 726 1083 b 83 517 300 1083 83 853 b 594 -14 83 193 281 -14 z m 547 1256 b 619 1183 547 1217 581 1183 b 696 1256 663 1183 696 1217 b 619 1332 696 1299 663 1332 b 547 1256 581 1332 547 1299 z "},"Ṅ":{"ha":1253,"x_min":0,"x_max":0,"o":"m 1047 -14 l 1047 817 b 1200 1017 1047 989 1069 1013 l 1200 1069 l 826 1069 l 826 1017 b 964 807 944 1013 964 990 l 964 260 l 958 260 l 351 1069 l 76 1069 l 76 1017 b 215 817 196 1011 215 974 l 215 253 b 63 53 215 81 193 57 l 63 0 l 436 0 l 436 53 b 299 263 318 57 299 79 l 299 856 l 304 856 l 964 -14 z m 572 1256 b 644 1183 572 1217 606 1183 b 721 1256 688 1183 721 1217 b 644 1332 721 1299 688 1332 b 572 1256 606 1332 572 1299 z "},"Ż":{"ha":1069,"x_min":0,"x_max":0,"o":"m 1003 326 l 943 326 b 679 64 910 110 869 64 l 249 64 l 972 1064 l 972 1069 l 126 1069 l 106 814 l 157 814 b 372 1011 182 958 242 1011 l 753 1011 l 22 6 l 22 0 l 986 0 z m 471 1256 b 543 1183 471 1217 504 1183 b 619 1256 586 1183 619 1217 b 543 1332 619 1299 586 1332 b 471 1256 504 1332 471 1299 z "},"Ĳ":{"ha":1124,"x_min":0,"x_max":0,"o":"m 361 807 b 499 1017 361 975 379 1013 l 499 1069 l 76 1069 l 76 1017 b 215 817 196 1011 215 974 l 215 253 b 63 53 215 81 193 57 l 63 0 l 513 0 l 513 53 b 361 263 382 57 361 79 z m 778 -60 b 660 -294 778 -208 735 -294 b 574 -218 624 -294 606 -278 b 494 -153 546 -167 529 -153 b 424 -226 450 -153 424 -179 b 635 -361 424 -307 508 -361 b 924 -3 822 -361 924 -235 l 924 849 b 1061 1017 924 989 942 1013 l 1061 1069 l 639 1069 l 639 1017 b 778 858 758 1011 778 988 z "},"ĳ":{"ha":896,"x_min":0,"x_max":0,"o":"m 317 750 l 44 697 l 44 649 b 171 593 136 649 163 636 b 181 389 178 568 181 496 l 181 211 b 47 49 181 81 160 54 l 47 0 l 446 0 l 446 49 b 317 221 336 53 317 78 z m 157 1032 b 243 946 157 983 194 946 b 329 1032 292 946 329 983 b 243 1118 329 1081 292 1118 b 157 1032 194 1118 157 1081 z m 769 750 l 497 697 l 497 649 b 624 593 589 649 615 636 b 633 389 631 568 633 496 l 633 -94 b 514 -301 633 -249 603 -301 b 426 -232 468 -301 453 -287 b 354 -167 399 -176 388 -167 b 283 -232 310 -167 283 -190 b 485 -361 283 -308 367 -361 b 769 -3 668 -361 769 -233 z m 613 1032 b 699 946 613 983 650 946 b 785 1032 747 946 785 983 b 699 1118 785 1081 747 1118 b 613 1032 650 1118 613 1081 z "},"Ǳ":{"ha":2281,"x_min":0,"x_max":0,"o":"m 596 0 b 1146 517 919 0 1146 213 b 568 1069 1146 836 903 1069 l 81 1069 l 81 1017 b 219 858 200 1011 219 988 l 219 211 b 53 53 219 79 194 57 l 53 0 z m 565 1001 b 965 514 813 1001 965 821 b 572 68 965 222 824 68 b 365 226 432 68 365 119 l 365 978 b 389 1001 365 992 374 1001 z m 2214 326 l 2154 326 b 1890 64 2121 110 2081 64 l 1460 64 l 2183 1064 l 2183 1069 l 1338 1069 l 1317 814 l 1368 814 b 1583 1011 1393 958 1453 1011 l 1964 1011 l 1233 6 l 1233 0 l 2197 0 z "},"ǲ":{"ha":1990,"x_min":0,"x_max":0,"o":"m 596 0 b 1146 517 919 0 1146 213 b 568 1069 1146 836 903 1069 l 81 1069 l 81 1017 b 219 858 200 1011 219 988 l 219 211 b 53 53 219 79 194 57 l 53 0 z m 565 1001 b 965 514 813 1001 965 821 b 572 68 965 222 824 68 b 365 226 432 68 365 119 l 365 978 b 389 1001 365 992 374 1001 z m 1932 215 l 1886 215 b 1615 64 1853 88 1806 64 l 1453 64 l 1926 731 l 1926 736 l 1329 736 l 1307 544 l 1351 544 b 1568 678 1371 658 1410 678 l 1722 678 l 1242 6 l 1242 0 l 1908 0 z "},"ǳ":{"ha":1711,"x_min":0,"x_max":0,"o":"m 672 -14 l 903 1 l 903 49 b 790 106 817 49 801 61 b 781 351 782 140 781 224 l 781 1153 l 496 1100 l 496 1058 b 639 1003 592 1058 629 1043 b 647 799 644 978 647 903 l 647 657 b 428 750 583 721 515 750 b 67 369 219 750 67 589 b 428 -14 67 146 218 -14 b 667 117 529 -14 600 24 l 672 117 z m 644 332 b 608 140 644 232 635 181 b 428 53 572 85 493 53 b 224 376 294 53 224 181 b 428 683 224 564 296 683 b 607 599 492 683 565 654 b 644 424 636 561 644 521 z m 1653 215 l 1607 215 b 1336 64 1574 88 1526 64 l 1174 64 l 1647 731 l 1647 736 l 1050 736 l 1028 544 l 1072 544 b 1289 678 1092 658 1131 678 l 1443 678 l 963 6 l 963 0 l 1629 0 z "},"Ǉ":{"ha":1544,"x_min":0,"x_max":0,"o":"m 981 274 l 928 274 b 608 63 888 101 821 63 b 361 250 417 63 361 94 l 361 849 b 499 1017 361 989 379 1013 l 499 1069 l 76 1069 l 76 1017 b 215 858 196 1011 215 988 l 215 211 b 63 53 215 81 193 57 l 63 0 l 960 0 z m 1199 -60 b 1081 -294 1199 -208 1156 -294 b 994 -218 1044 -294 1026 -278 b 915 -153 967 -167 950 -153 b 844 -226 871 -153 844 -179 b 1056 -361 844 -307 929 -361 b 1344 -3 1243 -361 1344 -235 l 1344 849 b 1482 1017 1344 989 1363 1013 l 1482 1069 l 1060 1069 l 1060 1017 b 1199 858 1179 1011 1199 988 z "},"ǈ":{"ha":1425,"x_min":0,"x_max":0,"o":"m 981 274 l 928 274 b 608 63 888 101 821 63 b 361 250 417 63 361 94 l 361 849 b 499 1017 361 989 379 1013 l 499 1069 l 76 1069 l 76 1017 b 215 858 196 1011 215 988 l 215 211 b 63 53 215 81 193 57 l 63 0 l 960 0 z m 1299 750 l 1026 697 l 1026 649 b 1153 593 1118 649 1144 636 b 1163 389 1160 568 1163 496 l 1163 -94 b 1043 -301 1163 -249 1132 -301 b 956 -232 997 -301 982 -287 b 883 -167 928 -176 917 -167 b 813 -232 839 -167 813 -190 b 1014 -361 813 -308 896 -361 b 1299 -3 1197 -361 1299 -233 z m 1142 1032 b 1228 946 1142 983 1179 946 b 1314 1032 1276 946 1314 983 b 1228 1118 1314 1081 1276 1118 b 1142 1032 1179 1118 1142 1081 z "},"ǉ":{"ha":874,"x_min":0,"x_max":0,"o":"m 290 1153 l 28 1101 l 28 1054 b 153 1000 117 1054 143 1043 b 161 806 158 976 161 906 l 161 207 b 31 49 161 79 140 54 l 31 0 l 414 0 l 414 49 b 290 217 307 53 290 76 z m 747 750 l 475 697 l 475 649 b 601 593 567 649 593 636 b 611 389 608 568 611 496 l 611 -94 b 492 -301 611 -249 581 -301 b 404 -232 446 -301 431 -287 b 332 -167 376 -176 365 -167 b 261 -232 288 -167 261 -190 b 463 -361 261 -308 344 -361 b 747 -3 646 -361 747 -233 z m 590 1032 b 676 946 590 983 628 946 b 763 1032 725 946 763 983 b 676 1118 763 1081 725 1118 b 590 1032 628 1118 590 1081 z "},"Ǌ":{"ha":1800,"x_min":0,"x_max":0,"o":"m 1047 -14 l 1047 817 b 1200 1017 1047 989 1069 1013 l 1200 1069 l 826 1069 l 826 1017 b 964 807 944 1013 964 990 l 964 260 l 958 260 l 351 1069 l 76 1069 l 76 1017 b 215 817 196 1011 215 974 l 215 253 b 63 53 215 81 193 57 l 63 0 l 436 0 l 436 53 b 299 263 318 57 299 79 l 299 856 l 304 856 l 964 -14 z m 1454 -60 b 1336 -294 1454 -208 1411 -294 b 1250 -218 1300 -294 1282 -278 b 1171 -153 1222 -167 1206 -153 b 1100 -226 1126 -153 1100 -179 b 1311 -361 1100 -307 1185 -361 b 1600 -3 1499 -361 1600 -235 l 1600 849 b 1738 1017 1600 989 1618 1013 l 1738 1069 l 1315 1069 l 1315 1017 b 1454 858 1435 1011 1454 988 z "},"ǋ":{"ha":1660,"x_min":0,"x_max":0,"o":"m 1047 -14 l 1047 817 b 1200 1017 1047 989 1069 1013 l 1200 1069 l 826 1069 l 826 1017 b 964 807 944 1013 964 990 l 964 260 l 958 260 l 351 1069 l 76 1069 l 76 1017 b 215 817 196 1011 215 974 l 215 253 b 63 53 215 81 193 57 l 63 0 l 436 0 l 436 53 b 299 263 318 57 299 79 l 299 856 l 304 856 l 964 -14 z m 1533 750 l 1261 697 l 1261 649 b 1388 593 1353 649 1379 636 b 1397 389 1394 568 1397 496 l 1397 -94 b 1278 -301 1397 -249 1367 -301 b 1190 -232 1232 -301 1217 -287 b 1118 -167 1163 -176 1151 -167 b 1047 -232 1074 -167 1047 -190 b 1249 -361 1047 -308 1131 -361 b 1533 -3 1432 -361 1533 -233 z m 1376 1032 b 1463 946 1376 983 1414 946 b 1549 1032 1511 946 1549 983 b 1463 1118 1549 1081 1511 1118 b 1376 1032 1414 1118 1376 1081 z "},"ǌ":{"ha":1379,"x_min":0,"x_max":0,"o":"m 300 404 b 325 553 300 492 306 515 b 521 675 364 628 439 675 b 679 392 636 675 679 601 l 679 208 b 564 47 679 71 668 53 l 564 0 l 924 0 l 924 47 b 811 218 822 54 811 68 l 811 450 b 768 672 811 568 800 629 b 571 750 731 719 656 750 b 293 613 461 750 363 699 l 288 613 l 271 750 l 49 697 l 49 653 b 160 594 129 653 149 644 b 168 393 165 571 168 501 l 168 208 b 51 47 168 69 154 54 l 51 0 l 415 0 l 415 47 b 300 218 308 54 300 68 z m 1253 750 l 981 697 l 981 649 b 1107 593 1072 649 1099 636 b 1117 389 1114 568 1117 496 l 1117 -94 b 997 -301 1117 -249 1086 -301 b 910 -232 951 -301 936 -287 b 838 -167 882 -176 871 -167 b 767 -232 793 -167 767 -190 b 968 -361 767 -308 850 -361 b 1253 -3 1151 -361 1253 -233 z m 1096 1032 b 1182 946 1096 983 1133 946 b 1268 1032 1231 946 1268 983 b 1182 1118 1268 1081 1231 1118 b 1096 1032 1133 1118 1096 1081 z "},"Ä":{"ha":1072,"x_min":0,"x_max":0,"o":"m 735 238 b 767 114 760 174 767 150 b 638 54 767 71 736 54 l 638 0 l 1090 0 l 1090 54 b 879 286 994 54 964 78 l 564 1069 l 504 1069 l 143 165 b -8 53 111 86 76 63 l -8 0 l 329 0 l 329 53 b 221 121 253 53 221 69 b 307 388 221 158 243 235 l 678 388 z m 497 867 l 651 457 l 335 457 z m 336 1264 b 406 1193 336 1224 367 1193 b 476 1264 446 1193 476 1224 b 406 1333 476 1303 446 1333 b 336 1264 367 1333 336 1303 z m 589 1264 b 660 1193 589 1224 619 1193 b 729 1264 699 1193 729 1224 b 660 1333 729 1303 699 1333 b 589 1264 619 1333 589 1303 z "},"Ö":{"ha":1314,"x_min":0,"x_max":0,"o":"m 657 1083 b 79 526 332 1083 79 840 b 657 -14 79 225 335 -14 b 1235 526 979 -14 1235 225 b 657 1083 1235 840 982 1083 z m 657 63 b 260 522 413 63 260 240 b 657 1007 260 819 413 1007 b 1054 522 901 1007 1054 819 b 657 63 1054 240 900 63 z m 463 1264 b 532 1193 463 1224 493 1193 b 603 1264 572 1193 603 1224 b 532 1333 603 1303 572 1333 b 463 1264 493 1333 463 1303 z m 715 1264 b 786 1193 715 1224 746 1193 b 856 1264 825 1193 856 1224 b 786 1333 856 1303 825 1333 b 715 1264 746 1333 715 1303 z "},"Ü":{"ha":1196,"x_min":0,"x_max":0,"o":"m 1003 711 b 1038 979 1003 864 1010 940 b 1156 1017 1060 1011 1097 1017 l 1156 1069 l 753 1069 l 753 1017 b 874 989 810 1017 849 1013 b 919 711 910 954 919 876 l 919 376 b 642 72 919 178 826 72 b 361 368 435 72 361 179 l 361 746 b 392 983 361 882 367 950 b 514 1017 414 1013 451 1017 l 514 1069 l 40 1069 l 40 1017 b 161 986 103 1017 139 1010 b 194 746 193 951 194 883 l 194 379 b 603 -14 194 88 329 -14 b 1003 431 893 -14 1003 138 z m 442 1264 b 511 1193 442 1224 472 1193 b 582 1264 551 1193 582 1224 b 511 1333 582 1303 551 1333 b 442 1264 472 1333 442 1303 z m 694 1264 b 765 1193 694 1224 725 1193 b 835 1264 804 1193 835 1224 b 765 1333 835 1303 804 1333 b 694 1264 725 1333 694 1303 z "},"Ẅ":{"ha":1633,"x_min":0,"x_max":0,"o":"m 972 833 b 943 960 954 894 943 932 b 1069 1015 943 1001 963 1015 l 1069 1069 l 644 1069 l 644 1015 b 782 879 697 1015 732 986 b 714 694 767 829 739 767 l 543 214 l 332 857 b 310 954 318 899 310 931 b 438 1015 310 1001 343 1015 l 438 1069 l -15 1069 l -15 1015 b 196 783 97 1015 131 963 l 485 -14 l 533 -14 l 829 776 l 1096 -14 l 1144 -14 l 1493 904 b 1644 1017 1522 983 1560 1017 l 1644 1069 l 1307 1069 l 1307 1017 b 1411 954 1383 1017 1411 1001 b 1375 813 1411 922 1401 885 l 1158 210 z m 658 1264 b 728 1193 658 1224 689 1193 b 799 1264 768 1193 799 1224 b 728 1333 799 1303 768 1333 b 658 1264 689 1333 658 1303 z m 911 1264 b 982 1193 911 1224 942 1193 b 1051 1264 1021 1193 1051 1224 b 982 1333 1051 1303 1021 1333 b 911 1264 942 1333 911 1303 z "},"Ÿ":{"ha":1018,"x_min":0,"x_max":0,"o":"m 436 422 l 436 253 b 283 53 436 83 415 53 l 283 0 l 733 0 l 733 53 b 582 263 600 53 582 82 l 582 428 l 796 789 b 1024 1017 910 981 946 1017 l 1024 1069 l 706 1069 l 706 1017 b 796 969 772 1017 796 1004 b 714 782 796 935 772 881 l 557 518 l 551 518 l 336 886 b 304 969 314 924 304 951 b 431 1017 304 1004 339 1017 l 431 1069 l -7 1069 l -7 1017 b 158 897 69 1017 101 993 z m 371 1264 b 440 1193 371 1224 401 1193 b 511 1264 481 1193 511 1224 b 440 1333 511 1303 481 1333 b 371 1264 401 1333 371 1303 z m 624 1264 b 694 1193 624 1224 654 1193 b 764 1264 733 1193 764 1224 b 694 1333 764 1303 733 1333 b 624 1264 654 1333 624 1303 z "},"…":{"ha":968,"x_min":0,"x_max":0,"o":"m 93 76 b 183 -14 93 26 133 -14 b 275 76 235 -14 275 26 b 183 168 275 128 235 168 b 93 76 133 168 93 128 z m 393 76 b 483 -14 393 26 433 -14 b 575 76 535 -14 575 26 b 483 168 575 128 535 168 b 393 76 433 168 393 128 z m 693 76 b 783 -14 693 26 733 -14 b 875 76 835 -14 875 26 b 783 168 875 128 835 168 b 693 76 733 168 693 128 z "},"Ẽ":{"ha":1008,"x_min":0,"x_max":0,"o":"m 361 986 b 385 1010 361 1000 369 1010 l 561 1010 b 843 825 750 1010 821 972 l 892 825 l 879 1069 l 76 1069 l 76 1017 b 215 858 196 1011 215 988 l 215 211 b 63 53 215 81 193 57 l 63 0 l 925 0 l 946 274 l 893 274 b 592 60 857 110 788 60 b 361 218 417 60 361 97 l 361 532 b 624 368 569 531 624 479 l 672 368 l 672 747 l 624 747 b 361 588 624 635 561 588 z m 336 1175 b 399 1231 349 1217 364 1231 b 624 1164 474 1231 550 1164 b 763 1328 693 1164 753 1235 l 717 1328 b 651 1269 703 1285 686 1269 b 436 1333 581 1269 510 1333 b 289 1175 364 1333 304 1269 z "},"Ĩ":{"ha":576,"x_min":0,"x_max":0,"o":"m 361 807 b 499 1017 361 975 379 1013 l 499 1069 l 76 1069 l 76 1017 b 215 817 196 1011 215 974 l 215 253 b 63 53 215 81 193 57 l 63 0 l 513 0 l 513 53 b 361 263 382 57 361 79 z m 96 1175 b 158 1231 108 1217 124 1231 b 383 1164 233 1231 310 1164 b 522 1328 453 1164 513 1235 l 476 1328 b 411 1269 463 1285 446 1269 b 196 1333 340 1269 269 1333 b 49 1175 124 1333 64 1269 z "},"Ñ":{"ha":1253,"x_min":0,"x_max":0,"o":"m 1047 -14 l 1047 817 b 1200 1017 1047 989 1069 1013 l 1200 1069 l 826 1069 l 826 1017 b 964 807 944 1013 964 990 l 964 260 l 958 260 l 351 1069 l 76 1069 l 76 1017 b 215 817 196 1011 215 974 l 215 253 b 63 53 215 81 193 57 l 63 0 l 436 0 l 436 53 b 299 263 318 57 299 79 l 299 856 l 304 856 l 964 -14 z m 454 1175 b 517 1231 467 1217 482 1231 b 742 1164 592 1231 668 1164 b 881 1328 811 1164 871 1235 l 835 1328 b 769 1269 821 1285 804 1269 b 554 1333 699 1269 628 1333 b 407 1175 482 1333 422 1269 z "},"Õ":{"ha":1314,"x_min":0,"x_max":0,"o":"m 657 1083 b 79 526 332 1083 79 840 b 657 -14 79 225 335 -14 b 1235 526 979 -14 1235 225 b 657 1083 1235 840 982 1083 z m 657 63 b 260 522 413 63 260 240 b 657 1007 260 819 413 1007 b 1054 522 901 1007 1054 819 b 657 63 1054 240 900 63 z m 468 1175 b 531 1231 481 1217 496 1231 b 756 1164 606 1231 682 1164 b 894 1328 825 1164 885 1235 l 849 1328 b 783 1269 835 1285 818 1269 b 568 1333 713 1269 642 1333 b 421 1175 496 1333 436 1269 z "},"Ũ":{"ha":1196,"x_min":0,"x_max":0,"o":"m 1003 711 b 1038 979 1003 864 1010 940 b 1156 1017 1060 1011 1097 1017 l 1156 1069 l 753 1069 l 753 1017 b 874 989 810 1017 849 1013 b 919 711 910 954 919 876 l 919 376 b 642 72 919 178 826 72 b 361 368 435 72 361 179 l 361 746 b 392 983 361 882 367 950 b 514 1017 414 1013 451 1017 l 514 1069 l 40 1069 l 40 1017 b 161 986 103 1017 139 1010 b 194 746 193 951 194 883 l 194 379 b 603 -14 194 88 329 -14 b 1003 431 893 -14 1003 138 z m 447 1175 b 510 1231 460 1217 475 1231 b 735 1164 585 1231 661 1164 b 874 1328 804 1164 864 1235 l 828 1328 b 763 1269 814 1285 797 1269 b 547 1333 692 1269 621 1333 b 400 1175 475 1333 415 1269 z "},"Ỹ":{"ha":1018,"x_min":0,"x_max":0,"o":"m 436 422 l 436 253 b 283 53 436 83 415 53 l 283 0 l 733 0 l 733 53 b 582 263 600 53 582 82 l 582 428 l 796 789 b 1024 1017 910 981 946 1017 l 1024 1069 l 706 1069 l 706 1017 b 796 969 772 1017 796 1004 b 714 782 796 935 772 881 l 557 518 l 551 518 l 336 886 b 304 969 314 924 304 951 b 431 1017 304 1004 339 1017 l 431 1069 l -7 1069 l -7 1017 b 158 897 69 1017 101 993 z m 376 1175 b 439 1231 389 1217 404 1231 b 664 1164 514 1231 590 1164 b 803 1328 733 1164 793 1235 l 757 1328 b 692 1269 743 1285 726 1269 b 476 1333 621 1269 550 1333 b 329 1175 404 1333 344 1269 z "},"Ă":{"ha":1072,"x_min":0,"x_max":0,"o":"m 735 238 b 767 114 760 174 767 150 b 638 54 767 71 736 54 l 638 0 l 1090 0 l 1090 54 b 879 286 994 54 964 78 l 564 1069 l 504 1069 l 143 165 b -8 53 111 86 76 63 l -8 0 l 329 0 l 329 53 b 221 121 253 53 221 69 b 307 388 221 158 243 235 l 678 388 z m 497 867 l 651 457 l 335 457 z m 672 1333 b 531 1269 657 1294 600 1269 b 390 1333 461 1269 406 1294 l 340 1333 b 532 1174 344 1242 425 1174 b 724 1333 636 1174 717 1240 z "},"Ĕ":{"ha":1008,"x_min":0,"x_max":0,"o":"m 361 986 b 385 1010 361 1000 369 1010 l 561 1010 b 843 825 750 1010 821 972 l 892 825 l 879 1069 l 76 1069 l 76 1017 b 215 858 196 1011 215 988 l 215 211 b 63 53 215 81 193 57 l 63 0 l 925 0 l 946 274 l 893 274 b 592 60 857 110 788 60 b 361 218 417 60 361 97 l 361 532 b 624 368 569 531 624 479 l 672 368 l 672 747 l 624 747 b 361 588 624 635 561 588 z m 667 1333 b 525 1269 651 1294 594 1269 b 385 1333 456 1269 400 1294 l 335 1333 b 526 1174 339 1242 419 1174 b 718 1333 631 1174 711 1240 z "},"Ğ":{"ha":1208,"x_min":0,"x_max":0,"o":"m 594 -14 b 844 47 693 -14 781 11 b 1057 115 950 107 986 115 l 1057 271 b 1171 394 1057 367 1081 394 l 1171 447 l 776 447 l 776 394 b 915 257 875 394 915 365 b 632 61 915 154 811 61 b 269 525 399 61 269 228 b 628 1011 269 828 403 1011 b 925 750 778 1011 925 931 l 992 750 l 1010 1069 l 961 1069 l 932 983 b 615 1083 818 1054 726 1083 b 83 517 300 1083 83 853 b 594 -14 83 193 281 -14 z m 760 1333 b 618 1269 744 1294 688 1269 b 478 1333 549 1269 493 1294 l 428 1333 b 619 1174 432 1242 513 1174 b 811 1333 724 1174 804 1240 z "},"Ĭ":{"ha":576,"x_min":0,"x_max":0,"o":"m 361 807 b 499 1017 361 975 379 1013 l 499 1069 l 76 1069 l 76 1017 b 215 817 196 1011 215 974 l 215 253 b 63 53 215 81 193 57 l 63 0 l 513 0 l 513 53 b 361 263 382 57 361 79 z m 426 1333 b 285 1269 411 1294 354 1269 b 144 1333 215 1269 160 1294 l 94 1333 b 286 1174 99 1242 179 1174 b 478 1333 390 1174 471 1240 z "},"Ŏ":{"ha":1314,"x_min":0,"x_max":0,"o":"m 657 1083 b 79 526 332 1083 79 840 b 657 -14 79 225 335 -14 b 1235 526 979 -14 1235 225 b 657 1083 1235 840 982 1083 z m 657 63 b 260 522 413 63 260 240 b 657 1007 260 819 413 1007 b 1054 522 901 1007 1054 819 b 657 63 1054 240 900 63 z m 799 1333 b 657 1269 783 1294 726 1269 b 517 1333 588 1269 532 1294 l 467 1333 b 658 1174 471 1242 551 1174 b 850 1333 763 1174 843 1240 z "},"Ŭ":{"ha":1196,"x_min":0,"x_max":0,"o":"m 1003 711 b 1038 979 1003 864 1010 940 b 1156 1017 1060 1011 1097 1017 l 1156 1069 l 753 1069 l 753 1017 b 874 989 810 1017 849 1013 b 919 711 910 954 919 876 l 919 376 b 642 72 919 178 826 72 b 361 368 435 72 361 179 l 361 746 b 392 983 361 882 367 950 b 514 1017 414 1013 451 1017 l 514 1069 l 40 1069 l 40 1017 b 161 986 103 1017 139 1010 b 194 746 193 951 194 883 l 194 379 b 603 -14 194 88 329 -14 b 1003 431 893 -14 1003 138 z m 778 1333 b 636 1269 763 1294 706 1269 b 496 1333 567 1269 511 1294 l 446 1333 b 638 1174 450 1242 531 1174 b 829 1333 742 1174 822 1240 z "},"Â":{"ha":1072,"x_min":0,"x_max":0,"o":"m 735 238 b 767 114 760 174 767 150 b 638 54 767 71 736 54 l 638 0 l 1090 0 l 1090 54 b 879 286 994 54 964 78 l 564 1069 l 504 1069 l 143 165 b -8 53 111 86 76 63 l -8 0 l 329 0 l 329 53 b 221 121 253 53 221 69 b 307 388 221 158 243 235 l 678 388 z m 497 867 l 651 457 l 335 457 z m 456 1333 l 304 1182 l 367 1182 l 532 1257 l 697 1182 l 760 1182 l 608 1333 z "},"Ĉ":{"ha":1114,"x_min":0,"x_max":0,"o":"m 932 983 b 615 1083 818 1054 726 1083 b 83 517 300 1083 83 853 b 600 -14 83 193 286 -14 b 953 110 738 -14 854 26 l 985 0 l 1033 0 l 1033 346 l 976 346 b 632 61 926 158 808 61 b 269 525 399 61 269 228 b 628 1011 269 828 403 1011 b 957 750 792 1011 917 911 l 1008 750 l 996 1069 l 957 1069 z m 546 1333 l 394 1182 l 457 1182 l 622 1257 l 788 1182 l 850 1182 l 699 1333 z "},"Ê":{"ha":1008,"x_min":0,"x_max":0,"o":"m 361 986 b 385 1010 361 1000 369 1010 l 561 1010 b 843 825 750 1010 821 972 l 892 825 l 879 1069 l 76 1069 l 76 1017 b 215 858 196 1011 215 988 l 215 211 b 63 53 215 81 193 57 l 63 0 l 925 0 l 946 274 l 893 274 b 592 60 857 110 788 60 b 361 218 417 60 361 97 l 361 532 b 624 368 569 531 624 479 l 672 368 l 672 747 l 624 747 b 361 588 624 635 561 588 z m 450 1333 l 299 1182 l 361 1182 l 526 1257 l 692 1182 l 754 1182 l 603 1333 z "},"Ĝ":{"ha":1208,"x_min":0,"x_max":0,"o":"m 594 -14 b 844 47 693 -14 781 11 b 1057 115 950 107 986 115 l 1057 271 b 1171 394 1057 367 1081 394 l 1171 447 l 776 447 l 776 394 b 915 257 875 394 915 365 b 632 61 915 154 811 61 b 269 525 399 61 269 228 b 628 1011 269 828 403 1011 b 925 750 778 1011 925 931 l 992 750 l 1010 1069 l 961 1069 l 932 983 b 615 1083 818 1054 726 1083 b 83 517 300 1083 83 853 b 594 -14 83 193 281 -14 z m 543 1333 l 392 1182 l 454 1182 l 619 1257 l 785 1182 l 847 1182 l 696 1333 z "},"Ĥ":{"ha":1285,"x_min":0,"x_max":0,"o":"m 1069 849 b 1207 1017 1069 989 1088 1013 l 1207 1069 l 785 1069 l 785 1017 b 924 858 904 1011 924 988 l 924 582 l 361 582 l 361 849 b 499 1017 361 989 379 1013 l 499 1069 l 76 1069 l 76 1017 b 215 858 196 1011 215 988 l 215 211 b 63 53 215 81 193 57 l 63 0 l 513 0 l 513 53 b 361 221 382 57 361 79 l 361 513 l 924 513 l 924 211 b 771 53 924 81 901 57 l 771 0 l 1221 0 l 1221 53 b 1069 221 1090 57 1069 79 z m 568 1333 l 417 1182 l 479 1182 l 644 1257 l 810 1182 l 872 1182 l 721 1333 z "},"Î":{"ha":576,"x_min":0,"x_max":0,"o":"m 361 807 b 499 1017 361 975 379 1013 l 499 1069 l 76 1069 l 76 1017 b 215 817 196 1011 215 974 l 215 253 b 63 53 215 81 193 57 l 63 0 l 513 0 l 513 53 b 361 263 382 57 361 79 z m 210 1333 l 58 1182 l 121 1182 l 286 1257 l 451 1182 l 514 1182 l 363 1333 z "},"Ĵ":{"ha":547,"x_min":0,"x_max":0,"o":"m 201 -60 b 83 -294 201 -208 158 -294 b -3 -218 47 -294 29 -278 b -82 -153 -31 -167 -47 -153 b -153 -226 -126 -153 -153 -179 b 58 -361 -153 -307 -68 -361 b 347 -3 246 -361 347 -235 l 347 849 b 485 1017 347 989 365 1013 l 485 1069 l 63 1069 l 63 1017 b 201 858 182 1011 201 988 z m 200 1333 l 49 1182 l 111 1182 l 276 1257 l 442 1182 l 504 1182 l 353 1333 z "},"Ô":{"ha":1314,"x_min":0,"x_max":0,"o":"m 657 1083 b 79 526 332 1083 79 840 b 657 -14 79 225 335 -14 b 1235 526 979 -14 1235 225 b 657 1083 1235 840 982 1083 z m 657 63 b 260 522 413 63 260 240 b 657 1007 260 819 413 1007 b 1054 522 901 1007 1054 819 b 657 63 1054 240 900 63 z m 582 1333 l 431 1182 l 493 1182 l 658 1257 l 824 1182 l 886 1182 l 735 1333 z "},"Ŝ":{"ha":896,"x_min":0,"x_max":0,"o":"m 101 15 l 133 15 l 172 83 b 443 -14 258 14 338 -14 b 821 301 667 -14 821 115 b 468 647 821 447 743 524 b 256 858 310 718 256 771 b 440 1013 256 951 328 1013 b 689 788 558 1013 644 939 l 740 788 l 725 1064 l 693 1064 l 657 1001 b 436 1083 585 1058 517 1083 b 125 789 254 1083 125 961 b 426 468 125 646 196 569 b 669 238 614 386 669 332 b 447 57 669 128 583 57 b 132 326 281 57 158 158 l 81 326 z m 363 1333 l 211 1182 l 274 1182 l 439 1257 l 604 1182 l 667 1182 l 515 1333 z "},"Û":{"ha":1196,"x_min":0,"x_max":0,"o":"m 1003 711 b 1038 979 1003 864 1010 940 b 1156 1017 1060 1011 1097 1017 l 1156 1069 l 753 1069 l 753 1017 b 874 989 810 1017 849 1013 b 919 711 910 954 919 876 l 919 376 b 642 72 919 178 826 72 b 361 368 435 72 361 179 l 361 746 b 392 983 361 882 367 950 b 514 1017 414 1013 451 1017 l 514 1069 l 40 1069 l 40 1017 b 161 986 103 1017 139 1010 b 194 746 193 951 194 883 l 194 379 b 603 -14 194 88 329 -14 b 1003 431 893 -14 1003 138 z m 561 1333 l 410 1182 l 472 1182 l 638 1257 l 803 1182 l 865 1182 l 714 1333 z "},"Ŵ":{"ha":1633,"x_min":0,"x_max":0,"o":"m 972 833 b 943 960 954 894 943 932 b 1069 1015 943 1001 963 1015 l 1069 1069 l 644 1069 l 644 1015 b 782 879 697 1015 732 986 b 714 694 767 829 739 767 l 543 214 l 332 857 b 310 954 318 899 310 931 b 438 1015 310 1001 343 1015 l 438 1069 l -15 1069 l -15 1015 b 196 783 97 1015 131 963 l 485 -14 l 533 -14 l 829 776 l 1096 -14 l 1144 -14 l 1493 904 b 1644 1017 1522 983 1560 1017 l 1644 1069 l 1307 1069 l 1307 1017 b 1411 954 1383 1017 1411 1001 b 1375 813 1411 922 1401 885 l 1158 210 z m 778 1333 l 626 1182 l 689 1182 l 854 1257 l 1019 1182 l 1082 1182 l 931 1333 z "},"Ŷ":{"ha":1018,"x_min":0,"x_max":0,"o":"m 436 422 l 436 253 b 283 53 436 83 415 53 l 283 0 l 733 0 l 733 53 b 582 263 600 53 582 82 l 582 428 l 796 789 b 1024 1017 910 981 946 1017 l 1024 1069 l 706 1069 l 706 1017 b 796 969 772 1017 796 1004 b 714 782 796 935 772 881 l 557 518 l 551 518 l 336 886 b 304 969 314 924 304 951 b 431 1017 304 1004 339 1017 l 431 1069 l -7 1069 l -7 1017 b 158 897 69 1017 101 993 z m 490 1333 l 339 1182 l 401 1182 l 567 1257 l 732 1182 l 794 1182 l 643 1333 z "},"Č":{"ha":1114,"x_min":0,"x_max":0,"o":"m 932 983 b 615 1083 818 1054 726 1083 b 83 517 300 1083 83 853 b 600 -14 83 193 286 -14 b 953 110 738 -14 854 26 l 985 0 l 1033 0 l 1033 346 l 976 346 b 632 61 926 158 808 61 b 269 525 399 61 269 228 b 628 1011 269 828 403 1011 b 957 750 792 1011 917 911 l 1008 750 l 996 1069 l 957 1069 z m 699 1182 l 850 1333 l 788 1333 l 622 1258 l 457 1333 l 394 1333 l 546 1182 z "},"Ě":{"ha":1008,"x_min":0,"x_max":0,"o":"m 361 986 b 385 1010 361 1000 369 1010 l 561 1010 b 843 825 750 1010 821 972 l 892 825 l 879 1069 l 76 1069 l 76 1017 b 215 858 196 1011 215 988 l 215 211 b 63 53 215 81 193 57 l 63 0 l 925 0 l 946 274 l 893 274 b 592 60 857 110 788 60 b 361 218 417 60 361 97 l 361 532 b 624 368 569 531 624 479 l 672 368 l 672 747 l 624 747 b 361 588 624 635 561 588 z m 603 1182 l 754 1333 l 692 1333 l 526 1258 l 361 1333 l 299 1333 l 450 1182 z "},"Ľ":{"ha":1010,"x_min":0,"x_max":0,"o":"m 981 274 l 928 274 b 608 63 888 101 821 63 b 361 250 417 63 361 94 l 361 849 b 499 1017 361 989 379 1013 l 499 1069 l 76 1069 l 76 1017 b 215 858 196 1011 215 988 l 215 211 b 63 53 215 81 193 57 l 63 0 l 960 0 z m 363 1182 l 514 1333 l 451 1333 l 286 1258 l 121 1333 l 58 1333 l 210 1182 z "},"Ň":{"ha":1253,"x_min":0,"x_max":0,"o":"m 1047 -14 l 1047 817 b 1200 1017 1047 989 1069 1013 l 1200 1069 l 826 1069 l 826 1017 b 964 807 944 1013 964 990 l 964 260 l 958 260 l 351 1069 l 76 1069 l 76 1017 b 215 817 196 1011 215 974 l 215 253 b 63 53 215 81 193 57 l 63 0 l 436 0 l 436 53 b 299 263 318 57 299 79 l 299 856 l 304 856 l 964 -14 z m 721 1182 l 872 1333 l 810 1333 l 644 1258 l 479 1333 l 417 1333 l 568 1182 z "},"Ř":{"ha":1094,"x_min":0,"x_max":0,"o":"m 914 801 b 513 1069 914 969 767 1069 l 76 1069 l 76 1017 b 215 858 196 1011 215 988 l 215 211 b 63 53 215 81 193 57 l 63 0 l 553 0 l 553 53 b 361 218 385 53 361 81 l 361 507 b 524 436 447 507 475 500 l 864 0 l 1132 0 l 1132 53 b 942 149 1050 65 992 88 l 635 518 b 914 801 829 551 914 654 z m 361 981 b 385 1004 361 994 369 1004 l 513 1004 b 733 794 664 1004 733 943 b 460 576 733 640 643 576 l 361 576 z m 597 1182 l 749 1333 l 686 1333 l 521 1258 l 356 1333 l 293 1333 l 444 1182 z "},"Š":{"ha":896,"x_min":0,"x_max":0,"o":"m 101 15 l 133 15 l 172 83 b 443 -14 258 14 338 -14 b 821 301 667 -14 821 115 b 468 647 821 447 743 524 b 256 858 310 718 256 771 b 440 1013 256 951 328 1013 b 689 788 558 1013 644 939 l 740 788 l 725 1064 l 693 1064 l 657 1001 b 436 1083 585 1058 517 1083 b 125 789 254 1083 125 961 b 426 468 125 646 196 569 b 669 238 614 386 669 332 b 447 57 669 128 583 57 b 132 326 281 57 158 158 l 81 326 z m 515 1182 l 667 1333 l 604 1333 l 439 1258 l 274 1333 l 211 1333 l 363 1182 z "},"Ť":{"ha":1115,"x_min":0,"x_max":0,"o":"m 1078 1069 l 29 1069 l 29 804 l 81 804 b 339 1010 86 1001 194 1010 b 475 967 457 1010 475 999 l 475 224 b 294 53 475 104 451 58 l 294 0 l 819 0 l 819 53 b 640 224 663 58 640 104 l 640 967 b 797 1010 640 999 660 1010 b 1035 804 958 1010 1022 965 l 1092 804 z m 635 1182 l 786 1333 l 724 1333 l 558 1258 l 393 1333 l 331 1333 l 482 1182 z "},"Ž":{"ha":1069,"x_min":0,"x_max":0,"o":"m 1003 326 l 943 326 b 679 64 910 110 869 64 l 249 64 l 972 1064 l 972 1069 l 126 1069 l 106 814 l 157 814 b 372 1011 182 958 242 1011 l 753 1011 l 22 6 l 22 0 l 986 0 z m 619 1182 l 771 1333 l 708 1333 l 543 1258 l 378 1333 l 315 1333 l 467 1182 z "},"Ǆ":{"ha":2297,"x_min":0,"x_max":0,"o":"m 596 0 b 1146 517 919 0 1146 213 b 568 1069 1146 836 903 1069 l 81 1069 l 81 1017 b 219 858 200 1011 219 988 l 219 211 b 53 53 219 79 194 57 l 53 0 z m 565 1001 b 965 514 813 1001 965 821 b 572 68 965 222 824 68 b 365 226 432 68 365 119 l 365 978 b 389 1001 365 992 374 1001 z m 2231 326 l 2171 326 b 1907 64 2138 110 2097 64 l 1476 64 l 2200 1064 l 2200 1069 l 1354 1069 l 1333 814 l 1385 814 b 1600 1011 1410 958 1469 1011 l 1981 1011 l 1250 6 l 1250 0 l 2214 0 z m 1847 1182 l 1999 1333 l 1936 1333 l 1771 1258 l 1606 1333 l 1543 1333 l 1694 1182 z "},"ǅ":{"ha":2001,"x_min":0,"x_max":0,"o":"m 596 0 b 1146 517 919 0 1146 213 b 568 1069 1146 836 903 1069 l 81 1069 l 81 1017 b 219 858 200 1011 219 988 l 219 211 b 53 53 219 79 194 57 l 53 0 z m 565 1001 b 965 514 813 1001 965 821 b 572 68 965 222 824 68 b 365 226 432 68 365 119 l 365 978 b 389 1001 365 992 374 1001 z m 1943 215 l 1897 215 b 1626 64 1864 88 1817 64 l 1464 64 l 1938 731 l 1938 736 l 1340 736 l 1318 544 l 1363 544 b 1579 678 1382 658 1421 678 l 1733 678 l 1253 6 l 1253 0 l 1919 0 z m 1689 904 l 1854 1083 l 1792 1083 l 1626 989 l 1461 1083 l 1399 1083 l 1564 904 z "},"ǆ":{"ha":1711,"x_min":0,"x_max":0,"o":"m 672 -14 l 903 1 l 903 49 b 790 106 817 49 801 61 b 781 351 782 140 781 224 l 781 1153 l 496 1100 l 496 1058 b 639 1003 592 1058 629 1043 b 647 799 644 978 647 903 l 647 657 b 428 750 583 721 515 750 b 67 369 219 750 67 589 b 428 -14 67 146 218 -14 b 667 117 529 -14 600 24 l 672 117 z m 644 332 b 608 140 644 232 635 181 b 428 53 572 85 493 53 b 224 376 294 53 224 181 b 428 683 224 564 296 683 b 607 599 492 683 565 654 b 644 424 636 561 644 521 z m 1653 215 l 1607 215 b 1336 64 1574 88 1526 64 l 1174 64 l 1647 731 l 1647 736 l 1050 736 l 1028 544 l 1072 544 b 1289 678 1092 658 1131 678 l 1443 678 l 963 6 l 963 0 l 1629 0 z m 1399 904 l 1564 1083 l 1501 1083 l 1336 989 l 1171 1083 l 1108 1083 l 1274 904 z "},"˚":{"ha":297,"x_min":0,"x_max":0,"o":"m 28 1031 b 147 911 28 963 79 911 b 269 1031 218 911 269 963 b 147 1153 269 1101 218 1153 b 28 1031 79 1153 28 1101 z m 82 1031 b 147 1093 82 1067 110 1093 b 210 1031 183 1093 210 1067 b 147 965 210 993 183 965 b 82 1031 110 965 82 993 z "},"å":{"ha":769,"x_min":0,"x_max":0,"o":"m 485 301 b 311 71 485 175 407 71 b 200 175 244 71 200 114 b 485 411 200 257 272 331 z m 285 383 b 60 151 117 311 60 240 b 247 -12 60 53 132 -12 b 489 135 350 -12 440 44 l 496 135 b 617 -14 496 40 536 -14 b 771 61 682 -14 749 18 l 751 94 b 683 64 735 67 708 64 b 621 222 642 64 621 115 l 621 533 b 365 750 621 692 551 750 b 93 610 192 750 93 699 b 163 540 93 565 118 540 b 235 607 199 540 214 554 b 340 697 258 679 276 697 b 485 528 439 697 485 643 l 485 471 z m 258 1031 b 378 911 258 963 310 911 b 500 1031 449 911 500 963 b 378 1153 500 1101 449 1153 b 258 1031 310 1153 258 1101 z m 313 1031 b 378 1093 313 1067 340 1093 b 440 1031 414 1093 440 1067 b 378 965 440 993 414 965 b 313 1031 340 965 313 993 z "},"ů":{"ha":931,"x_min":0,"x_max":0,"o":"m 643 378 b 619 229 643 299 638 272 b 429 69 574 122 508 69 b 281 357 326 69 281 157 l 281 736 l 29 736 l 29 688 b 144 514 136 678 144 665 l 144 293 b 189 68 144 179 158 108 b 385 -14 226 18 307 -14 b 650 151 485 -14 579 38 l 656 151 l 671 -15 l 900 1 l 900 50 b 788 106 815 50 796 58 b 779 310 782 139 779 204 l 779 736 l 528 736 l 528 688 b 643 514 635 676 643 665 z m 328 1031 b 447 911 328 963 379 911 b 569 1031 518 911 569 963 b 447 1153 569 1101 518 1153 b 328 1031 379 1153 328 1101 z m 382 1031 b 447 1093 382 1067 410 1093 b 510 1031 483 1093 510 1067 b 447 965 510 993 483 965 b 382 1031 410 965 382 993 z "},"Å":{"ha":1072,"x_min":0,"x_max":0,"o":"m 735 238 b 767 114 760 174 767 150 b 638 54 767 71 736 54 l 638 0 l 1090 0 l 1090 54 b 879 286 994 54 964 78 l 564 1069 l 504 1069 l 143 165 b -8 53 111 86 76 63 l -8 0 l 329 0 l 329 53 b 221 121 253 53 221 69 b 307 388 221 158 243 235 l 678 388 z m 497 867 l 651 457 l 335 457 z m 442 1243 b 532 1153 442 1192 481 1153 b 622 1243 583 1153 622 1192 b 532 1333 622 1294 583 1333 b 442 1243 481 1333 442 1294 z m 485 1243 b 532 1289 485 1269 504 1289 b 578 1243 558 1289 578 1269 b 532 1196 578 1215 558 1196 b 485 1243 504 1196 485 1215 z "},"Ů":{"ha":1196,"x_min":0,"x_max":0,"o":"m 1003 711 b 1038 979 1003 864 1010 940 b 1156 1017 1060 1011 1097 1017 l 1156 1069 l 753 1069 l 753 1017 b 874 989 810 1017 849 1013 b 919 711 910 954 919 876 l 919 376 b 642 72 919 178 826 72 b 361 368 435 72 361 179 l 361 746 b 392 983 361 882 367 950 b 514 1017 414 1013 451 1017 l 514 1069 l 40 1069 l 40 1017 b 161 986 103 1017 139 1010 b 194 746 193 951 194 883 l 194 379 b 603 -14 194 88 329 -14 b 1003 431 893 -14 1003 138 z m 547 1243 b 638 1153 547 1192 586 1153 b 728 1243 689 1153 728 1192 b 638 1333 728 1294 689 1333 b 547 1243 586 1333 547 1294 z m 590 1243 b 638 1289 590 1269 610 1289 b 683 1243 664 1289 683 1269 b 638 1196 683 1215 664 1196 b 590 1243 610 1196 590 1215 z "},"ǻ":{"ha":769,"x_min":0,"x_max":0,"o":"m 254 1025 b 257 996 254 1015 256 1006 l 174 918 l 249 918 l 293 939 b 364 915 313 924 336 915 b 475 1025 428 915 475 964 b 472 1047 475 1032 474 1040 b 532 1117 510 1068 532 1092 b 492 1153 532 1139 515 1153 b 426 1121 469 1153 450 1144 b 364 1139 410 1132 388 1139 b 254 1025 301 1139 254 1092 z m 306 1025 b 364 1083 306 1060 329 1083 b 422 1025 399 1083 422 1060 b 364 968 422 992 399 968 b 306 1025 329 968 306 992 z m 485 301 b 311 71 485 175 407 71 b 200 175 244 71 200 114 b 485 411 200 257 272 331 z m 285 383 b 60 151 117 311 60 240 b 247 -12 60 53 132 -12 b 489 135 350 -12 440 44 l 496 135 b 617 -14 496 40 536 -14 b 771 61 682 -14 749 18 l 751 94 b 683 64 735 67 708 64 b 621 222 642 64 621 115 l 621 533 b 365 750 621 692 551 750 b 93 610 192 750 93 699 b 163 540 93 565 118 540 b 235 607 199 540 214 554 b 340 697 258 679 276 697 b 485 528 439 697 485 643 l 485 471 z "},"Ǻ":{"ha":1076,"x_min":0,"x_max":0,"o":"m 736 238 b 768 122 757 189 768 151 b 639 54 768 74 732 54 l 639 0 l 1092 0 l 1092 54 b 918 197 1011 54 964 92 l 565 1000 l 506 1000 l 144 165 b -7 53 111 88 71 53 l -7 0 l 331 0 l 331 53 b 221 124 256 53 221 72 b 251 240 221 153 228 181 l 310 388 l 672 388 z m 499 825 l 643 457 l 342 457 z m 417 1219 b 419 1190 417 1210 418 1200 l 336 1113 l 411 1113 l 456 1133 b 526 1110 475 1118 499 1110 b 638 1219 590 1110 638 1158 b 635 1242 638 1226 636 1235 b 694 1311 672 1263 694 1286 b 654 1347 694 1333 678 1347 b 589 1315 632 1347 613 1339 b 526 1333 572 1326 550 1333 b 417 1219 464 1333 417 1286 z m 468 1219 b 526 1278 468 1254 492 1278 b 585 1219 561 1278 585 1254 b 526 1163 585 1186 561 1163 b 468 1219 492 1163 468 1186 z "},"Ď":{"ha":1228,"x_min":0,"x_max":0,"o":"m 596 0 b 1146 517 919 0 1146 213 b 568 1069 1146 836 903 1069 l 81 1069 l 81 1017 b 219 858 200 1011 219 988 l 219 211 b 53 53 219 79 194 57 l 53 0 z m 565 1001 b 965 514 813 1001 965 821 b 572 68 965 222 824 68 b 365 226 432 68 365 119 l 365 978 b 389 1001 365 992 374 1001 z m 692 1182 l 843 1333 l 781 1333 l 615 1258 l 450 1333 l 388 1333 l 539 1182 z "},"¯":{"ha":431,"x_min":0,"x_max":0,"o":"m 403 975 l 403 1044 l 28 1044 l 28 975 z "},"ā":{"ha":769,"x_min":0,"x_max":0,"o":"m 485 301 b 311 71 485 175 407 71 b 200 175 244 71 200 114 b 485 411 200 257 272 331 z m 285 383 b 60 151 117 311 60 240 b 247 -12 60 53 132 -12 b 489 135 350 -12 440 44 l 496 135 b 617 -14 496 40 536 -14 b 771 61 682 -14 749 18 l 751 94 b 683 64 735 67 708 64 b 621 222 642 64 621 115 l 621 533 b 365 750 621 692 551 750 b 93 610 192 750 93 699 b 163 540 93 565 118 540 b 235 607 199 540 214 554 b 340 697 258 679 276 697 b 485 528 439 697 485 643 l 485 471 z m 556 975 l 556 1044 l 181 1044 l 181 975 z "},"ū":{"ha":931,"x_min":0,"x_max":0,"o":"m 643 378 b 619 229 643 299 638 272 b 429 69 574 122 508 69 b 281 357 326 69 281 157 l 281 736 l 29 736 l 29 688 b 144 514 136 678 144 665 l 144 293 b 189 68 144 179 158 108 b 385 -14 226 18 307 -14 b 650 151 485 -14 579 38 l 656 151 l 671 -15 l 900 1 l 900 50 b 788 106 815 50 796 58 b 779 310 782 139 779 204 l 779 736 l 528 736 l 528 688 b 643 514 635 676 643 665 z m 622 975 l 622 1044 l 247 1044 l 247 975 z "},"ō":{"ha":908,"x_min":0,"x_max":0,"o":"m 451 750 b 67 374 243 750 67 593 b 451 -14 67 147 243 -14 b 842 374 663 -14 842 149 b 451 750 842 592 663 750 z m 451 683 b 685 372 592 683 685 557 b 451 57 685 182 593 57 b 224 372 313 57 224 181 b 451 683 224 558 314 683 z m 639 975 l 639 1044 l 264 1044 l 264 975 z "},"ē":{"ha":796,"x_min":0,"x_max":0,"o":"m 682 168 b 471 58 613 92 547 58 b 225 378 322 58 225 185 b 231 440 225 403 226 425 l 688 440 b 731 468 725 440 731 443 b 449 750 731 649 626 750 b 68 360 225 750 68 588 b 432 -14 68 138 215 -14 b 725 129 550 -14 644 32 z m 240 504 b 426 683 264 622 328 683 b 579 543 519 683 579 628 b 496 504 579 510 571 504 z m 622 975 l 622 1044 l 247 1044 l 247 975 z "},"ī":{"ha":474,"x_min":0,"x_max":0,"o":"m 317 750 l 44 697 l 44 646 b 171 589 136 646 163 633 b 181 386 178 564 181 493 l 181 214 b 47 51 181 83 160 57 l 47 0 l 446 0 l 446 51 b 317 225 336 56 317 81 z m 438 975 l 438 1044 l 63 1044 l 63 975 z "},"Ā":{"ha":1072,"x_min":0,"x_max":0,"o":"m 735 238 b 767 114 760 174 767 150 b 638 54 767 71 736 54 l 638 0 l 1090 0 l 1090 54 b 879 286 994 54 964 78 l 564 1069 l 504 1069 l 143 165 b -8 53 111 86 76 63 l -8 0 l 329 0 l 329 53 b 221 121 253 53 221 69 b 307 388 221 158 243 235 l 678 388 z m 497 867 l 651 457 l 335 457 z m 719 1222 l 719 1292 l 344 1292 l 344 1222 z "},"Ē":{"ha":1008,"x_min":0,"x_max":0,"o":"m 361 986 b 385 1010 361 1000 369 1010 l 561 1010 b 843 825 750 1010 821 972 l 892 825 l 879 1069 l 76 1069 l 76 1017 b 215 858 196 1011 215 988 l 215 211 b 63 53 215 81 193 57 l 63 0 l 925 0 l 946 274 l 893 274 b 592 60 857 110 788 60 b 361 218 417 60 361 97 l 361 532 b 624 368 569 531 624 479 l 672 368 l 672 747 l 624 747 b 361 588 624 635 561 588 z m 714 1222 l 714 1292 l 339 1292 l 339 1222 z "},"Ī":{"ha":576,"x_min":0,"x_max":0,"o":"m 361 807 b 499 1017 361 975 379 1013 l 499 1069 l 76 1069 l 76 1017 b 215 817 196 1011 215 974 l 215 253 b 63 53 215 81 193 57 l 63 0 l 513 0 l 513 53 b 361 263 382 57 361 79 z m 474 1222 l 474 1292 l 99 1292 l 99 1222 z "},"Ō":{"ha":1314,"x_min":0,"x_max":0,"o":"m 657 1083 b 79 526 332 1083 79 840 b 657 -14 79 225 335 -14 b 1235 526 979 -14 1235 225 b 657 1083 1235 840 982 1083 z m 657 63 b 260 522 413 63 260 240 b 657 1007 260 819 413 1007 b 1054 522 901 1007 1054 819 b 657 63 1054 240 900 63 z m 846 1222 l 846 1292 l 471 1292 l 471 1222 z "},"Ū":{"ha":1196,"x_min":0,"x_max":0,"o":"m 1003 711 b 1038 979 1003 864 1010 940 b 1156 1017 1060 1011 1097 1017 l 1156 1069 l 753 1069 l 753 1017 b 874 989 810 1017 849 1013 b 919 711 910 954 919 876 l 919 376 b 642 72 919 178 826 72 b 361 368 435 72 361 179 l 361 746 b 392 983 361 882 367 950 b 514 1017 414 1013 451 1017 l 514 1069 l 40 1069 l 40 1017 b 161 986 103 1017 139 1010 b 194 746 193 951 194 883 l 194 379 b 603 -14 194 88 329 -14 b 1003 431 893 -14 1003 138 z m 825 1222 l 825 1292 l 450 1292 l 450 1222 z "},"^":{"ha":667,"x_min":0,"x_max":0,"o":"m 271 568 l 106 319 l 168 319 l 333 483 l 499 319 l 561 319 l 396 568 z "},"¸":{"ha":322,"x_min":0,"x_max":0,"o":"m 214 17 l 140 17 l 67 -153 l 71 -160 b 119 -157 85 -158 106 -157 b 229 -232 190 -157 229 -183 b 160 -301 229 -274 200 -301 b 97 -250 129 -301 114 -289 b 51 -206 81 -215 71 -206 b 8 -256 25 -206 8 -224 b 168 -361 8 -318 74 -361 b 343 -219 275 -361 343 -307 b 171 -100 343 -139 286 -100 z "},"ç":{"ha":744,"x_min":0,"x_max":0,"o":"m 661 156 b 447 58 592 88 524 58 b 226 383 304 58 226 172 b 426 685 226 581 296 685 b 546 626 481 685 510 669 b 631 569 581 579 597 569 b 699 628 672 569 699 592 b 454 750 699 700 597 750 b 68 363 224 750 68 599 b 357 -11 68 154 185 10 l 296 -153 l 300 -160 b 349 -157 314 -158 335 -157 b 458 -232 419 -157 458 -183 b 389 -301 458 -274 429 -301 b 326 -250 358 -301 343 -289 b 281 -206 310 -215 300 -206 b 238 -256 254 -206 238 -224 b 397 -361 238 -318 303 -361 b 572 -219 504 -361 572 -307 b 400 -100 572 -139 515 -100 l 432 -12 b 703 115 542 -6 642 40 z "},"Ç":{"ha":1114,"x_min":0,"x_max":0,"o":"m 932 983 b 615 1083 818 1054 726 1083 b 83 517 300 1083 83 853 b 551 -12 83 210 265 7 l 490 -153 l 494 -160 b 543 -157 508 -158 529 -157 b 653 -232 614 -157 653 -183 b 583 -301 653 -274 624 -301 b 521 -250 553 -301 538 -289 b 475 -206 504 -215 494 -206 b 432 -256 449 -206 432 -224 b 592 -361 432 -318 497 -361 b 767 -219 699 -361 767 -307 b 594 -100 767 -139 710 -100 l 626 -12 b 953 110 751 -8 860 32 l 985 0 l 1033 0 l 1033 346 l 976 346 b 632 61 926 158 808 61 b 269 525 399 61 269 228 b 628 1011 269 828 403 1011 b 957 750 792 1011 917 911 l 1008 750 l 996 1069 l 957 1069 z "},"ş":{"ha":631,"x_min":0,"x_max":0,"o":"m 147 49 b 282 -10 185 18 231 -1 l 221 -153 l 225 -160 b 274 -157 239 -158 260 -157 b 383 -232 344 -157 383 -183 b 314 -301 383 -274 354 -301 b 251 -250 283 -301 268 -289 b 206 -206 235 -215 225 -206 b 163 -256 179 -206 163 -224 b 322 -361 163 -318 228 -361 b 497 -219 429 -361 497 -307 b 325 -100 497 -139 440 -100 l 357 -12 b 565 197 481 -4 565 74 b 343 450 565 303 503 350 b 207 599 249 508 207 538 b 311 693 207 658 249 693 b 467 536 382 693 426 649 l 503 536 l 503 736 l 476 736 l 449 707 b 300 750 408 733 350 750 b 93 536 183 750 93 663 b 281 308 93 432 156 388 b 442 153 417 224 442 207 b 321 43 442 79 394 43 b 124 239 224 43 160 107 l 89 239 l 89 0 l 119 0 z "},"ţ":{"ha":525,"x_min":0,"x_max":0,"o":"m 139 649 l 139 156 b 243 -1 139 75 175 21 l 178 -153 l 182 -160 b 231 -157 196 -158 217 -157 b 340 -232 301 -157 340 -183 b 271 -301 340 -274 311 -301 b 208 -250 240 -301 225 -289 b 163 -206 192 -215 182 -206 b 119 -256 136 -206 119 -224 b 279 -361 119 -318 185 -361 b 454 -219 386 -361 454 -307 b 282 -100 454 -139 397 -100 l 314 -14 l 326 -14 b 513 92 421 -14 486 24 l 478 118 b 371 54 447 72 417 54 b 275 226 297 54 275 96 l 275 649 l 461 649 l 461 714 l 275 714 l 275 889 l 235 889 b 56 700 206 810 154 758 l 56 649 z "},"Ş":{"ha":896,"x_min":0,"x_max":0,"o":"m 101 15 l 133 15 l 172 83 b 394 -11 244 25 311 -4 l 333 -153 l 338 -160 b 386 -157 351 -158 372 -157 b 496 -232 457 -157 496 -183 b 426 -301 496 -274 467 -301 b 364 -250 396 -301 381 -289 b 318 -206 347 -215 338 -206 b 275 -256 292 -206 275 -224 b 435 -361 275 -318 340 -361 b 610 -219 542 -361 610 -307 b 438 -100 610 -139 553 -100 l 469 -12 b 821 301 678 -3 821 122 b 468 647 821 447 743 524 b 256 858 310 718 256 771 b 440 1013 256 951 328 1013 b 689 788 558 1013 644 939 l 740 788 l 725 1064 l 693 1064 l 657 1001 b 436 1083 585 1058 517 1083 b 125 789 254 1083 125 961 b 426 468 125 646 196 569 b 669 238 614 386 669 332 b 447 57 669 128 583 57 b 132 326 281 57 158 158 l 81 326 z "},"Ţ":{"ha":1115,"x_min":0,"x_max":0,"o":"m 1078 1069 l 29 1069 l 29 804 l 81 804 b 339 1010 86 1001 194 1010 b 475 967 457 1010 475 999 l 475 224 b 294 53 475 104 451 58 l 294 0 l 514 0 l 447 -153 l 451 -160 b 500 -157 465 -158 486 -157 b 610 -232 571 -157 610 -183 b 540 -301 610 -274 581 -301 b 478 -250 510 -301 494 -289 b 432 -206 461 -215 451 -206 b 389 -256 406 -206 389 -224 b 549 -361 389 -318 454 -361 b 724 -219 656 -361 724 -307 b 551 -100 724 -139 667 -100 l 588 0 l 819 0 l 819 53 b 640 224 663 58 640 104 l 640 967 b 797 1010 640 999 660 1010 b 1035 804 958 1010 1022 965 l 1092 804 z "},"˛":{"ha":368,"x_min":0,"x_max":0,"o":"m 313 -168 b 181 -242 264 -218 215 -242 b 110 -175 136 -242 110 -212 b 281 10 110 -117 181 -39 l 281 15 l 207 15 b 0 -207 76 -36 0 -119 b 135 -325 0 -281 50 -325 b 353 -211 215 -325 288 -296 z "},"ą":{"ha":771,"x_min":0,"x_max":0,"o":"m 701 -168 b 569 -242 653 -218 604 -242 b 499 -175 525 -242 499 -212 b 626 -14 499 -125 549 -61 b 771 61 688 -11 750 19 l 751 94 b 683 64 735 67 708 64 b 621 222 642 64 621 115 l 621 533 b 365 750 621 692 551 750 b 93 610 192 750 93 699 b 163 540 93 565 118 540 b 235 607 199 540 214 554 b 340 697 258 679 276 697 b 485 528 439 697 485 643 l 485 471 l 285 383 b 60 151 117 311 60 240 b 247 -12 60 53 132 -12 b 489 135 350 -12 440 44 l 496 135 b 557 -1 496 67 515 19 b 389 -207 450 -53 389 -128 b 524 -325 389 -281 439 -325 b 742 -211 604 -325 676 -296 z m 485 301 b 311 71 485 175 407 71 b 200 175 244 71 200 114 b 485 411 200 257 272 331 z "},"į":{"ha":474,"x_min":0,"x_max":0,"o":"m 331 -168 b 199 -242 282 -218 233 -242 b 128 -175 154 -242 128 -212 b 279 0 128 -121 189 -49 l 446 0 l 446 49 b 317 221 336 53 317 78 l 317 750 l 44 697 l 44 649 b 171 593 136 649 163 636 b 181 389 178 568 181 496 l 181 211 b 47 49 181 81 160 54 l 47 0 l 189 0 b 18 -207 81 -51 18 -128 b 153 -325 18 -281 68 -325 b 371 -211 233 -325 306 -296 z m 157 1032 b 243 946 157 983 194 946 b 329 1032 292 946 329 983 b 243 1118 329 1081 292 1118 b 157 1032 194 1118 157 1081 z "},"ų":{"ha":931,"x_min":0,"x_max":0,"o":"m 840 -168 b 708 -242 792 -218 743 -242 b 638 -175 664 -242 638 -212 b 775 -7 638 -122 693 -56 l 900 1 l 900 50 b 788 106 815 50 796 58 b 779 310 782 139 779 204 l 779 736 l 528 736 l 528 688 b 643 514 635 676 643 665 l 643 378 b 619 229 643 299 638 272 b 429 69 574 122 508 69 b 281 357 326 69 281 157 l 281 736 l 29 736 l 29 688 b 144 514 136 678 144 665 l 144 293 b 189 68 144 179 158 108 b 385 -14 226 18 307 -14 b 650 151 485 -14 579 38 l 656 151 l 671 -14 b 528 -207 579 -65 528 -135 b 663 -325 528 -281 578 -325 b 881 -211 743 -325 815 -296 z "},"ǫ":{"ha":907,"x_min":0,"x_max":0,"o":"m 575 -168 b 443 -242 526 -218 478 -242 b 372 -175 399 -242 372 -212 b 506 -10 372 -124 425 -57 b 842 374 693 15 842 168 b 451 750 842 592 663 750 b 67 374 243 750 67 593 b 411 -11 67 161 221 7 b 263 -207 317 -62 263 -133 b 397 -325 263 -281 313 -325 b 615 -211 478 -325 550 -296 z m 451 683 b 685 372 592 683 685 557 b 451 57 685 182 593 57 b 224 372 313 57 224 181 b 451 683 224 558 314 683 z "},"ę":{"ha":796,"x_min":0,"x_max":0,"o":"m 515 -168 b 383 -242 467 -218 418 -242 b 313 -175 339 -242 313 -212 b 440 -14 313 -125 363 -61 b 725 129 554 -11 646 33 l 682 168 b 471 58 613 92 547 58 b 225 378 322 58 225 185 b 231 440 225 403 226 425 l 688 440 b 731 468 725 440 731 443 b 449 750 731 649 626 750 b 68 360 225 750 68 588 b 358 -7 68 163 183 22 b 203 -207 260 -58 203 -131 b 338 -325 203 -281 253 -325 b 556 -211 418 -325 490 -296 z m 240 504 b 426 683 264 622 328 683 b 579 543 519 683 579 628 b 496 504 579 510 571 504 z "},"Į":{"ha":576,"x_min":0,"x_max":0,"o":"m 393 -168 b 261 -242 344 -218 296 -242 b 190 -175 217 -242 190 -212 b 342 0 190 -121 251 -49 l 513 0 l 513 53 b 361 263 382 57 361 79 l 361 807 b 499 1017 361 975 379 1013 l 499 1069 l 76 1069 l 76 1017 b 215 817 196 1011 215 974 l 215 253 b 63 53 215 81 193 57 l 63 0 l 251 0 b 81 -207 143 -51 81 -128 b 215 -325 81 -281 131 -325 b 433 -211 296 -325 368 -296 z "},"Ę":{"ha":1008,"x_min":0,"x_max":0,"o":"m 631 -168 b 499 -242 582 -218 533 -242 b 428 -175 454 -242 428 -212 b 579 0 428 -121 489 -49 l 925 0 l 946 274 l 893 274 b 592 60 857 110 788 60 b 361 218 417 60 361 97 l 361 532 b 624 368 569 531 624 479 l 672 368 l 672 747 l 624 747 b 361 588 624 635 561 588 l 361 986 b 385 1010 361 1000 369 1010 l 561 1010 b 843 825 750 1010 821 972 l 892 825 l 879 1069 l 76 1069 l 76 1017 b 215 858 196 1011 215 988 l 215 211 b 63 53 215 81 193 57 l 63 0 l 489 0 b 318 -207 381 -51 318 -128 b 453 -325 318 -281 368 -325 b 671 -211 533 -325 606 -296 z "},"Ą":{"ha":1072,"x_min":0,"x_max":0,"o":"m 983 -168 b 851 -242 935 -218 886 -242 b 781 -175 807 -242 781 -212 b 932 0 781 -121 842 -49 l 1090 0 l 1090 54 b 879 286 994 54 964 78 l 564 1069 l 504 1069 l 143 165 b -8 53 111 86 76 63 l -8 0 l 329 0 l 329 53 b 221 121 253 53 221 69 b 307 388 221 158 243 235 l 678 388 l 735 238 b 767 114 760 174 767 150 b 638 54 767 71 736 54 l 638 0 l 842 0 b 671 -207 733 -51 671 -128 b 806 -325 671 -281 721 -325 b 1024 -211 886 -325 958 -296 z m 497 867 l 651 457 l 335 457 z "},"Ǫ":{"ha":1314,"x_min":0,"x_max":0,"o":"m 763 -168 b 631 -242 714 -218 665 -242 b 560 -175 586 -242 560 -212 b 689 -12 560 -125 611 -60 b 1235 526 996 3 1235 235 b 657 1083 1235 840 982 1083 b 79 526 332 1083 79 840 b 600 -11 79 243 304 15 b 450 -207 504 -62 450 -133 b 585 -325 450 -281 500 -325 b 803 -211 665 -325 738 -296 z m 657 63 b 260 522 413 63 260 240 b 657 1007 260 819 413 1007 b 1054 522 901 1007 1054 819 b 657 63 1054 240 900 63 z "},"Ų":{"ha":1196,"x_min":0,"x_max":0,"o":"m 725 -168 b 593 -242 676 -218 628 -242 b 522 -175 549 -242 522 -212 b 653 -11 522 -125 575 -60 b 1003 431 906 6 1003 154 l 1003 711 b 1038 979 1003 864 1010 940 b 1156 1017 1060 1011 1097 1017 l 1156 1069 l 753 1069 l 753 1017 b 874 989 810 1017 849 1013 b 919 711 910 954 919 876 l 919 376 b 642 72 919 178 826 72 b 361 368 435 72 361 179 l 361 746 b 392 983 361 882 367 950 b 514 1017 414 1013 451 1017 l 514 1069 l 40 1069 l 40 1017 b 161 986 103 1017 139 1010 b 194 746 193 951 194 883 l 194 379 b 558 -12 194 103 314 -3 b 413 -207 465 -64 413 -133 b 547 -325 413 -281 463 -325 b 765 -211 628 -325 700 -296 z "},"ğ":{"ha":832,"x_min":0,"x_max":0,"o":"m 381 299 b 249 501 301 299 249 379 b 379 699 249 622 300 699 b 504 500 458 699 504 625 b 381 299 504 374 458 299 z m 304 136 b 206 182 240 140 206 153 b 357 240 206 221 244 232 b 651 504 551 254 651 349 b 618 633 651 558 642 597 b 686 657 640 649 664 657 b 790 614 732 657 739 614 b 846 665 822 614 846 635 b 736 750 846 717 803 750 b 585 676 694 750 647 728 b 376 750 533 724 457 750 b 103 506 218 750 103 646 b 246 285 103 410 164 318 l 246 279 b 104 146 164 267 104 211 b 263 13 104 69 160 24 b 511 -18 313 7 424 -6 b 638 -154 579 -28 638 -81 b 400 -300 638 -251 558 -300 b 168 -172 253 -300 168 -253 b 253 -57 168 -117 203 -68 b 168 -28 228 -37 200 -28 b 44 -167 100 -28 44 -89 b 394 -361 44 -282 188 -361 b 754 -122 626 -361 754 -276 b 533 110 754 1 667 90 b 304 136 449 122 393 129 z m 532 1078 b 390 993 517 1026 460 993 b 250 1078 322 993 267 1026 l 200 1078 b 392 897 204 974 285 897 b 583 1078 496 897 576 972 z "},"ġ":{"ha":832,"x_min":0,"x_max":0,"o":"m 381 299 b 249 501 301 299 249 379 b 379 699 249 622 300 699 b 504 500 458 699 504 625 b 381 299 504 374 458 299 z m 304 136 b 206 182 240 140 206 153 b 357 240 206 221 244 232 b 651 504 551 254 651 349 b 618 633 651 558 642 597 b 686 657 640 649 664 657 b 790 614 732 657 739 614 b 846 665 822 614 846 635 b 736 750 846 717 803 750 b 585 676 694 750 647 728 b 376 750 533 724 457 750 b 103 506 218 750 103 646 b 246 285 103 410 164 318 l 246 279 b 104 146 164 267 104 211 b 263 13 104 69 160 24 b 511 -18 313 7 424 -6 b 638 -154 579 -28 638 -81 b 400 -300 638 -251 558 -300 b 168 -172 253 -300 168 -253 b 253 -57 168 -117 203 -68 b 168 -28 228 -37 200 -28 b 44 -167 100 -28 44 -89 b 394 -361 44 -282 188 -361 b 754 -122 626 -361 754 -276 b 533 110 754 1 667 90 b 304 136 449 122 393 129 z m 311 1032 b 397 946 311 983 349 946 b 483 1032 446 946 483 983 b 397 1118 483 1081 446 1118 b 311 1032 349 1118 311 1081 z "},"ĝ":{"ha":832,"x_min":0,"x_max":0,"o":"m 381 299 b 249 501 301 299 249 379 b 379 699 249 622 300 699 b 504 500 458 699 504 625 b 381 299 504 374 458 299 z m 304 136 b 206 182 240 140 206 153 b 357 240 206 221 244 232 b 651 504 551 254 651 349 b 618 633 651 558 642 597 b 686 657 640 649 664 657 b 790 614 732 657 739 614 b 846 665 822 614 846 635 b 736 750 846 717 803 750 b 585 676 694 750 647 728 b 376 750 533 724 457 750 b 103 506 218 750 103 646 b 246 285 103 410 164 318 l 246 279 b 104 146 164 267 104 211 b 263 13 104 69 160 24 b 511 -18 313 7 424 -6 b 638 -154 579 -28 638 -81 b 400 -300 638 -251 558 -300 b 168 -172 253 -300 168 -253 b 253 -57 168 -117 203 -68 b 168 -28 228 -37 200 -28 b 44 -167 100 -28 44 -89 b 394 -361 44 -282 188 -361 b 754 -122 626 -361 754 -276 b 533 110 754 1 667 90 b 304 136 449 122 393 129 z m 342 1083 l 176 904 l 239 904 l 404 999 l 569 904 l 632 904 l 467 1083 z "},"ŀ":{"ha":560,"x_min":0,"x_max":0,"o":"m 290 1153 l 28 1101 l 28 1054 b 153 1000 117 1054 143 1043 b 161 806 158 976 161 906 l 161 207 b 31 49 161 79 140 54 l 31 0 l 414 0 l 414 49 b 290 217 307 53 290 76 z m 411 578 b 501 488 411 528 451 488 b 593 578 553 488 593 528 b 501 669 593 629 553 669 b 411 578 451 669 411 629 z "},",":{"ha":379,"x_min":0,"x_max":0,"o":"m 100 -243 b 286 29 239 -143 286 -74 b 186 168 286 119 251 168 b 93 82 131 168 93 133 b 165 0 93 33 124 0 b 207 11 181 0 196 4 b 68 -199 207 -68 167 -129 z "},"":{"ha":225,"x_min":0,"x_max":0,"o":"m 65 -361 b 197 -199 161 -310 197 -258 b 110 -89 197 -129 165 -89 b 28 -162 61 -89 28 -119 b 89 -228 28 -201 53 -228 b 125 -217 104 -228 117 -224 b 35 -325 125 -257 97 -290 z "},"ņ":{"ha":957,"x_min":0,"x_max":0,"o":"m 300 404 b 325 553 300 492 306 515 b 521 675 364 628 439 675 b 679 392 636 675 679 601 l 679 208 b 564 47 679 71 668 53 l 564 0 l 924 0 l 924 47 b 811 218 822 54 811 68 l 811 450 b 768 672 811 568 800 629 b 571 750 731 719 656 750 b 293 613 461 750 363 699 l 288 613 l 271 750 l 49 697 l 49 653 b 160 594 129 653 149 644 b 168 393 165 571 168 501 l 168 208 b 51 47 168 69 154 54 l 51 0 l 415 0 l 415 47 b 300 218 308 54 300 68 z m 443 -347 b 575 -185 539 -296 575 -244 b 488 -75 575 -115 543 -75 b 406 -149 439 -75 406 -106 b 467 -214 406 -187 431 -214 b 503 -203 482 -214 494 -210 b 413 -311 503 -243 475 -276 z "},"ļ":{"ha":451,"x_min":0,"x_max":0,"o":"m 290 1153 l 28 1101 l 28 1054 b 153 1000 117 1054 143 1043 b 161 806 158 976 161 906 l 161 207 b 31 49 161 79 140 54 l 31 0 l 414 0 l 414 49 b 290 217 307 53 290 76 z m 181 -347 b 313 -185 276 -296 313 -244 b 225 -75 313 -115 281 -75 b 143 -149 176 -75 143 -106 b 204 -214 143 -187 168 -214 b 240 -203 219 -214 232 -210 b 150 -311 240 -243 213 -276 z "},"ŗ":{"ha":663,"x_min":0,"x_max":0,"o":"m 308 268 b 332 465 308 342 317 413 b 465 635 360 563 415 635 b 575 600 499 635 517 600 b 656 671 626 600 656 626 b 560 750 656 719 619 750 b 318 563 465 750 368 674 l 313 563 l 293 735 l 50 682 l 50 633 b 172 374 169 633 172 626 l 172 211 b 53 49 172 71 160 54 l 53 0 l 422 0 l 422 49 b 308 221 317 56 308 68 z m 196 -347 b 328 -185 292 -296 328 -244 b 240 -75 328 -115 296 -75 b 158 -149 192 -75 158 -106 b 219 -214 158 -187 183 -214 b 256 -203 235 -214 247 -210 b 165 -311 256 -243 228 -276 z "},"ķ":{"ha":856,"x_min":0,"x_max":0,"o":"m 483 0 l 849 0 l 849 49 b 701 125 778 49 754 64 l 426 436 l 626 614 b 790 688 694 674 721 688 l 790 736 l 429 736 l 429 688 b 542 654 501 688 542 674 b 418 517 542 635 501 599 l 289 390 l 289 1153 l 21 1100 l 21 1053 b 140 1026 86 1053 124 1053 b 157 793 157 1001 157 933 l 157 211 b 24 49 157 79 135 53 l 24 0 l 418 0 l 418 49 b 289 221 307 53 289 78 l 289 303 l 340 351 l 488 174 b 564 64 532 119 563 78 b 483 49 564 54 544 49 z m 406 -347 b 538 -185 501 -296 538 -244 b 450 -75 538 -115 506 -75 b 368 -149 401 -75 368 -106 b 429 -214 368 -187 393 -214 b 465 -203 444 -214 457 -210 b 375 -311 465 -243 438 -276 z "},"Ļ":{"ha":1010,"x_min":0,"x_max":0,"o":"m 981 274 l 928 274 b 608 63 888 101 821 63 b 361 250 417 63 361 94 l 361 849 b 499 1017 361 989 379 1013 l 499 1069 l 76 1069 l 76 1017 b 215 858 196 1011 215 988 l 215 211 b 63 53 215 81 193 57 l 63 0 l 960 0 z m 482 -347 b 614 -185 578 -296 614 -244 b 526 -75 614 -115 582 -75 b 444 -149 478 -75 444 -106 b 506 -214 444 -187 469 -214 b 542 -203 521 -214 533 -210 b 451 -311 542 -243 514 -276 z "},"Ķ":{"ha":1082,"x_min":0,"x_max":0,"o":"m 361 396 l 457 507 l 728 174 b 775 90 761 133 775 106 b 674 53 775 64 746 53 l 674 0 l 1100 0 l 1100 53 b 953 125 1032 53 999 71 l 547 613 l 808 914 b 992 1018 886 1004 918 1018 l 992 1069 l 657 1069 l 657 1017 b 736 978 710 1017 736 1003 b 708 924 736 964 726 946 l 361 506 l 361 849 b 499 1017 361 996 388 1017 l 499 1069 l 76 1069 l 76 1017 b 215 858 186 1017 215 1000 l 215 211 b 63 53 215 81 192 53 l 63 0 l 513 0 l 513 53 b 361 221 385 53 361 79 z m 525 -347 b 657 -185 621 -296 657 -244 b 569 -75 657 -115 625 -75 b 488 -149 521 -75 488 -106 b 549 -214 488 -187 513 -214 b 585 -203 564 -214 576 -210 b 494 -311 585 -243 557 -276 z "},"Ģ":{"ha":1208,"x_min":0,"x_max":0,"o":"m 594 -14 b 844 47 693 -14 781 11 b 1057 115 950 107 986 115 l 1057 271 b 1171 394 1057 367 1081 394 l 1171 447 l 776 447 l 776 394 b 915 257 875 394 915 365 b 632 61 915 154 811 61 b 269 525 399 61 269 228 b 628 1011 269 828 403 1011 b 925 750 778 1011 925 931 l 992 750 l 1010 1069 l 961 1069 l 932 983 b 615 1083 818 1054 726 1083 b 83 517 300 1083 83 853 b 594 -14 83 193 281 -14 z m 551 -347 b 683 -185 647 -296 683 -244 b 596 -75 683 -115 651 -75 b 514 -149 547 -75 514 -106 b 575 -214 514 -187 539 -214 b 611 -203 590 -214 603 -210 b 521 -311 611 -243 583 -276 z "},"Ņ":{"ha":1253,"x_min":0,"x_max":0,"o":"m 1047 -14 l 1047 817 b 1200 1017 1047 989 1069 1013 l 1200 1069 l 826 1069 l 826 1017 b 964 807 944 1013 964 990 l 964 260 l 958 260 l 351 1069 l 76 1069 l 76 1017 b 215 817 196 1011 215 974 l 215 253 b 63 53 215 81 193 57 l 63 0 l 436 0 l 436 53 b 299 263 318 57 299 79 l 299 856 l 304 856 l 964 -14 z m 590 -347 b 722 -185 686 -296 722 -244 b 635 -75 722 -115 690 -75 b 553 -149 586 -75 553 -106 b 614 -214 553 -187 578 -214 b 650 -203 629 -214 642 -210 b 560 -311 650 -243 622 -276 z "},"Ŗ":{"ha":1094,"x_min":0,"x_max":0,"o":"m 914 801 b 513 1069 914 969 767 1069 l 76 1069 l 76 1017 b 215 858 196 1011 215 988 l 215 211 b 63 53 215 81 193 57 l 63 0 l 553 0 l 553 53 b 361 218 385 53 361 81 l 361 507 b 524 436 447 507 475 500 l 864 0 l 1132 0 l 1132 53 b 942 149 1050 65 992 88 l 635 518 b 914 801 829 551 914 654 z m 361 981 b 385 1004 361 994 369 1004 l 513 1004 b 733 794 664 1004 733 943 b 460 576 733 640 643 576 l 361 576 z m 525 -347 b 657 -185 621 -296 657 -244 b 569 -75 657 -115 625 -75 b 488 -149 521 -75 488 -106 b 549 -214 488 -187 513 -214 b 585 -203 564 -214 576 -210 b 494 -311 585 -243 557 -276 z "},"ș":{"ha":631,"x_min":0,"x_max":0,"o":"m 147 49 b 333 -14 197 8 261 -14 b 565 197 471 -14 565 67 b 343 450 565 303 503 350 b 207 599 249 508 207 538 b 311 693 207 658 249 693 b 467 536 382 693 426 649 l 503 536 l 503 736 l 476 736 l 449 707 b 300 750 408 733 350 750 b 93 536 183 750 93 663 b 281 308 93 432 156 388 b 442 153 417 224 442 207 b 321 43 442 79 394 43 b 124 239 224 43 160 107 l 89 239 l 89 0 l 119 0 z m 286 -346 b 418 -183 382 -294 418 -243 b 331 -74 418 -114 386 -74 b 249 -147 282 -74 249 -104 b 310 -212 249 -186 274 -212 b 346 -201 325 -212 338 -208 b 256 -310 346 -242 318 -275 z "},"ț":{"ha":525,"x_min":0,"x_max":0,"o":"m 139 649 l 139 156 b 326 -14 139 47 204 -14 b 513 92 421 -14 486 24 l 478 118 b 371 54 447 72 417 54 b 275 226 297 54 275 96 l 275 649 l 461 649 l 461 714 l 275 714 l 275 889 l 235 889 b 56 700 206 810 154 758 l 56 649 z m 279 -347 b 411 -185 375 -296 411 -244 b 324 -75 411 -115 379 -75 b 242 -149 275 -75 242 -106 b 303 -214 242 -187 267 -214 b 339 -203 318 -214 331 -210 b 249 -311 339 -243 311 -276 z "},"Ț":{"ha":1115,"x_min":0,"x_max":0,"o":"m 1078 1069 l 29 1069 l 29 804 l 81 804 b 339 1010 86 1001 194 1010 b 475 967 457 1010 475 999 l 475 224 b 294 53 475 104 451 58 l 294 0 l 819 0 l 819 53 b 640 224 663 58 640 104 l 640 967 b 797 1010 640 999 660 1010 b 1035 804 958 1010 1022 965 l 1092 804 z m 511 -347 b 643 -185 607 -296 643 -244 b 556 -75 643 -115 611 -75 b 474 -149 507 -75 474 -106 b 535 -214 474 -187 499 -214 b 571 -203 550 -214 563 -210 b 481 -311 571 -243 543 -276 z "},"Ș":{"ha":896,"x_min":0,"x_max":0,"o":"m 101 15 l 133 15 l 172 83 b 443 -14 258 14 338 -14 b 821 301 667 -14 821 115 b 468 647 821 447 743 524 b 256 858 310 718 256 771 b 440 1013 256 951 328 1013 b 689 788 558 1013 644 939 l 740 788 l 725 1064 l 693 1064 l 657 1001 b 436 1083 585 1058 517 1083 b 125 789 254 1083 125 961 b 426 468 125 646 196 569 b 669 238 614 386 669 332 b 447 57 669 128 583 57 b 132 326 281 57 158 158 l 81 326 z m 394 -347 b 526 -185 490 -296 526 -244 b 439 -75 526 -115 494 -75 b 357 -149 390 -75 357 -106 b 418 -214 357 -187 382 -214 b 454 -203 433 -214 446 -210 b 364 -311 454 -243 426 -276 z "},"ď":{"ha":938,"x_min":0,"x_max":0,"o":"m 672 -14 l 903 1 l 903 49 b 790 106 817 49 801 61 b 781 351 782 140 781 224 l 781 1153 l 496 1100 l 496 1058 b 639 1003 592 1058 629 1043 b 647 799 644 978 647 903 l 647 657 b 428 750 583 721 515 750 b 67 369 219 750 67 589 b 428 -14 67 146 218 -14 b 667 117 529 -14 600 24 l 672 117 z m 644 332 b 608 140 644 232 635 181 b 428 53 572 85 493 53 b 224 376 294 53 224 181 b 428 683 224 564 296 683 b 607 599 492 683 565 654 b 644 424 636 561 644 521 z m 929 811 b 1061 974 1025 863 1061 914 b 974 1083 1061 1043 1029 1083 b 892 1010 925 1083 892 1053 b 953 944 892 971 917 944 b 989 956 968 944 981 949 b 899 847 989 915 961 882 z "},"ľ":{"ha":451,"x_min":0,"x_max":0,"o":"m 290 1153 l 28 1101 l 28 1054 b 153 1000 117 1054 143 1043 b 161 806 158 976 161 906 l 161 207 b 31 49 161 79 140 54 l 31 0 l 414 0 l 414 49 b 290 217 307 53 290 76 z m 439 811 b 571 974 535 863 571 914 b 483 1083 571 1043 539 1083 b 401 1010 435 1083 401 1053 b 463 944 401 971 426 944 b 499 956 478 944 490 949 b 408 847 499 915 471 882 z "},"ť":{"ha":525,"x_min":0,"x_max":0,"o":"m 139 649 l 139 156 b 326 -14 139 47 204 -14 b 513 92 421 -14 486 24 l 478 118 b 371 54 447 72 417 54 b 275 226 297 54 275 96 l 275 649 l 461 649 l 461 714 l 275 714 l 275 889 l 235 889 b 56 700 206 810 154 758 l 56 649 z m 458 811 b 590 974 554 863 590 914 b 503 1083 590 1043 558 1083 b 421 1010 454 1083 421 1053 b 482 944 421 971 446 944 b 518 956 497 944 510 949 b 428 847 518 915 490 882 z "},"ģ":{"ha":832,"x_min":0,"x_max":0,"o":"m 447 1176 b 315 1006 351 1125 315 1065 b 403 904 315 944 347 904 b 485 978 451 904 485 935 b 424 1043 485 1017 460 1043 b 388 1032 408 1043 396 1039 b 478 1140 388 1072 415 1106 z m 381 299 b 249 501 301 299 249 379 b 379 699 249 622 300 699 b 504 500 458 699 504 625 b 381 299 504 374 458 299 z m 304 136 b 206 182 240 140 206 153 b 357 240 206 221 244 232 b 651 504 551 254 651 349 b 618 633 651 558 642 597 b 686 657 640 649 664 657 b 790 614 732 657 739 614 b 846 665 822 614 846 635 b 736 750 846 717 803 750 b 585 676 694 750 647 728 b 376 750 533 724 457 750 b 103 506 218 750 103 646 b 246 285 103 410 164 318 l 246 279 b 104 146 164 267 104 211 b 263 13 104 69 160 24 b 511 -18 313 7 424 -6 b 638 -154 579 -28 638 -81 b 400 -300 638 -251 558 -300 b 168 -172 253 -300 168 -253 b 253 -57 168 -117 203 -68 b 168 -28 228 -37 200 -28 b 44 -167 100 -28 44 -89 b 394 -361 44 -282 188 -361 b 754 -122 626 -361 754 -276 b 533 110 754 1 667 90 b 304 136 449 122 393 129 z "},"’":{"ha":353,"x_min":0,"x_max":0,"o":"m 121 776 b 286 1022 247 869 286 928 b 188 1153 286 1107 251 1153 b 93 1068 131 1153 93 1118 b 165 992 93 1024 122 992 b 207 1003 181 992 196 996 b 89 814 207 932 174 878 z "},"‘":{"ha":357,"x_min":0,"x_max":0,"o":"m 243 1153 b 78 907 117 1060 78 1001 b 176 776 78 822 113 776 b 271 861 233 776 271 811 b 199 938 271 906 242 938 b 157 926 183 938 168 933 b 275 1115 157 997 190 1051 z "},"‚":{"ha":382,"x_min":0,"x_max":0,"o":"m 124 -229 b 289 17 250 -136 289 -78 b 190 147 289 101 254 147 b 96 63 133 147 96 113 b 168 -14 96 18 125 -14 b 210 -3 183 -14 199 -10 b 92 -192 210 -74 176 -128 z "},"”":{"ha":619,"x_min":0,"x_max":0,"o":"m 121 776 b 286 1022 247 869 286 928 b 188 1153 286 1107 251 1153 b 93 1068 131 1153 93 1118 b 165 992 93 1024 122 992 b 207 1003 181 992 196 996 b 89 814 207 932 174 878 z m 388 776 b 553 1022 514 869 553 928 b 454 1153 553 1107 518 1153 b 360 1068 397 1153 360 1118 b 432 992 360 1024 389 992 b 474 1003 447 992 463 996 b 356 814 474 932 440 878 z "},"“":{"ha":624,"x_min":0,"x_max":0,"o":"m 510 1153 b 344 907 383 1060 344 1001 b 443 776 344 822 379 776 b 538 861 500 776 538 811 b 465 938 538 906 508 938 b 424 926 450 938 435 933 b 542 1115 424 997 457 1051 z m 243 1153 b 78 907 117 1060 78 1001 b 176 776 78 822 113 776 b 271 861 233 776 271 811 b 199 938 271 906 242 938 b 157 926 183 938 168 933 b 275 1115 157 997 190 1051 z "},"„":{"ha":649,"x_min":0,"x_max":0,"o":"m 124 -229 b 289 17 250 -136 289 -78 b 190 147 289 101 254 147 b 96 63 133 147 96 113 b 168 -14 96 18 125 -14 b 210 -3 183 -14 199 -10 b 92 -192 210 -74 176 -128 z m 390 -229 b 556 17 517 -136 556 -78 b 457 147 556 101 521 147 b 363 63 400 147 363 113 b 435 -14 363 18 392 -14 b 476 -3 450 -14 465 -10 b 358 -192 476 -74 443 -128 z "},"'":{"ha":299,"x_min":0,"x_max":0,"o":"m 169 783 b 214 1083 183 889 214 1038 b 149 1153 214 1124 186 1153 b 83 1085 111 1153 83 1124 b 129 783 83 1040 115 889 z "},"\"":{"ha":510,"x_min":0,"x_max":0,"o":"m 169 783 b 214 1083 183 889 214 1038 b 149 1153 214 1124 186 1153 b 83 1085 111 1153 83 1124 b 129 783 83 1040 115 889 z m 381 783 b 425 1083 394 889 425 1038 b 360 1153 425 1124 397 1153 b 294 1085 322 1153 294 1124 b 340 783 294 1040 326 889 z "},"ʼ":{"ha":269,"x_min":0,"x_max":0,"o":"m 156 849 b 200 1083 169 926 200 1051 b 135 1153 200 1124 172 1153 b 69 1085 97 1153 69 1124 b 115 849 69 1053 101 926 z "},"ŉ":{"ha":1054,"x_min":0,"x_max":0,"o":"m 397 404 b 422 553 397 492 403 515 b 618 675 461 628 536 675 b 776 392 733 675 776 601 l 776 208 b 661 47 776 71 765 53 l 661 0 l 1021 0 l 1021 47 b 908 218 919 54 908 68 l 908 450 b 865 672 908 568 897 629 b 668 750 828 719 753 750 b 390 613 558 750 460 699 l 385 613 l 368 750 l 146 697 l 146 653 b 257 594 226 653 246 644 b 265 393 263 571 265 501 l 265 208 b 149 47 265 69 251 54 l 149 0 l 513 0 l 513 47 b 397 218 406 54 397 68 z m 125 849 b 169 1083 139 926 169 1051 b 104 1153 169 1124 142 1153 b 39 1085 67 1153 39 1124 b 85 849 39 1053 71 926 z "},"=":{"ha":861,"x_min":0,"x_max":0,"o":"m 746 656 l 115 656 l 115 586 l 746 586 z m 746 419 l 115 419 l 115 350 l 746 350 z "},"!":{"ha":428,"x_min":0,"x_max":0,"o":"m 124 76 b 214 -14 124 26 164 -14 b 306 76 265 -14 306 26 b 214 168 306 128 265 168 b 124 76 164 168 124 128 z m 247 288 b 283 806 247 583 261 683 b 304 992 304 917 304 940 b 214 1083 304 1042 269 1083 b 124 992 158 1083 124 1042 b 144 811 124 936 125 917 b 181 288 168 683 181 585 z "},"¡":{"ha":428,"x_min":0,"x_max":0,"o":"m 124 993 b 214 901 124 942 164 901 b 306 993 265 901 306 942 b 214 1083 306 1043 265 1083 b 124 993 164 1083 124 1043 z m 181 782 b 144 258 181 485 168 386 b 124 78 125 153 124 133 b 214 -14 124 28 158 -14 b 304 78 269 -14 304 28 b 283 264 304 129 304 153 b 247 782 261 386 247 486 z "},"?":{"ha":554,"x_min":0,"x_max":0,"o":"m 250 329 l 250 514 b 474 736 392 514 474 596 b 182 1083 474 918 335 1083 b 96 1006 126 1083 96 1057 b 169 931 96 961 126 931 b 274 946 200 931 240 946 b 394 785 340 946 394 874 b 214 647 394 694 333 647 l 174 647 l 174 329 z m 117 76 b 207 -14 117 26 157 -14 b 299 76 258 -14 299 26 b 207 168 299 128 258 168 b 117 76 157 168 117 128 z "},"¿":{"ha":554,"x_min":0,"x_max":0,"o":"m 304 740 l 304 556 b 81 333 163 556 81 474 b 372 -14 81 151 219 -14 b 458 64 428 -14 458 13 b 385 139 458 108 428 139 b 281 124 354 139 314 124 b 160 285 214 124 160 196 b 340 422 160 375 221 422 l 381 422 l 381 740 z m 438 993 b 347 1083 438 1043 397 1083 b 256 993 296 1083 256 1043 b 347 901 256 942 296 901 b 438 993 397 901 438 942 z "},"-":{"ha":643,"x_min":0,"x_max":0,"o":"m 536 344 l 536 460 l 107 460 l 107 344 z "},"–":{"ha":1006,"x_min":0,"x_max":0,"o":"m 899 344 l 899 460 l 107 460 l 107 344 z "},"—":{"ha":1544,"x_min":0,"x_max":0,"o":"m 1438 344 l 1438 460 l 107 460 l 107 344 z "},"_":{"ha":1003,"x_min":0,"x_max":0,"o":"m 897 -199 l 897 -104 l 106 -104 l 106 -199 z "},"(":{"ha":461,"x_min":0,"x_max":0,"o":"m 390 1154 b 65 449 176 940 65 699 b 401 -269 65 193 181 -54 l 444 -231 b 204 472 274 -40 204 167 b 433 1115 204 724 251 869 z "},")":{"ha":461,"x_min":0,"x_max":0,"o":"m 28 1115 b 257 472 210 869 257 724 b 17 -231 257 167 188 -40 l 60 -269 b 396 449 281 -54 396 193 b 71 1154 396 699 285 940 z "},"[":{"ha":515,"x_min":0,"x_max":0,"o":"m 483 1074 l 483 1139 l 149 1139 l 149 -208 l 483 -208 l 483 -143 l 274 -143 l 274 1074 z "},"]":{"ha":515,"x_min":0,"x_max":0,"o":"m 32 -143 l 32 -208 l 367 -208 l 367 1139 l 32 1139 l 32 1074 l 242 1074 l 242 -143 z "},"{":{"ha":465,"x_min":0,"x_max":0,"o":"m 289 275 b 153 472 289 386 265 453 l 153 479 b 289 696 271 504 289 582 l 289 944 b 403 1121 289 1043 317 1099 l 403 1153 b 164 915 206 1153 164 1092 l 164 672 b 40 493 164 567 144 514 l 40 458 b 164 278 135 450 164 361 l 164 6 b 408 -208 164 -162 222 -208 l 408 -178 b 289 0 314 -151 289 -100 z "},"}":{"ha":465,"x_min":0,"x_max":0,"o":"m 176 0 b 57 -178 176 -100 151 -151 l 57 -208 b 301 6 243 -208 301 -162 l 301 278 b 425 458 301 361 331 450 l 425 493 b 301 672 321 514 301 567 l 301 915 b 63 1153 301 1092 260 1153 l 63 1121 b 176 944 149 1099 176 1043 l 176 696 b 313 479 176 582 194 504 l 313 472 b 176 275 200 453 176 386 z "},"|":{"ha":403,"x_min":0,"x_max":0,"o":"m 146 1139 l 146 -347 l 257 -347 l 257 1139 z "},"¦":{"ha":414,"x_min":0,"x_max":0,"o":"m 151 1042 l 151 507 l 263 507 l 263 1042 z m 151 285 l 151 -250 l 263 -250 l 263 285 z "},"¬":{"ha":868,"x_min":0,"x_max":0,"o":"m 682 153 l 751 153 l 751 504 l 115 504 l 115 435 l 682 435 z "},"­":{"ha":643,"x_min":0,"x_max":0,"o":"m 536 344 l 536 460 l 107 460 l 107 344 z "},"‹":{"ha":442,"x_min":0,"x_max":0,"o":"m 304 144 l 331 172 l 194 364 l 332 556 l 304 585 l 68 364 z "},"›":{"ha":442,"x_min":0,"x_max":0,"o":"m 374 364 l 138 585 l 110 556 l 247 364 l 111 172 l 138 144 z "},"«":{"ha":679,"x_min":0,"x_max":0,"o":"m 304 144 l 331 172 l 194 364 l 332 556 l 304 585 l 68 364 z m 542 144 l 568 172 l 432 364 l 569 556 l 542 585 l 306 364 z "},"»":{"ha":679,"x_min":0,"x_max":0,"o":"m 611 364 l 375 585 l 347 556 l 485 364 l 349 172 l 375 144 z m 374 364 l 138 585 l 110 556 l 247 364 l 111 172 l 138 144 z "},"#":{"ha":925,"x_min":0,"x_max":0,"o":"m 831 424 l 640 424 l 672 660 l 860 660 l 871 729 l 685 729 l 732 1069 l 649 1069 l 601 729 l 392 729 l 440 1069 l 357 1069 l 308 729 l 108 729 l 97 660 l 296 660 l 263 424 l 65 424 l 54 354 l 249 354 l 196 0 l 279 0 l 332 354 l 542 354 l 493 0 l 575 0 l 626 354 l 819 354 z m 588 660 l 556 424 l 346 424 l 379 660 z "},"*":{"ha":717,"x_min":0,"x_max":0,"o":"m 378 749 b 493 658 433 721 476 685 b 564 606 521 614 542 606 b 629 667 597 606 629 629 b 401 785 629 760 539 704 b 626 903 551 871 626 814 b 561 965 626 938 596 965 b 379 821 500 965 514 900 b 404 963 381 879 386 924 b 422 1019 413 981 422 1004 b 358 1083 422 1056 394 1083 b 296 1019 322 1083 296 1056 b 314 963 296 1004 304 978 b 338 821 329 926 338 876 b 156 965 236 878 204 965 b 90 903 122 965 90 940 b 124 847 90 881 101 860 b 315 785 158 826 203 847 b 88 668 190 714 88 754 b 151 604 88 633 117 604 b 336 749 217 604 185 664 b 293 553 333 629 293 579 b 357 485 293 515 318 485 b 418 547 390 485 418 514 b 378 749 418 579 378 635 z "},"•":{"ha":661,"x_min":0,"x_max":0,"o":"m 326 300 b 544 513 447 300 544 394 b 333 724 544 631 447 724 b 117 513 215 724 117 631 b 326 300 117 394 215 300 z "},"§":{"ha":786,"x_min":0,"x_max":0,"o":"m 296 406 b 190 557 229 444 190 500 b 286 668 190 603 215 631 l 471 558 b 599 386 553 508 599 446 b 521 272 599 346 578 317 z m 419 156 b 576 -25 536 89 576 43 b 386 -179 576 -122 506 -179 b 199 -103 289 -179 199 -143 b 260 15 199 -71 260 -43 b 171 101 260 63 219 101 b 83 -14 118 101 83 56 b 379 -242 83 -146 207 -242 b 686 19 560 -242 686 -135 b 579 232 686 101 649 175 b 700 436 664 294 700 354 b 458 739 700 550 629 639 l 375 788 b 229 964 268 849 229 896 b 388 1097 229 1049 288 1097 b 522 1033 464 1097 522 1069 b 483 946 522 1004 483 996 b 565 868 483 900 517 868 b 651 965 618 868 651 907 b 389 1153 651 1074 540 1153 b 126 919 229 1153 126 1063 b 225 707 126 836 161 760 b 88 501 136 671 88 599 b 338 201 88 383 156 303 z "},"¶":{"ha":876,"x_min":0,"x_max":0,"o":"m 657 796 b 672 967 657 896 661 938 b 808 1017 689 1006 718 1017 l 808 1069 l 425 1069 b 50 783 182 1069 50 968 b 331 517 50 615 154 517 b 378 518 351 517 363 518 l 378 88 b 364 -122 378 -3 371 -99 b 213 -176 351 -161 310 -176 l 213 -229 l 482 -229 l 482 1008 l 554 1008 l 554 -229 l 808 -229 l 808 -176 b 675 -126 724 -176 688 -162 b 657 88 664 -97 657 -17 z "},"⁄":{"ha":56,"x_min":0,"x_max":0,"o":"m 446 1069 l 379 1069 l -389 0 l -310 0 z "},"∕":{"ha":781,"x_min":0,"x_max":0,"o":"m 813 1069 l 738 1069 l -31 0 l 57 0 z "},"/":{"ha":639,"x_min":0,"x_max":0,"o":"m 599 1069 l 531 1069 l 40 0 l 121 0 z "},"\\":{"ha":639,"x_min":0,"x_max":0,"o":"m 518 0 l 599 0 l 108 1069 l 40 1069 z "},"ﬀ":{"ha":1013,"x_min":0,"x_max":0,"o":"m 314 649 l 631 649 l 631 213 b 525 49 631 72 618 54 l 525 0 l 892 0 l 892 49 b 761 224 786 51 761 86 l 761 649 l 985 649 l 985 714 l 761 714 l 761 822 b 783 1001 761 915 767 965 b 903 1086 807 1057 847 1086 b 1003 1039 938 1086 957 1078 b 1088 993 1043 1006 1065 993 b 1149 1058 1122 993 1149 1021 b 954 1153 1149 1114 1068 1153 b 678 1038 826 1153 731 1099 b 507 1097 646 1067 585 1097 b 183 758 300 1097 186 971 l 183 714 l 26 714 l 26 649 l 183 649 l 183 213 b 78 49 183 72 171 54 l 78 0 l 444 0 l 444 49 b 314 224 339 51 314 86 z m 314 714 l 314 767 b 336 946 314 860 319 910 b 456 1031 360 1001 400 1031 b 561 985 490 1031 515 1024 b 631 931 582 967 607 946 l 631 714 z "},"ﬁ":{"ha":904,"x_min":0,"x_max":0,"o":"m 760 750 l 536 714 l 314 714 l 314 822 b 483 1086 314 1036 368 1086 b 606 1042 531 1086 549 1081 b 696 1000 649 1013 674 1000 b 757 1065 731 1000 757 1028 b 535 1153 757 1117 665 1153 b 183 814 313 1153 183 1026 l 183 714 l 26 714 l 26 649 l 183 649 l 183 213 b 78 49 183 72 171 49 l 78 0 l 431 0 l 431 49 b 314 224 336 49 314 86 l 314 649 l 488 649 b 614 592 581 649 604 636 b 624 389 619 567 624 496 l 624 214 b 504 51 624 83 607 51 l 504 0 l 861 0 l 861 51 b 760 225 776 51 760 81 z "},"ﬂ":{"ha":942,"x_min":0,"x_max":0,"o":"m 781 1153 l 661 1121 b 510 1153 626 1140 574 1153 b 188 814 306 1153 188 1026 l 188 714 l 31 714 l 31 649 l 188 649 l 188 213 b 68 49 188 72 171 49 l 68 0 l 449 0 l 449 49 b 318 224 346 49 318 86 l 318 649 l 542 649 l 542 714 l 318 714 l 318 822 b 468 1086 318 1039 367 1086 b 621 1014 518 1086 556 1071 l 651 988 l 651 207 b 535 49 651 79 633 49 l 535 0 l 904 0 l 904 49 b 781 217 799 49 781 76 z "},"ﬃ":{"ha":1351,"x_min":0,"x_max":0,"o":"m 1207 750 l 983 714 l 761 714 l 761 822 b 931 1086 761 1038 815 1086 b 1053 1042 978 1086 996 1081 b 1143 1000 1096 1013 1121 1000 b 1204 1065 1178 1000 1204 1028 b 982 1153 1204 1117 1113 1153 b 689 1025 843 1153 749 1103 b 507 1097 638 1072 582 1097 b 183 758 301 1097 183 971 l 183 714 l 26 714 l 26 649 l 183 649 l 183 213 b 78 49 183 72 174 49 l 78 0 l 444 0 l 444 49 b 314 224 339 49 314 86 l 314 649 l 631 649 l 631 213 b 525 49 631 75 611 49 l 525 0 l 892 0 l 892 49 b 761 203 790 49 761 82 l 761 649 l 935 649 b 1061 592 1028 649 1051 636 b 1071 389 1067 567 1071 496 l 1071 214 b 951 51 1071 83 1053 51 l 951 0 l 1308 0 l 1308 51 b 1207 225 1224 51 1207 81 z m 314 714 l 314 767 b 456 1031 314 976 365 1031 b 561 985 490 1031 515 1024 b 631 931 582 967 607 947 l 631 714 z "},"ﬄ":{"ha":1385,"x_min":0,"x_max":0,"o":"m 1224 1153 l 1104 1121 b 953 1153 1069 1140 1017 1153 b 686 1026 828 1153 744 1108 b 507 1097 649 1069 585 1097 b 183 758 300 1097 186 971 l 183 714 l 26 714 l 26 649 l 183 649 l 183 213 b 78 49 183 72 171 54 l 78 0 l 444 0 l 444 49 b 314 224 339 51 314 86 l 314 649 l 631 649 l 631 213 b 511 49 631 72 617 54 l 511 0 l 892 0 l 892 49 b 761 224 786 51 761 86 l 761 649 l 985 649 l 985 714 l 761 714 l 761 822 b 783 1001 761 928 768 965 b 911 1086 807 1057 843 1086 b 1064 1014 961 1086 999 1071 l 1094 988 l 1094 207 b 978 49 1094 79 1076 54 l 978 0 l 1347 0 l 1347 49 b 1224 217 1240 53 1224 76 z m 314 714 l 314 767 b 336 946 314 860 319 910 b 456 1031 360 1001 400 1031 b 561 985 490 1031 515 1024 b 631 931 582 967 607 946 l 631 714 z "},"€":{"ha":996,"x_min":0,"x_max":0,"o":"m 678 497 l 351 497 b 350 538 350 510 350 524 b 353 597 350 557 351 578 l 678 597 l 678 678 l 357 678 b 608 1017 383 903 472 1017 b 814 769 713 1017 783 929 l 874 769 l 874 1069 l 835 1069 l 811 999 b 603 1083 733 1068 688 1083 b 183 678 390 1083 231 938 l 58 678 l 58 597 l 175 597 b 171 539 172 578 171 558 b 172 497 171 525 171 511 l 60 497 l 60 417 l 179 417 b 588 -14 219 153 378 -14 b 831 96 686 -14 768 22 l 847 0 l 894 0 l 894 350 l 835 350 b 599 53 819 172 725 53 b 354 417 454 53 354 201 l 678 417 z "},"$":{"ha":864,"x_min":0,"x_max":0,"o":"m 400 1250 l 400 1082 b 114 789 228 1071 114 956 b 400 474 114 600 258 532 l 400 57 b 214 175 272 61 229 117 b 121 319 201 221 192 319 b 53 233 86 319 53 296 b 400 -12 53 93 215 -4 l 400 -236 l 476 -236 l 476 -11 b 803 301 669 6 803 126 b 476 632 803 438 719 526 l 476 1015 b 693 792 665 994 571 792 b 765 867 738 792 765 819 b 476 1081 765 969 633 1065 l 476 1250 z m 658 235 b 476 60 658 140 597 75 l 476 440 b 658 235 576 396 658 343 z m 244 858 b 400 1014 244 943 304 1000 l 400 665 b 244 858 292 719 244 782 z "},"¥":{"ha":1114,"x_min":0,"x_max":0,"o":"m 869 326 l 631 326 l 631 422 l 869 422 l 869 506 l 676 506 l 844 789 b 1072 1017 958 981 994 1017 l 1072 1069 l 754 1069 l 754 1017 b 844 969 821 1017 844 1004 b 763 782 844 935 821 881 l 606 518 l 600 518 l 385 886 b 353 969 363 924 353 951 b 479 1017 353 1004 374 1017 l 479 1069 l 42 1069 l 42 1017 b 207 897 118 1017 150 993 l 436 506 l 239 506 l 239 422 l 485 422 l 485 326 l 239 326 l 239 243 l 485 243 b 332 53 483 82 463 53 l 332 0 l 782 0 l 782 53 b 631 243 653 53 632 81 l 869 243 z "},"£":{"ha":944,"x_min":0,"x_max":0,"o":"m 326 115 b 213 63 297 81 258 63 b 143 107 169 63 143 76 b 204 151 143 135 168 151 b 326 115 240 151 281 138 z m 400 742 b 382 863 389 783 382 832 b 551 1017 382 957 447 1017 b 771 860 719 1017 669 860 b 832 924 810 860 832 882 b 565 1083 832 1015 718 1083 b 239 786 367 1083 239 969 b 271 599 239 733 249 674 l 104 599 l 104 514 l 297 514 b 354 269 331 425 354 325 b 346 186 354 247 351 207 b 199 229 296 215 244 229 b 54 99 115 229 54 175 b 186 -15 54 29 106 -15 b 389 82 265 -15 353 26 b 678 -14 538 6 601 -14 b 881 214 800 -14 881 54 l 867 219 b 661 124 815 153 751 124 b 426 154 593 124 492 138 b 474 375 458 214 474 283 b 454 514 474 425 469 458 l 738 514 l 738 599 l 436 599 z "},"¢":{"ha":771,"x_min":0,"x_max":0,"o":"m 400 949 l 400 746 b 74 363 203 722 74 578 b 400 -14 74 140 207 -10 l 400 -204 l 469 -204 l 469 -10 b 708 115 567 3 653 49 l 667 156 b 469 58 601 92 539 63 l 469 682 b 551 626 501 675 524 658 b 636 569 586 579 603 569 b 704 628 678 569 704 592 b 469 750 704 699 607 747 l 469 949 z m 232 383 b 400 682 232 564 290 667 l 400 64 b 232 383 290 90 232 200 z "},"¤":{"ha":851,"x_min":0,"x_max":0,"o":"m 90 79 l 138 32 l 236 131 b 425 64 288 88 351 64 b 614 129 497 64 561 86 l 713 31 l 761 79 l 663 178 b 728 365 704 229 728 293 b 661 554 728 438 704 501 l 761 654 l 713 703 l 613 603 b 425 668 560 644 497 668 b 238 603 353 668 289 644 l 138 703 l 89 654 l 189 554 b 124 365 146 501 124 438 b 189 178 124 293 147 229 z m 193 365 b 425 599 193 493 297 599 b 658 365 553 599 658 493 b 425 133 658 238 553 133 b 193 365 297 133 193 238 z "},"@":{"ha":1429,"x_min":0,"x_max":0,"o":"m 932 613 l 926 614 b 764 750 900 707 850 750 b 394 344 579 750 394 547 b 603 107 394 207 483 107 b 838 267 688 107 781 171 l 843 267 b 989 107 851 161 899 107 b 1342 586 1176 107 1342 332 b 785 1083 1342 882 1117 1083 b 72 417 385 1083 72 792 b 746 -186 72 64 351 -186 b 1229 -24 919 -186 1067 -136 l 1200 19 b 764 -119 1065 -74 919 -119 b 199 415 426 -119 199 97 b 793 1021 199 757 458 1021 b 1279 583 1074 1021 1279 835 b 1028 176 1279 385 1150 176 b 967 232 990 176 967 197 b 1003 407 967 260 982 333 l 1096 736 l 963 736 z m 775 692 b 881 547 842 692 881 638 b 624 169 881 371 743 169 b 531 315 563 169 531 219 b 775 692 531 503 653 692 z "},"&":{"ha":1219,"x_min":0,"x_max":0,"o":"m 482 636 b 411 858 436 701 411 778 b 503 999 411 950 443 999 b 610 857 568 999 610 943 b 482 636 610 774 569 704 z m 646 185 b 394 74 567 115 471 74 b 218 249 292 74 218 147 b 403 506 218 344 286 439 z m 521 583 b 739 876 675 689 739 774 b 522 1083 739 997 649 1083 b 281 808 379 1083 281 971 b 365 567 281 725 306 653 b 50 232 146 460 50 357 b 343 -14 50 90 174 -14 b 689 139 468 -14 597 43 b 965 -14 804 25 874 -14 b 1171 146 1078 -14 1151 43 l 1136 156 b 1035 76 1106 93 1083 76 b 788 238 951 76 865 132 l 985 526 b 1135 600 1024 585 1054 600 l 1135 649 l 815 649 l 815 600 b 900 558 875 600 900 588 b 746 290 900 510 836 400 z "},"©":{"ha":1233,"x_min":0,"x_max":0,"o":"m 1154 536 b 613 1083 1154 840 913 1083 b 79 535 317 1083 79 836 b 614 -14 79 233 318 -14 b 1154 536 913 -14 1154 231 z m 1088 536 b 614 53 1088 269 875 53 b 146 535 353 53 146 269 b 613 1017 146 799 351 1017 b 1088 536 875 1017 1088 804 z m 811 424 b 635 275 785 326 725 275 b 435 526 506 275 435 364 b 632 790 435 692 507 790 b 814 656 722 790 792 739 l 850 656 l 843 838 l 814 838 l 800 789 b 625 846 736 829 686 846 b 314 521 440 846 314 714 b 617 218 314 338 432 218 b 857 424 754 218 831 301 z "},"Ð":{"ha":1225,"x_min":0,"x_max":0,"o":"m 217 532 l 217 211 b 50 53 217 79 192 57 l 50 0 l 593 0 b 1143 517 917 0 1143 213 b 565 1069 1143 836 900 1069 l 78 1069 l 78 1017 b 217 858 197 1011 217 988 l 217 606 l 106 606 l 106 532 z m 563 1001 b 963 514 810 1001 963 821 b 569 68 963 222 821 68 b 363 226 429 68 363 119 l 363 532 l 590 532 l 590 606 l 363 606 l 363 978 b 386 1001 363 992 371 1001 z "},"Đ":{"ha":1225,"x_min":0,"x_max":0,"o":"m 217 532 l 217 211 b 50 53 217 79 192 57 l 50 0 l 593 0 b 1143 517 917 0 1143 213 b 565 1069 1143 836 900 1069 l 78 1069 l 78 1017 b 217 858 197 1011 217 988 l 217 606 l 106 606 l 106 532 z m 563 1001 b 963 514 810 1001 963 821 b 569 68 963 222 821 68 b 363 226 429 68 363 119 l 363 532 l 590 532 l 590 606 l 363 606 l 363 978 b 386 1001 363 992 371 1001 z "},"Ħ":{"ha":1288,"x_min":0,"x_max":0,"o":"m 1071 849 b 1208 1017 1071 989 1089 1013 l 1208 1069 l 786 1069 l 786 1017 b 925 858 906 1011 925 988 l 925 821 l 363 821 l 363 849 b 500 1017 363 989 381 1013 l 500 1069 l 78 1069 l 78 1017 b 217 858 197 1011 217 988 l 217 821 l 106 821 l 106 751 l 217 751 l 217 211 b 64 53 217 81 194 57 l 64 0 l 514 0 l 514 53 b 363 221 383 57 363 79 l 363 513 l 925 513 l 925 211 b 772 53 925 81 903 57 l 772 0 l 1222 0 l 1222 53 b 1071 221 1092 57 1071 79 l 1071 751 l 1181 751 l 1181 821 l 1071 821 z m 363 582 l 363 751 l 925 751 l 925 582 z "},"Ł":{"ha":1011,"x_min":0,"x_max":0,"o":"m 982 274 l 929 274 b 610 63 889 101 822 63 b 363 250 418 63 363 94 l 363 540 l 542 653 l 542 736 l 363 624 l 363 849 b 500 1017 363 989 381 1013 l 500 1069 l 78 1069 l 78 1017 b 217 858 197 1011 217 988 l 217 532 l 92 454 l 92 371 l 217 449 l 217 211 b 64 53 217 81 194 57 l 64 0 l 961 0 z "},"Ø":{"ha":1314,"x_min":0,"x_max":0,"o":"m 657 1083 b 79 526 332 1083 79 840 b 272 121 79 364 153 219 l 88 -112 l 182 -112 l 332 78 b 657 -14 425 19 536 -14 b 1235 526 979 -14 1235 225 b 1028 957 1235 703 1154 856 l 1182 1153 l 1086 1153 l 965 1000 b 657 1083 876 1053 771 1083 z m 657 63 b 394 157 550 63 461 96 l 956 865 b 1054 522 1019 782 1054 665 b 657 63 1054 240 900 63 z m 260 522 b 657 1007 260 819 413 1007 b 903 921 756 1007 839 976 l 344 214 b 260 522 289 292 260 396 z "},"Ǿ":{"ha":1310,"x_min":0,"x_max":0,"o":"m 657 1083 b 79 526 332 1083 79 840 b 272 121 79 364 153 219 l 88 -112 l 182 -112 l 332 78 b 657 -14 425 19 536 -14 b 1235 526 979 -14 1235 225 b 1028 957 1235 703 1154 856 l 1182 1153 l 1086 1153 l 965 1000 b 657 1083 876 1053 771 1083 z m 657 63 b 394 157 550 63 461 96 l 956 865 b 1054 522 1019 782 1054 665 b 657 63 1054 240 900 63 z m 260 522 b 657 1007 260 819 413 1007 b 903 921 756 1007 839 976 l 344 214 b 260 522 289 292 260 396 z m 606 1181 l 772 1219 b 876 1285 835 1233 876 1256 b 824 1333 876 1315 856 1333 b 703 1288 786 1333 754 1318 l 522 1181 z "},"Ŧ":{"ha":1118,"x_min":0,"x_max":0,"o":"m 1079 1069 l 31 1069 l 31 804 l 82 804 b 340 1010 88 1001 196 1010 b 476 967 458 1010 476 999 l 476 649 l 193 649 l 193 579 l 476 579 l 476 224 b 296 53 476 104 453 58 l 296 0 l 821 0 l 821 53 b 642 224 664 58 642 104 l 642 579 l 925 579 l 925 649 l 642 649 l 642 967 b 799 1010 642 999 661 1010 b 1036 804 960 1010 1024 965 l 1093 804 z "},"đ":{"ha":938,"x_min":0,"x_max":0,"o":"m 672 -14 l 903 1 l 903 49 b 790 106 817 49 801 61 b 781 351 782 140 781 224 l 781 831 l 899 831 l 899 904 l 781 904 l 781 1153 l 496 1100 l 496 1058 b 639 1003 592 1058 629 1043 b 646 904 642 988 644 953 l 511 904 l 511 831 l 647 831 l 647 657 b 428 750 583 721 515 750 b 67 369 219 750 67 589 b 428 -14 67 146 218 -14 b 667 117 529 -14 600 24 l 672 117 z m 644 332 b 608 140 644 232 635 181 b 428 53 572 85 493 53 b 224 376 294 53 224 181 b 428 683 224 564 296 683 b 607 599 492 683 565 654 b 644 424 636 561 644 521 z "},"ħ":{"ha":956,"x_min":0,"x_max":0,"o":"m 289 399 b 313 549 289 483 293 510 b 515 674 353 626 429 674 b 672 386 629 674 672 594 l 672 211 b 556 49 672 71 661 54 l 556 0 l 924 0 l 924 49 b 810 221 818 56 810 69 l 810 443 b 764 668 810 561 796 626 b 564 750 725 718 649 750 b 292 624 463 750 349 697 l 286 624 l 286 831 l 419 831 l 419 904 l 286 904 l 286 1153 l 31 1100 l 31 1053 b 143 997 114 1053 135 1042 b 151 904 147 978 150 947 l 32 904 l 32 831 l 153 831 l 153 211 b 33 49 153 71 140 56 l 33 0 l 403 0 l 403 49 b 289 221 297 56 289 68 z "},"ł":{"ha":454,"x_min":0,"x_max":0,"o":"m 292 1153 l 29 1101 l 29 1054 b 154 1000 118 1054 144 1043 b 163 806 160 976 163 906 l 163 565 l 51 496 l 51 406 l 163 475 l 163 207 b 32 49 163 79 142 54 l 32 0 l 415 0 l 415 49 b 292 217 308 53 292 76 l 292 556 l 401 624 l 401 714 l 292 646 z "},"®":{"ha":1233,"x_min":0,"x_max":0,"o":"m 1154 536 b 613 1083 1154 840 913 1083 b 79 535 317 1083 79 836 b 614 -14 79 233 318 -14 b 1154 536 913 -14 1154 231 z m 1088 536 b 614 53 1088 269 875 53 b 146 535 353 53 146 269 b 613 1017 146 799 351 1017 b 1088 536 875 1017 1088 804 z m 822 704 b 589 854 822 797 738 854 l 346 854 l 346 819 b 415 732 406 817 415 803 l 415 372 b 338 285 415 301 404 288 l 338 254 l 613 254 l 613 285 b 513 376 524 285 513 301 l 513 532 b 596 492 557 532 571 526 l 788 254 l 938 254 l 938 285 b 844 338 896 292 871 306 l 672 546 b 822 704 776 563 822 621 z m 513 800 b 525 813 513 807 515 813 l 589 813 b 707 700 671 813 707 782 b 568 578 707 614 661 578 l 513 578 z "},"ª":{"ha":525,"x_min":0,"x_max":0,"o":"m 303 861 b 222 753 303 803 265 753 b 174 806 193 753 174 775 b 303 908 174 840 208 874 z m 206 904 b 88 786 117 865 88 833 b 188 704 88 738 126 704 b 304 771 238 704 281 731 l 310 771 b 371 704 310 728 329 704 b 454 742 406 704 442 719 l 444 758 b 411 740 436 746 424 740 b 381 821 390 740 381 768 l 381 976 b 246 1083 381 1054 344 1083 b 100 1014 156 1083 100 1051 b 135 974 100 986 113 974 b 171 1007 151 974 165 983 b 233 1050 179 1043 193 1050 b 303 974 282 1050 303 1026 l 303 947 z "},"º":{"ha":532,"x_min":0,"x_max":0,"o":"m 264 1083 b 74 896 161 1083 74 1004 b 264 704 74 785 161 704 b 458 896 368 704 458 785 b 264 1083 458 1004 368 1083 z m 264 1047 b 368 896 326 1047 368 985 b 264 742 368 803 326 742 b 163 896 203 742 163 803 b 264 1047 163 985 204 1047 z "},"°":{"ha":481,"x_min":0,"x_max":0,"o":"m 74 917 b 240 750 74 825 149 750 b 407 917 332 750 407 825 b 240 1083 407 1008 332 1083 b 74 917 149 1083 74 1008 z m 115 917 b 240 1040 115 985 172 1040 b 364 917 308 1040 364 985 b 240 792 364 849 308 792 b 115 917 172 792 115 849 z "},"Æ":{"ha":1460,"x_min":0,"x_max":0,"o":"m 514 53 l 514 0 l 1376 0 l 1397 274 l 1344 274 b 1043 60 1308 110 1239 60 b 813 218 868 60 813 97 l 813 532 b 1075 368 1001 531 1056 499 l 1124 368 l 1124 747 l 1075 747 b 813 588 1063 618 992 588 l 813 986 b 836 1010 813 1000 821 1010 l 1013 1010 b 1288 825 1201 1010 1265 972 l 1336 825 l 1336 1069 l 453 1069 l 453 1017 b 568 982 538 1017 568 1007 b 558 950 568 972 564 963 b 142 165 240 335 194 260 b -15 53 99 88 69 63 l -15 0 l 321 0 l 321 53 b 219 108 276 57 219 53 b 340 382 219 168 285 275 l 346 394 l 667 394 l 667 211 b 514 53 667 81 644 57 z m 379 457 l 667 1001 l 667 457 z "},"ə":{"ha":797,"x_min":0,"x_max":0,"o":"m 115 568 b 326 678 185 644 250 678 b 572 358 475 678 572 551 b 567 296 572 333 571 311 l 110 296 b 67 268 72 296 67 293 b 349 -14 67 88 171 -14 b 729 376 572 -14 729 149 b 365 750 729 599 582 750 b 72 607 247 750 153 704 z m 557 232 b 371 53 533 114 469 53 b 218 193 278 53 218 108 b 301 232 218 226 226 232 z "},"Ǽ":{"ha":1460,"x_min":0,"x_max":0,"o":"m 514 53 l 514 0 l 1376 0 l 1397 274 l 1344 274 b 1043 60 1308 110 1239 60 b 813 218 868 60 813 97 l 813 532 b 1075 368 1001 531 1056 499 l 1124 368 l 1124 747 l 1075 747 b 813 588 1063 618 992 588 l 813 986 b 836 1010 813 1000 821 1010 l 1013 1010 b 1288 825 1201 1010 1265 972 l 1336 825 l 1336 1069 l 453 1069 l 453 1017 b 568 982 538 1017 568 1007 b 558 950 568 972 564 963 b 142 165 240 335 194 260 b -15 53 99 88 69 63 l -15 0 l 321 0 l 321 53 b 219 108 276 57 219 53 b 340 382 219 168 285 275 l 346 394 l 667 394 l 667 211 b 514 53 667 81 644 57 z m 379 457 l 667 1001 l 667 457 z m 739 1181 l 906 1219 b 1010 1285 968 1233 1010 1256 b 957 1333 1010 1315 989 1333 b 836 1288 919 1333 888 1318 l 656 1181 z "},"ø":{"ha":904,"x_min":0,"x_max":0,"o":"m 450 750 b 65 374 242 750 65 593 b 189 85 65 254 114 154 l 56 -85 l 150 -85 l 249 40 b 450 -14 308 6 376 -14 b 840 374 661 -14 840 149 b 725 642 840 482 796 575 l 868 822 l 772 822 l 665 688 b 450 750 603 728 529 750 z m 450 683 b 606 613 513 683 567 657 l 263 178 b 222 372 236 229 222 294 b 450 683 222 558 313 683 z m 683 372 b 450 57 683 182 592 57 b 307 114 393 57 344 76 l 649 546 b 683 372 671 497 683 439 z "},"ǿ":{"ha":904,"x_min":0,"x_max":0,"o":"m 450 750 b 65 374 242 750 65 593 b 189 85 65 254 114 154 l 56 -85 l 150 -85 l 249 40 b 450 -14 308 6 376 -14 b 840 374 661 -14 840 149 b 725 642 840 482 796 575 l 868 822 l 772 822 l 665 688 b 450 750 603 728 529 750 z m 450 683 b 606 613 513 683 567 657 l 263 178 b 222 372 236 229 222 294 b 450 683 222 558 313 683 z m 683 372 b 450 57 683 182 592 57 b 307 114 393 57 344 76 l 649 546 b 683 372 671 497 683 439 z m 444 904 l 635 994 b 706 1067 679 1015 706 1038 b 653 1115 706 1097 685 1115 b 560 1069 624 1115 594 1101 l 379 904 z "},"ŧ":{"ha":529,"x_min":0,"x_max":0,"o":"m 143 649 l 143 529 l 60 529 l 60 456 l 143 456 l 143 156 b 331 -14 143 47 208 -14 b 517 92 425 -14 490 24 l 482 118 b 375 54 451 72 421 54 b 279 226 301 54 279 96 l 279 456 l 447 456 l 447 529 l 279 529 l 279 649 l 465 649 l 465 714 l 279 714 l 279 889 l 239 889 b 60 700 210 810 158 758 l 60 649 z "},"Ə":{"ha":1115,"x_min":0,"x_max":0,"o":"m 138 842 b 454 1006 243 965 325 1006 b 854 521 699 1006 854 813 b 847 432 854 486 853 454 l 143 432 b 81 392 89 432 81 428 b 486 -14 81 132 231 -14 b 1033 547 807 -14 1033 219 b 510 1085 1033 867 822 1085 b 82 885 340 1085 197 1025 z m 833 340 b 518 67 794 158 686 67 b 278 283 369 67 278 153 b 397 340 278 332 289 340 z "},"µ":{"ha":1001,"x_min":0,"x_max":0,"o":"m 288 114 b 460 -14 325 31 385 -14 b 686 151 546 -14 628 44 l 692 151 l 707 -15 l 936 1 l 936 50 b 824 106 850 50 832 60 b 815 310 818 139 815 206 l 815 736 l 564 736 l 564 688 b 679 514 663 688 679 663 l 679 378 b 656 229 679 300 675 272 b 467 61 606 113 547 61 b 317 357 361 61 317 150 l 317 736 l 65 736 l 65 688 b 181 514 164 688 181 661 l 181 -275 b 261 -361 181 -324 215 -361 b 339 -264 308 -361 339 -324 b 282 113 339 -212 311 -32 z "},"μ":{"ha":1001,"x_min":0,"x_max":0,"o":"m 288 114 b 460 -14 325 31 385 -14 b 686 151 546 -14 628 44 l 692 151 l 707 -15 l 936 1 l 936 50 b 824 106 850 50 832 60 b 815 310 818 139 815 206 l 815 736 l 564 736 l 564 688 b 679 514 663 688 679 663 l 679 378 b 656 229 679 300 675 272 b 467 61 606 113 547 61 b 317 357 361 61 317 150 l 317 736 l 65 736 l 65 688 b 181 514 164 688 181 661 l 181 -275 b 261 -361 181 -324 215 -361 b 339 -264 308 -361 339 -324 b 282 113 339 -212 311 -32 z "},"Ŋ":{"ha":1253,"x_min":0,"x_max":0,"o":"m 964 -60 b 783 -294 964 -208 897 -294 b 697 -218 747 -294 729 -278 b 618 -153 669 -167 653 -153 b 547 -226 574 -153 547 -179 b 758 -361 547 -307 632 -361 b 1047 -14 943 -361 1047 -239 l 1047 817 b 1200 1017 1047 989 1069 1013 l 1200 1069 l 826 1069 l 826 1017 b 964 807 944 1013 964 990 l 964 260 l 958 260 l 351 1069 l 76 1069 l 76 1017 b 215 817 196 1011 215 974 l 215 253 b 63 53 215 81 193 57 l 63 0 l 436 0 l 436 53 b 299 263 318 57 299 79 l 299 856 l 304 856 l 964 -14 z "},"ŋ":{"ha":922,"x_min":0,"x_max":0,"o":"m 300 404 b 325 553 300 492 306 515 b 521 675 364 628 439 675 b 679 392 636 675 679 601 l 679 -94 b 556 -301 679 -249 644 -301 b 468 -232 510 -301 494 -287 b 396 -167 440 -176 429 -167 b 325 -232 351 -167 325 -190 b 526 -361 325 -308 408 -361 b 811 -3 710 -361 811 -233 l 811 450 b 768 672 811 568 800 629 b 571 750 731 719 656 750 b 293 613 461 750 363 699 l 288 613 l 271 750 l 49 697 l 49 653 b 160 594 129 653 149 644 b 168 393 165 571 168 501 l 168 208 b 51 47 168 69 154 54 l 51 0 l 415 0 l 415 47 b 300 218 308 54 300 68 z "},"þ":{"ha":908,"x_min":0,"x_max":0,"o":"m 126 -135 b -4 -299 126 -268 107 -294 l -4 -347 l 424 -347 l 424 -299 b 265 -125 286 -294 265 -272 l 265 78 b 483 -15 318 18 394 -15 b 842 368 686 -15 842 150 b 488 750 842 583 688 750 b 265 638 394 750 325 715 l 260 638 l 260 1153 l -1 1097 l -1 1063 b 108 1018 86 1050 96 1044 b 126 839 119 994 126 932 z m 263 414 b 293 582 263 486 274 543 b 463 685 325 646 388 685 b 685 364 593 685 685 553 b 468 51 685 176 597 51 b 263 290 349 51 263 151 z "},"Þ":{"ha":971,"x_min":0,"x_max":0,"o":"m 364 851 b 556 1017 364 989 388 1017 l 556 1069 l 65 1069 l 65 1017 b 218 858 196 1013 218 989 l 218 211 b 65 53 218 81 196 57 l 65 0 l 556 0 l 556 53 b 364 218 388 53 364 81 l 364 244 l 489 244 b 917 543 799 244 917 349 b 515 828 917 711 769 828 l 364 828 z m 364 739 b 388 763 364 753 372 763 l 515 763 b 736 543 667 763 736 699 b 463 314 736 381 646 314 l 364 314 z "},"ð":{"ha":889,"x_min":0,"x_max":0,"o":"m 243 339 b 431 624 243 518 313 624 b 622 339 549 624 622 515 b 429 49 622 160 547 49 b 243 339 313 49 243 156 z m 222 1036 b 413 944 317 1003 371 976 l 244 846 l 278 801 l 458 906 b 633 575 539 829 596 722 l 629 572 b 417 692 590 650 515 692 b 69 339 218 692 69 535 b 428 -14 69 136 226 -14 b 799 428 642 -14 799 169 b 542 954 799 638 704 840 l 704 1049 l 669 1093 l 489 989 b 249 1083 424 1028 335 1058 z "},"ƒ":{"ha":926,"x_min":0,"x_max":0,"o":"m 90 -293 b 10 -219 58 -293 43 -279 b -64 -172 -8 -187 -33 -172 b -129 -240 -104 -172 -129 -199 b 38 -361 -129 -310 -58 -361 b 308 -137 151 -361 240 -287 b 422 314 356 -32 386 88 l 465 582 l 626 582 l 644 649 l 472 649 l 486 726 b 654 1017 519 921 575 1017 b 749 969 683 1017 704 1006 b 833 924 789 936 811 924 b 894 986 867 924 894 951 b 710 1083 894 1042 815 1083 b 354 729 528 1083 396 951 l 339 649 l 200 649 l 181 582 l 326 582 l 257 114 b 90 -293 213 -179 167 -293 z "},"ß":{"ha":914,"x_min":0,"x_max":0,"o":"m 469 1153 b 153 814 271 1153 153 1024 l 153 213 b 33 53 153 72 138 53 l 33 0 l 372 0 l 372 53 b 283 224 300 53 283 86 l 283 822 b 306 999 283 917 289 963 b 450 1083 331 1054 382 1083 b 596 879 546 1083 596 1014 b 424 676 596 740 542 676 l 424 606 b 681 299 600 606 681 472 b 565 50 681 157 628 50 b 508 117 529 50 521 86 b 451 164 496 149 475 164 b 403 97 424 164 403 139 b 556 -14 403 33 460 -14 b 847 303 717 -14 847 121 b 563 642 847 499 725 642 l 563 649 b 763 894 707 679 763 768 b 469 1153 763 1047 640 1153 z "},"⁰":{"ha":431,"x_min":0,"x_max":0,"o":"m 215 1083 b 51 861 125 1083 51 986 b 215 644 51 740 125 644 b 379 861 306 644 379 740 b 215 1083 379 986 306 1083 z m 215 679 b 131 858 161 679 131 719 b 215 1049 131 1004 161 1049 b 300 858 269 1049 300 1004 b 215 679 300 719 268 679 z "},"¹":{"ha":342,"x_min":0,"x_max":0,"o":"m 204 1083 b 82 1060 165 1071 121 1061 l 82 1032 b 140 1014 119 1032 138 1029 b 143 933 143 1007 143 976 l 143 743 b 85 678 143 690 135 681 l 85 650 l 263 650 l 263 678 b 204 747 213 679 204 690 z "},"²":{"ha":396,"x_min":0,"x_max":0,"o":"m 135 710 b 331 964 243 790 331 872 b 190 1083 331 1033 272 1083 b 53 968 111 1083 53 1035 b 124 885 53 919 83 885 b 174 921 151 885 171 900 b 113 981 138 921 113 944 b 181 1051 113 1021 142 1051 b 257 964 228 1051 257 1018 b 47 668 257 886 217 819 l 47 650 l 326 650 l 347 768 l 319 768 b 253 704 304 717 289 704 l 135 704 z "},"³":{"ha":388,"x_min":0,"x_max":0,"o":"m 258 769 b 181 678 258 710 231 678 b 114 735 142 678 114 701 b 163 782 114 763 135 782 b 113 814 158 800 136 814 b 49 743 76 814 49 783 b 182 644 49 686 104 644 b 336 765 271 644 336 696 b 232 876 336 821 292 863 l 232 882 b 322 985 283 893 322 935 b 183 1083 322 1044 268 1083 b 65 1006 113 1083 65 1053 b 121 946 65 972 89 946 b 167 974 143 946 164 958 b 128 1010 143 974 128 989 b 183 1053 128 1036 149 1053 b 249 982 228 1053 249 1031 b 183 888 249 925 222 888 b 149 894 172 892 158 894 b 125 875 135 894 125 888 b 150 853 125 863 135 853 b 188 863 161 853 176 857 b 258 769 232 863 258 829 z "},"⁴":{"ha":381,"x_min":0,"x_max":0,"o":"m 28 750 l 186 750 l 186 736 b 128 671 186 683 178 674 l 128 650 l 299 650 l 299 671 b 254 740 261 672 254 683 l 254 751 b 306 703 300 750 306 743 l 332 703 l 332 833 l 306 833 b 254 783 306 790 301 785 l 254 1083 l 224 1083 l 28 785 z m 186 785 l 63 785 l 181 965 l 186 965 z "},"⁵":{"ha":363,"x_min":0,"x_max":0,"o":"m 153 1017 l 203 1017 b 296 1083 253 1017 288 1042 l 290 1083 b 206 1074 281 1079 238 1074 b 140 1083 178 1074 153 1078 l 82 864 b 79 849 81 860 79 851 b 92 839 79 842 83 839 b 113 854 101 839 107 843 b 179 903 132 889 150 903 b 238 815 219 903 238 875 b 139 676 238 731 200 676 b 92 708 114 676 101 685 b 53 753 75 747 68 753 b 29 721 39 753 29 743 b 140 644 29 675 74 644 b 314 801 239 644 314 713 b 188 933 314 883 263 933 b 132 918 164 933 144 928 l 128 921 z "},"⁶":{"ha":406,"x_min":0,"x_max":0,"o":"m 357 794 b 218 932 357 872 297 932 b 128 882 181 932 151 917 l 122 883 b 211 1051 122 979 164 1051 b 300 997 272 1051 253 997 b 331 1026 318 997 331 1008 b 226 1083 331 1058 285 1083 b 51 838 131 1083 51 972 b 203 644 51 724 113 644 b 357 794 288 644 357 711 z m 128 835 b 210 899 151 879 176 899 b 281 792 256 899 281 861 b 204 676 281 713 256 676 b 128 807 154 676 128 721 z "},"⁷":{"ha":331,"x_min":0,"x_max":0,"o":"m 182 869 b 78 667 93 711 78 686 b 110 636 78 649 90 636 b 172 717 132 636 150 658 b 314 1058 219 840 232 881 l 314 1069 l 144 1069 b 101 1086 108 1069 101 1072 b 104 1103 101 1090 103 1100 l 75 1103 l 36 947 l 64 947 l 72 969 b 154 1014 88 1010 96 1014 l 257 1014 z "},"⁸":{"ha":386,"x_min":0,"x_max":0,"o":"m 208 833 b 278 744 264 801 278 779 b 197 676 278 704 239 676 b 111 753 144 676 111 703 b 175 853 111 797 136 832 z m 246 890 b 318 986 286 914 318 939 b 276 1060 318 1017 301 1043 b 192 1083 253 1076 221 1083 b 101 1053 160 1083 125 1075 b 65 974 79 1032 65 1003 b 144 864 65 919 101 888 b 51 749 96 842 51 807 b 192 644 51 678 129 644 b 335 768 267 644 335 692 b 246 890 335 826 294 865 z m 189 917 b 121 997 139 943 121 963 b 190 1051 121 1025 146 1051 b 265 978 238 1051 265 1018 b 215 903 265 950 240 918 z "},"⁹":{"ha":406,"x_min":0,"x_max":0,"o":"m 49 933 b 188 796 49 856 108 796 b 278 846 225 796 254 811 l 283 844 b 194 676 283 749 242 676 b 106 731 133 676 153 731 b 75 701 88 731 75 719 b 179 644 75 669 121 644 b 354 890 275 644 354 756 b 203 1083 354 1004 293 1083 b 49 933 118 1083 49 1017 z m 278 893 b 196 829 254 849 229 829 b 125 936 150 829 125 867 b 201 1051 125 1015 150 1051 b 278 921 251 1051 278 1007 z "},"₀":{"ha":431,"x_min":0,"x_max":0,"o":"m 215 425 b 51 203 125 425 51 328 b 215 -14 51 82 125 -14 b 379 203 306 -14 379 82 b 215 425 379 328 306 425 z m 215 21 b 131 200 161 21 131 61 b 215 390 131 346 161 390 b 300 200 269 390 300 346 b 215 21 300 61 268 21 z "},"₁":{"ha":342,"x_min":0,"x_max":0,"o":"m 204 433 b 82 410 165 421 121 411 l 82 382 b 140 364 119 382 138 379 b 143 283 143 357 143 326 l 143 93 b 85 28 143 40 135 31 l 85 0 l 263 0 l 263 28 b 204 97 213 29 204 40 z "},"₂":{"ha":396,"x_min":0,"x_max":0,"o":"m 135 60 b 331 314 243 140 331 222 b 190 433 331 383 272 433 b 53 318 111 433 53 385 b 124 235 53 269 83 235 b 174 271 151 235 171 250 b 113 331 138 271 113 294 b 181 401 113 371 142 401 b 257 314 228 401 257 368 b 47 18 257 236 217 169 l 47 0 l 326 0 l 347 118 l 319 118 b 253 54 304 67 289 54 l 135 54 z "},"₃":{"ha":389,"x_min":0,"x_max":0,"o":"m 258 111 b 181 19 258 51 231 19 b 114 76 142 19 114 43 b 163 124 114 104 135 124 b 113 156 158 142 136 156 b 49 85 76 156 49 125 b 182 -14 49 28 104 -14 b 336 107 271 -14 336 38 b 232 218 336 163 292 204 l 232 224 b 322 326 283 235 322 276 b 183 425 322 386 268 425 b 65 347 113 425 65 394 b 121 288 65 314 89 288 b 167 315 143 288 164 300 b 128 351 143 315 128 331 b 183 394 128 378 149 394 b 249 324 228 394 249 372 b 183 229 249 267 222 229 b 149 236 172 233 158 236 b 125 217 135 236 125 229 b 150 194 125 204 135 194 b 188 204 161 194 176 199 b 258 111 232 204 258 171 z "},"₄":{"ha":381,"x_min":0,"x_max":0,"o":"m 28 100 l 186 100 l 186 86 b 128 21 186 33 178 24 l 128 0 l 299 0 l 299 21 b 254 90 261 22 254 33 l 254 101 b 306 53 300 100 306 93 l 332 53 l 332 183 l 306 183 b 254 133 306 140 301 135 l 254 433 l 224 433 l 28 135 z m 186 135 l 63 135 l 181 315 l 186 315 z "},"₅":{"ha":364,"x_min":0,"x_max":0,"o":"m 153 358 l 203 358 b 296 425 253 358 288 383 l 290 425 b 206 415 281 421 238 415 b 140 425 178 415 153 419 l 82 206 b 79 190 81 201 79 193 b 92 181 79 183 83 181 b 113 196 101 181 107 185 b 179 244 132 231 150 244 b 238 157 219 244 238 217 b 139 18 238 72 200 18 b 92 50 114 18 101 26 b 53 94 75 89 68 94 b 29 63 39 94 29 85 b 140 -14 29 17 74 -14 b 314 143 239 -14 314 54 b 188 275 314 225 263 275 b 132 260 164 275 144 269 l 128 263 z "},"₆":{"ha":406,"x_min":0,"x_max":0,"o":"m 357 136 b 218 274 357 214 297 274 b 128 224 181 274 151 258 l 122 225 b 211 393 122 321 164 393 b 300 339 272 393 253 339 b 331 368 318 339 331 350 b 226 425 331 400 285 425 b 51 179 131 425 51 314 b 203 -14 51 65 113 -14 b 357 136 288 -14 357 53 z m 128 176 b 210 240 151 221 176 240 b 281 133 256 240 281 203 b 204 18 281 54 256 18 b 128 149 154 18 128 63 z "},"₇":{"ha":331,"x_min":0,"x_max":0,"o":"m 182 219 b 78 17 93 61 78 36 b 110 -14 78 -1 90 -14 b 172 67 132 -14 150 8 b 314 408 219 190 232 231 l 314 419 l 144 419 b 101 436 108 419 101 422 b 104 453 101 440 103 450 l 75 453 l 36 297 l 64 297 l 72 319 b 154 364 88 360 96 364 l 257 364 z "},"₈":{"ha":389,"x_min":0,"x_max":0,"o":"m 208 175 b 278 86 264 143 278 121 b 197 18 278 46 239 18 b 111 94 144 18 111 44 b 175 194 111 139 136 174 z m 246 232 b 318 328 286 256 318 281 b 276 401 318 358 301 385 b 192 425 253 418 221 425 b 101 394 160 425 125 417 b 65 315 79 374 65 344 b 144 206 65 261 101 229 b 51 90 96 183 51 149 b 192 -14 51 19 129 -14 b 335 110 267 -14 335 33 b 246 232 335 168 294 207 z m 189 258 b 121 339 139 285 121 304 b 190 393 121 367 146 393 b 265 319 238 393 265 360 b 215 244 265 292 240 260 z "},"₉":{"ha":406,"x_min":0,"x_max":0,"o":"m 49 275 b 188 138 49 197 108 138 b 278 188 225 138 254 153 l 283 186 b 194 18 283 90 242 18 b 106 72 133 18 153 72 b 75 43 88 72 75 61 b 179 -14 75 11 121 -14 b 354 232 275 -14 354 97 b 203 425 354 346 293 425 b 49 275 118 425 49 358 z m 278 235 b 196 171 254 190 229 171 b 125 278 150 171 125 208 b 201 393 125 357 150 393 b 278 263 251 393 278 349 z "},"%":{"ha":932,"x_min":0,"x_max":0,"o":"m 883 1069 l 817 1069 l 49 0 l 128 0 z m 278 1083 b 114 861 188 1083 114 986 b 278 644 114 740 188 644 b 442 861 368 644 442 740 b 278 1083 442 986 368 1083 z m 278 679 b 193 858 224 679 193 719 b 278 1049 193 1004 224 1049 b 363 858 332 1049 363 1004 b 278 679 363 719 331 679 z m 654 425 b 490 203 564 425 490 328 b 654 -14 490 82 564 -14 b 818 203 744 -14 818 82 b 654 425 818 328 744 425 z m 654 21 b 569 200 600 21 569 61 b 654 390 569 346 600 390 b 739 200 708 390 739 346 b 654 21 739 61 707 21 z "},"‰":{"ha":1272,"x_min":0,"x_max":0,"o":"m 883 1069 l 817 1069 l 49 0 l 128 0 z m 278 1083 b 114 861 188 1083 114 986 b 278 644 114 740 188 644 b 442 861 368 644 442 740 b 278 1083 442 986 368 1083 z m 278 679 b 193 858 224 679 193 719 b 278 1049 193 1004 224 1049 b 363 858 332 1049 363 1004 b 278 679 363 719 331 679 z m 1058 425 b 894 203 968 425 894 328 b 1058 -14 894 82 968 -14 b 1222 203 1149 -14 1222 82 b 1058 425 1222 328 1149 425 z m 1058 21 b 974 200 1004 21 974 61 b 1058 390 974 346 1004 390 b 1143 200 1113 390 1143 346 b 1058 21 1143 61 1111 21 z m 654 425 b 490 203 564 425 490 328 b 654 -14 490 82 564 -14 b 818 203 744 -14 818 82 b 654 425 818 328 744 425 z m 654 21 b 569 200 600 21 569 61 b 654 390 569 346 600 390 b 739 200 708 390 739 346 b 654 21 739 61 707 21 z "},"½":{"ha":938,"x_min":0,"x_max":0,"o":"m 878 1069 l 811 1069 l 43 0 l 122 0 z m 304 1083 b 182 1060 265 1071 221 1061 l 182 1032 b 240 1014 219 1032 238 1029 b 243 933 243 1007 243 976 l 243 743 b 185 678 243 690 235 681 l 185 650 l 363 650 l 363 678 b 304 747 313 679 304 690 z m 600 60 b 796 314 708 140 796 222 b 656 433 796 383 738 433 b 518 318 576 433 518 385 b 589 235 518 269 549 235 b 639 271 617 235 636 250 b 578 331 603 271 578 294 b 646 401 578 371 607 401 b 722 314 693 401 722 368 b 513 18 722 236 682 169 l 513 0 l 792 0 l 813 118 l 785 118 b 718 54 769 67 754 54 l 600 54 z "},"⅓":{"ha":935,"x_min":0,"x_max":0,"o":"m 878 1069 l 811 1069 l 43 0 l 122 0 z m 304 1083 b 182 1060 265 1071 221 1061 l 182 1032 b 240 1014 219 1032 238 1029 b 243 933 243 1007 243 976 l 243 743 b 185 678 243 690 235 681 l 185 650 l 363 650 l 363 678 b 304 747 313 679 304 690 z m 726 111 b 649 19 726 51 699 19 b 582 76 610 19 582 43 b 631 124 582 104 603 124 b 581 156 626 142 604 156 b 517 85 544 156 517 125 b 650 -14 517 28 572 -14 b 804 107 739 -14 804 38 b 700 218 804 163 760 204 l 700 224 b 790 326 751 235 790 276 b 651 425 790 386 736 425 b 533 347 581 425 533 394 b 589 288 533 314 557 288 b 635 315 611 288 632 300 b 596 351 611 315 596 331 b 651 394 596 378 617 394 b 717 324 696 394 717 372 b 651 229 717 267 690 229 b 617 236 640 233 626 236 b 593 217 603 236 593 229 b 618 194 593 204 603 194 b 656 204 629 194 644 199 b 726 111 700 204 726 171 z "},"¼":{"ha":929,"x_min":0,"x_max":0,"o":"m 878 1069 l 811 1069 l 43 0 l 122 0 z m 304 1083 b 182 1060 265 1071 221 1061 l 182 1032 b 240 1014 219 1032 238 1029 b 243 933 243 1007 243 976 l 243 743 b 185 678 243 690 235 681 l 185 650 l 363 650 l 363 678 b 304 747 313 679 304 690 z m 490 100 l 649 100 l 649 86 b 590 21 649 33 640 24 l 590 0 l 761 0 l 761 21 b 717 90 724 22 717 33 l 717 101 b 768 53 763 100 768 93 l 794 53 l 794 183 l 768 183 b 717 133 768 140 764 135 l 717 433 l 686 433 l 490 135 z m 649 135 l 525 135 l 643 315 l 649 315 z "},"⅛":{"ha":935,"x_min":0,"x_max":0,"o":"m 878 1069 l 811 1069 l 43 0 l 122 0 z m 304 1083 b 182 1060 265 1071 221 1061 l 182 1032 b 240 1014 219 1032 238 1029 b 243 933 243 1007 243 976 l 243 743 b 185 678 243 690 235 681 l 185 650 l 363 650 l 363 678 b 304 747 313 679 304 690 z m 675 175 b 744 86 731 143 744 121 b 664 18 744 46 706 18 b 578 94 611 18 578 44 b 642 194 578 139 603 174 z m 713 232 b 785 328 753 256 785 281 b 743 401 785 358 768 385 b 658 425 719 418 688 425 b 568 394 626 425 592 417 b 532 315 546 374 532 344 b 611 206 532 261 568 229 b 518 90 563 183 518 149 b 658 -14 518 19 596 -14 b 801 110 733 -14 801 33 b 713 232 801 168 761 207 z m 656 258 b 588 339 606 285 588 304 b 657 393 588 367 613 393 b 732 319 704 393 732 360 b 682 244 732 292 707 260 z "},"⅔":{"ha":939,"x_min":0,"x_max":0,"o":"m 892 1069 l 825 1069 l 57 0 l 136 0 z m 740 111 b 663 19 740 51 713 19 b 596 76 624 19 596 43 b 644 124 596 104 617 124 b 594 156 640 142 618 156 b 531 85 558 156 531 125 b 664 -14 531 28 586 -14 b 818 107 753 -14 818 38 b 714 218 818 163 774 204 l 714 224 b 804 326 765 235 804 276 b 665 425 804 386 750 425 b 547 347 594 425 547 394 b 603 288 547 314 571 288 b 649 315 625 288 646 300 b 610 351 625 315 610 331 b 665 394 610 378 631 394 b 731 324 710 394 731 372 b 665 229 731 267 704 229 b 631 236 654 233 640 236 b 607 217 617 236 607 229 b 632 194 607 204 617 194 b 669 204 643 194 658 199 b 740 111 714 204 740 171 z m 203 710 b 399 964 311 790 399 872 b 258 1083 399 1033 340 1083 b 121 968 179 1083 121 1035 b 192 885 121 919 151 885 b 242 921 219 885 239 900 b 181 981 206 921 181 944 b 249 1051 181 1021 210 1051 b 325 964 296 1051 325 1018 b 115 668 325 886 285 819 l 115 650 l 394 650 l 415 768 l 388 768 b 321 704 372 717 357 704 l 203 704 z "},"¾":{"ha":932,"x_min":0,"x_max":0,"o":"m 888 1069 l 821 1069 l 53 0 l 132 0 z m 500 100 l 658 100 l 658 86 b 600 21 658 33 650 24 l 600 0 l 771 0 l 771 21 b 726 90 733 22 726 33 l 726 101 b 778 53 772 100 778 93 l 804 53 l 804 183 l 778 183 b 726 133 778 140 774 135 l 726 433 l 696 433 l 500 135 z m 658 135 l 535 135 l 653 315 l 658 315 z m 335 769 b 257 678 335 710 307 678 b 190 735 218 678 190 701 b 239 782 190 763 211 782 b 189 814 235 800 213 814 b 125 743 153 814 125 783 b 258 644 125 686 181 644 b 413 765 347 644 413 696 b 308 876 413 821 368 863 l 308 882 b 399 985 360 893 399 935 b 260 1083 399 1044 344 1083 b 142 1006 189 1083 142 1053 b 197 946 142 972 165 946 b 243 974 219 946 240 958 b 204 1010 219 974 204 989 b 260 1053 204 1036 225 1053 b 325 982 304 1053 325 1031 b 260 888 325 925 299 888 b 225 894 249 892 235 894 b 201 875 211 894 201 888 b 226 853 201 863 211 853 b 264 863 238 853 253 857 b 335 769 308 863 335 829 z "},"⅜":{"ha":936,"x_min":0,"x_max":0,"o":"m 889 1069 l 822 1069 l 54 0 l 133 0 z m 686 175 b 756 86 742 143 756 121 b 675 18 756 46 717 18 b 589 94 622 18 589 44 b 653 194 589 139 614 174 z m 724 232 b 796 328 764 256 796 281 b 754 401 796 358 779 385 b 669 425 731 418 699 425 b 579 394 638 425 603 417 b 543 315 557 374 543 344 b 622 206 543 261 579 229 b 529 90 574 183 529 149 b 669 -14 529 19 607 -14 b 813 110 744 -14 813 33 b 724 232 813 168 772 207 z m 667 258 b 599 339 617 285 599 304 b 668 393 599 367 624 393 b 743 319 715 393 743 360 b 693 244 743 292 718 260 z m 322 769 b 244 678 322 710 294 678 b 178 735 206 678 178 701 b 226 782 178 763 199 782 b 176 814 222 800 200 814 b 113 743 140 814 113 783 b 246 644 113 686 168 644 b 400 765 335 644 400 696 b 296 876 400 821 356 863 l 296 882 b 386 985 347 893 386 935 b 247 1083 386 1044 332 1083 b 129 1006 176 1083 129 1053 b 185 946 129 972 153 946 b 231 974 207 946 228 958 b 192 1010 207 974 192 989 b 247 1053 192 1036 213 1053 b 313 982 292 1053 313 1031 b 247 888 313 925 286 888 b 213 894 236 892 222 894 b 189 875 199 894 189 888 b 214 853 189 863 199 853 b 251 863 225 853 240 857 b 322 769 296 863 322 829 z "},"⅝":{"ha":933,"x_min":0,"x_max":0,"o":"m 885 1069 l 818 1069 l 50 0 l 129 0 z m 682 175 b 751 86 738 143 751 121 b 671 18 751 46 713 18 b 585 94 618 18 585 44 b 649 194 585 139 610 174 z m 719 232 b 792 328 760 256 792 281 b 750 401 792 358 775 385 b 665 425 726 418 694 425 b 575 394 633 425 599 417 b 539 315 553 374 539 344 b 618 206 539 261 575 229 b 525 90 569 183 525 149 b 665 -14 525 19 603 -14 b 808 110 740 -14 808 33 b 719 232 808 168 768 207 z m 663 258 b 594 339 613 285 594 304 b 664 393 594 367 619 393 b 739 319 711 393 739 360 b 689 244 739 292 714 260 z m 229 1017 l 279 1017 b 372 1083 329 1017 364 1042 l 367 1083 b 282 1074 357 1079 314 1074 b 217 1083 254 1074 229 1078 l 158 864 b 156 849 157 860 156 851 b 168 839 156 842 160 839 b 189 854 178 839 183 843 b 256 903 208 889 226 903 b 314 815 296 903 314 875 b 215 676 314 731 276 676 b 168 708 190 676 178 685 b 129 753 151 747 144 753 b 106 721 115 753 106 743 b 217 644 106 675 150 644 b 390 801 315 644 390 713 b 264 933 390 883 339 933 b 208 918 240 933 221 928 l 204 921 z "},"⅞":{"ha":936,"x_min":0,"x_max":0,"o":"m 879 1069 l 813 1069 l 44 0 l 124 0 z m 676 175 b 746 86 732 143 746 121 b 665 18 746 46 707 18 b 579 94 613 18 579 44 b 643 194 579 139 604 174 z m 714 232 b 786 328 754 256 786 281 b 744 401 786 358 769 385 b 660 425 721 418 689 425 b 569 394 628 425 593 417 b 533 315 547 374 533 344 b 613 206 533 261 569 229 b 519 90 564 183 519 149 b 660 -14 519 19 597 -14 b 803 110 735 -14 803 33 b 714 232 803 168 763 207 z m 657 258 b 589 339 607 285 589 304 b 658 393 589 367 614 393 b 733 319 706 393 733 360 b 683 244 733 292 708 260 z m 304 869 b 200 667 215 711 200 686 b 232 636 200 649 213 636 b 294 717 254 636 272 658 b 436 1058 342 840 354 881 l 436 1069 l 267 1069 b 224 1086 231 1069 224 1072 b 226 1103 224 1090 225 1100 l 197 1103 l 158 947 l 186 947 l 194 969 b 276 1014 210 1010 218 1014 l 379 1014 z "},"+":{"ha":764,"x_min":0,"x_max":0,"o":"m 418 144 l 418 435 l 707 435 l 707 504 l 418 504 l 418 794 l 346 794 l 346 504 l 57 504 l 57 435 l 346 435 l 346 144 z "},"−":{"ha":881,"x_min":0,"x_max":0,"o":"m 765 504 l 115 504 l 115 435 l 765 435 z "},"±":{"ha":881,"x_min":0,"x_max":0,"o":"m 476 325 l 476 615 l 765 615 l 765 685 l 476 685 l 476 975 l 404 975 l 404 685 l 115 685 l 115 615 l 404 615 l 404 325 z m 765 201 l 115 201 l 115 132 l 765 132 z "},"×":{"ha":721,"x_min":0,"x_max":0,"o":"m 146 204 l 361 419 l 575 206 l 624 254 l 410 468 l 625 683 l 574 735 l 358 519 l 144 733 l 96 685 l 310 471 l 94 256 z "},"÷":{"ha":832,"x_min":0,"x_max":0,"o":"m 329 225 b 419 135 329 175 369 135 b 511 225 471 135 511 175 b 419 317 511 276 471 317 b 329 225 369 317 329 276 z m 329 711 b 419 621 329 661 369 621 b 511 711 471 621 511 661 b 419 803 511 763 471 803 b 329 711 369 803 329 763 z m 742 504 l 92 504 l 92 435 l 742 435 z "},"<":{"ha":807,"x_min":0,"x_max":0,"o":"m 117 467 l 690 756 l 690 833 l 54 511 l 54 422 l 690 100 l 690 175 z "},">":{"ha":807,"x_min":0,"x_max":0,"o":"m 117 175 l 117 100 l 753 422 l 753 511 l 117 833 l 117 756 l 690 467 z "},"™":{"ha":1231,"x_min":0,"x_max":0,"o":"m 521 1069 l 101 1069 l 101 964 l 129 964 b 219 1039 132 1024 150 1039 b 274 1015 261 1039 274 1029 l 274 738 b 201 669 274 685 258 669 l 201 642 l 425 642 l 425 669 b 353 738 368 669 353 683 l 353 1015 b 406 1039 353 1029 365 1039 b 492 964 472 1039 485 1028 l 521 964 z m 836 756 l 710 1069 l 560 1069 l 560 1042 b 615 961 604 1042 615 1025 l 615 750 b 554 669 615 681 607 669 l 554 642 l 717 642 l 717 669 b 656 754 664 669 656 681 l 656 1000 l 661 1000 l 818 636 l 829 636 l 992 1000 l 997 1000 l 997 750 b 936 669 997 683 989 669 l 936 642 l 1124 642 l 1124 669 b 1063 754 1071 669 1063 682 l 1063 957 b 1118 1042 1063 1025 1074 1042 l 1118 1069 l 979 1069 l 842 756 z "}}}
